<svg width="107" height="64" viewBox="0 0 107 64" fill="none" xmlns="http://www.w3.org/2000/svg">
<path d="M106.398 31.9C106.398 49.4534 92.2199 63.8 74.4977 63.8C56.9442 63.8 42.5977 49.4534 42.5977 31.9C42.5977 14.3465 56.7755 0 74.3289 0C92.2199 0 106.398 14.3465 106.398 31.9Z" fill="#FFB600"/>
<path d="M74.4977 0C92.0511 0 106.398 14.3465 106.398 31.9C106.398 49.4534 92.2199 63.8 74.4977 63.8C56.9442 63.8 42.5977 49.4534 42.5977 31.9" fill="#F7981D"/>
<path d="M74.4977 0C92.0512 0 106.398 14.3465 106.398 31.9C106.398 49.4534 92.2199 63.8 74.4977 63.8" fill="#FF8500"/>
<path d="M31.6269 0C14.2422 0.168783 0.0644531 14.3465 0.0644531 31.9C0.0644531 49.4534 14.2422 63.8 31.9644 63.8C40.2348 63.8 47.6612 60.5931 53.3999 55.5296C54.5813 54.5169 55.594 53.3354 56.6067 52.1539H50.0242C49.1803 51.1412 48.3364 49.9597 47.6612 48.947H58.9697C59.6448 47.9344 60.32 46.7529 60.8263 45.5714H45.8046C45.2983 44.5587 44.7919 43.3772 44.4544 42.1957H62.0078C63.0205 38.9889 63.6956 35.6132 63.6956 32.0688C63.6956 29.7058 63.3581 27.5116 63.0205 25.3174H43.4417C43.6105 24.136 43.948 23.1233 44.2856 21.9418H61.839C61.5014 20.7603 60.9951 19.5788 60.4887 18.5661H45.6358C46.1422 17.3846 46.8173 16.3719 47.4925 15.1905H58.8009C58.1258 14.009 57.2819 12.8275 56.2692 11.8148H50.0242C51.0369 10.6333 52.0496 9.62063 53.2311 8.60793C47.6612 3.37566 40.066 0.337566 31.7956 0.337566C31.7956 -3.26958e-07 31.7956 0 31.6269 0Z" fill="#FF5050"/>
<path d="M0.0644531 31.8998C0.0644531 49.4532 14.2422 63.7998 31.9644 63.7998C40.2348 63.7998 47.6612 60.5929 53.3999 55.5294C54.5813 54.5167 55.594 53.3353 56.6067 52.1538H50.0242C49.1803 51.1411 48.3364 49.9596 47.6612 48.9469H58.9697C59.6448 47.9342 60.32 46.7527 60.8263 45.5712H45.8046C45.2983 44.5585 44.7919 43.3771 44.4544 42.1956H62.0078C63.0205 38.9887 63.6956 35.613 63.6956 32.0686C63.6956 29.7056 63.3581 27.5115 63.0205 25.3173H43.4417C43.6105 24.1358 43.948 23.1231 44.2856 21.9416H61.839C61.5014 20.7601 60.9951 19.5787 60.4887 18.566H45.6358C46.1422 17.3845 46.8173 16.3718 47.4925 15.1903H58.8009C58.1258 14.0088 57.2819 12.8273 56.2692 11.8146H50.0242C51.0369 10.6332 52.0496 9.62047 53.2311 8.60777C47.6612 3.3755 40.066 0.337402 31.7956 0.337402H31.6269" fill="#E52836"/>
<path d="M31.9644 63.7998C40.2347 63.7998 47.6612 60.5929 53.3998 55.5294C54.5813 54.5167 55.594 53.3353 56.6067 52.1538H50.0241C49.1802 51.1411 48.3363 49.9596 47.6612 48.9469H58.9696C59.6448 47.9342 60.3199 46.7527 60.8263 45.5712H45.8046C45.2982 44.5585 44.7919 43.3771 44.4543 42.1956H62.0077C63.0204 38.9887 63.6956 35.613 63.6956 32.0686C63.6956 29.7056 63.358 27.5115 63.0204 25.3173H43.4416C43.6104 24.1358 43.948 23.1231 44.2855 21.9416H61.8389C61.5014 20.7601 60.995 19.5787 60.4887 18.566H45.6358C46.1421 17.3845 46.8173 16.3718 47.4924 15.1903H58.8009C58.1257 14.0088 57.2818 12.8273 56.2691 11.8146H50.0241C51.0368 10.6332 52.0495 9.62047 53.231 8.60777C47.6612 3.3755 40.0659 0.337402 31.7956 0.337402H31.6268" fill="#CB2026"/>
<path d="M43.273 40.0013L43.7794 37.132C43.6106 37.132 43.273 37.3008 42.9355 37.3008C41.754 37.3008 41.5852 36.6257 41.754 36.2881L42.7667 30.3807H44.6233L45.1296 27.1738H43.4418L43.7794 25.1484H40.4037C40.4037 25.1484 38.3783 36.2881 38.3783 37.6384C38.3783 39.6638 39.5598 40.5077 41.0789 40.5077C42.0915 40.5077 42.9355 40.1701 43.273 40.0013ZM44.4545 34.6003C44.4545 39.3262 47.6614 40.5077 50.3619 40.5077C52.8937 40.5077 53.9064 40.0013 53.9064 40.0013L54.5815 36.7945C54.5815 36.7945 52.7249 37.6384 51.037 37.6384C47.3238 37.6384 47.999 34.9378 47.999 34.9378H54.9191C54.9191 34.9378 55.4254 32.7437 55.4254 31.8998C55.4254 29.7056 54.2439 27.0051 50.5307 27.0051C46.9863 26.6675 44.4545 30.3807 44.4545 34.6003ZM50.3619 29.7056C52.2185 29.7056 51.881 31.8998 51.881 32.0685H48.1677C48.1677 31.8998 48.5053 29.7056 50.3619 29.7056ZM71.7973 40.0013L72.4725 36.2881C72.4725 36.2881 70.7847 37.132 69.6032 37.132C67.2402 37.132 66.2275 35.2754 66.2275 33.25C66.2275 29.1992 68.2529 27.0051 70.6159 27.0051C72.3037 27.0051 73.654 28.0178 73.654 28.0178L74.1603 24.4733C74.1603 24.4733 72.1349 23.6294 70.2783 23.6294C66.3963 23.6294 62.5143 27.0051 62.5143 33.4188C62.5143 37.6384 64.5397 40.5077 68.5905 40.5077C69.9407 40.5077 71.7973 40.0013 71.7973 40.0013ZM24.7069 26.6675C22.3439 26.6675 20.6561 27.3426 20.6561 27.3426L20.1498 30.2119C20.1498 30.2119 21.6688 29.5368 23.863 29.5368C25.0445 29.5368 26.0572 29.7056 26.0572 30.7183C26.0572 31.3934 25.8884 31.5622 25.8884 31.5622H24.3693C21.5 31.5622 18.2932 32.7437 18.2932 36.6257C18.2932 39.6638 20.3186 40.3389 21.5 40.3389C23.863 40.3389 24.8757 38.8199 25.0445 38.8199L24.8757 40.1701H27.9138L29.264 30.8871C29.264 26.8363 25.8884 26.6675 24.7069 26.6675ZM25.382 34.2627C25.382 34.7691 25.0445 37.4696 23.0191 37.4696C22.0064 37.4696 21.6688 36.6257 21.6688 36.1193C21.6688 35.2754 22.1752 34.0939 24.7069 34.0939C25.2133 34.2627 25.382 34.2627 25.382 34.2627ZM32.4709 40.3389C33.3148 40.3389 37.5344 40.5077 37.5344 35.9506C37.5344 31.731 33.4836 32.5749 33.4836 30.8871C33.4836 30.0431 34.1588 29.7056 35.3402 29.7056C35.8466 29.7056 37.7032 29.8744 37.7032 29.8744L38.2095 26.8363C38.2095 26.8363 37.0281 26.4987 35.0027 26.4987C32.4709 26.4987 29.9392 27.5114 29.9392 30.8871C29.9392 34.7691 34.1588 34.4315 34.1588 35.9506C34.1588 36.9632 32.9773 37.132 32.1334 37.132C30.6143 37.132 29.0953 36.6257 29.0953 36.6257L28.5889 39.6638C28.7577 40.0013 29.6016 40.3389 32.4709 40.3389ZM99.8153 23.967L99.1402 28.5241C99.1402 28.5241 97.7899 26.8363 95.9333 26.8363C92.8952 26.8363 90.1947 30.5495 90.1947 34.9378C90.1947 37.6384 91.545 40.5077 94.4143 40.5077C96.4397 40.5077 97.6211 39.1574 97.6211 39.1574L97.4524 40.3389H100.828L103.36 24.1357L99.8153 23.967ZM98.2963 32.9125C98.2963 34.7691 97.4524 37.132 95.5957 37.132C94.4143 37.132 93.7391 36.1193 93.7391 34.4315C93.7391 31.731 94.9206 30.0431 96.4397 30.0431C97.6211 30.0431 98.2963 30.8871 98.2963 32.9125ZM6.30957 40.1701L8.33496 28.0178L8.67253 40.1701H11.0355L15.4238 28.0178L13.5672 40.1701H17.1117L19.8122 23.967H14.2424L10.8667 33.9252L10.6979 23.967H5.80322L3.10269 40.1701H6.30957ZM58.6323 40.1701C59.645 34.6003 59.8138 30.0431 62.1767 30.8871C62.5143 28.6929 63.0206 27.849 63.3582 27.0051H62.6831C61.164 27.0051 59.9825 29.0304 59.9825 29.0304L60.3201 27.1738H57.1132L54.9191 40.3389H58.6323V40.1701ZM79.5614 26.6675C77.1984 26.6675 75.5106 27.3426 75.5106 27.3426L75.0042 30.2119C75.0042 30.2119 76.5233 29.5368 78.7174 29.5368C79.8989 29.5368 80.9116 29.7056 80.9116 30.7183C80.9116 31.3934 80.7428 31.5622 80.7428 31.5622H79.2238C76.3545 31.5622 73.1476 32.7437 73.1476 36.6257C73.1476 39.6638 75.173 40.3389 76.3545 40.3389C78.7175 40.3389 79.7301 38.8199 79.8989 38.8199L79.7301 40.1701H82.7682L84.1185 30.8871C84.2873 26.8363 80.7428 26.6675 79.5614 26.6675ZM80.4053 34.2627C80.4053 34.7691 80.0677 37.4696 78.0423 37.4696C77.0296 37.4696 76.6921 36.6257 76.6921 36.1193C76.6921 35.2754 77.1984 34.0939 79.7301 34.0939C80.2365 34.2627 80.2365 34.2627 80.4053 34.2627ZM86.9878 40.1701C88.0005 34.6003 88.1693 30.0431 90.5322 30.8871C90.8698 28.6929 91.3762 27.849 91.7137 27.0051H91.0386C89.5196 27.0051 88.3381 29.0304 88.3381 29.0304L88.6756 27.1738H85.4688L83.2746 40.3389H86.9878V40.1701Z" fill="white"/>
<path d="M38.0408 37.6384C38.0408 39.6638 39.2222 40.5077 40.7413 40.5077C41.9228 40.5077 42.9355 40.1701 43.273 40.0013L43.7794 37.132C43.6106 37.132 43.273 37.3008 42.9355 37.3008C41.754 37.3008 41.5852 36.6257 41.754 36.2881L42.7667 30.3807H44.6233L45.1296 27.1738H43.4418L43.7794 25.1484L38.0408 37.6384ZM46.1423 34.6003C46.1423 39.3262 47.6614 40.5077 50.3619 40.5077C52.8937 40.5077 53.9064 40.0013 53.9064 40.0013L54.5815 36.7945C54.5815 36.7945 52.7249 37.6384 51.037 37.6384C47.3238 37.6384 47.999 34.9378 47.999 34.9378H54.9191C54.9191 34.9378 55.4254 32.7437 55.4254 31.8998C55.4254 29.7056 54.2439 27.0051 50.5307 27.0051C46.9863 26.6675 46.1423 30.3807 46.1423 34.6003ZM50.3619 29.7056C52.2185 29.7056 52.5561 31.8998 52.5561 32.0685H48.1677C48.1677 31.8998 48.5053 29.7056 50.3619 29.7056ZM71.7973 40.0013L72.4725 36.2881C72.4725 36.2881 70.7847 37.132 69.6032 37.132C67.2402 37.132 66.2275 35.2754 66.2275 33.25C66.2275 29.1992 68.2529 27.0051 70.6159 27.0051C72.3037 27.0051 73.654 28.0178 73.654 28.0178L74.1603 24.4733C74.1603 24.4733 72.1349 23.6294 70.2783 23.6294C66.3963 23.6294 64.2021 27.0051 64.2021 33.4188C64.2021 37.6384 64.5397 40.5077 68.5905 40.5077C69.9407 40.5077 71.7973 40.0013 71.7973 40.0013ZM20.1498 30.3807C20.1498 30.3807 21.6688 29.7056 23.863 29.7056C25.0445 29.7056 26.0572 29.8744 26.0572 30.8871C26.0572 31.5622 25.8884 31.731 25.8884 31.731H24.3693C21.5 31.731 18.2932 32.9125 18.2932 36.7945C18.2932 39.8326 20.3186 40.5077 21.5 40.5077C23.863 40.5077 24.8757 38.9886 25.0445 38.9886L24.8757 40.3389H27.9138L29.264 31.0558C29.264 27.1738 25.8884 27.0051 24.5381 27.0051L20.1498 30.3807ZM27.0699 34.2627C27.0699 34.7691 25.0445 37.4696 23.0191 37.4696C22.0064 37.4696 21.6688 36.6257 21.6688 36.1193C21.6688 35.2754 22.1752 34.0939 24.7069 34.0939C25.2133 34.2627 27.0699 34.2627 27.0699 34.2627ZM28.7577 40.0013C28.7577 40.0013 29.7704 40.3389 32.6397 40.3389C33.4836 40.3389 37.7032 40.5077 37.7032 35.9506C37.7032 31.731 33.6524 32.5749 33.6524 30.8871C33.6524 30.0431 34.3275 29.7056 35.509 29.7056C36.0154 29.7056 37.872 29.8744 37.872 29.8744L38.3783 26.8363C38.3783 26.8363 37.1968 26.4987 35.1715 26.4987C32.6397 26.4987 31.7958 27.5114 31.7958 30.8871C31.7958 34.7691 34.3275 34.4315 34.3275 35.9506C34.3275 36.9632 33.1461 37.132 32.3021 37.132L28.7577 40.0013ZM99.1402 28.5241C99.1402 28.5241 97.7899 26.8363 95.9333 26.8363C92.8952 26.8363 91.8825 30.5495 91.8825 34.9378C91.8825 37.6384 91.545 40.5077 94.4143 40.5077C96.4397 40.5077 97.6211 39.1574 97.6211 39.1574L97.4524 40.3389H100.828L103.36 24.1357L99.1402 28.5241ZM98.9714 32.9125C98.9714 34.7691 97.4524 37.132 95.5957 37.132C94.4143 37.132 93.7391 36.1193 93.7391 34.4315C93.7391 31.731 94.9206 30.0431 96.4397 30.0431C97.6211 30.0431 98.9714 30.8871 98.9714 32.9125ZM6.30957 40.1701L8.33496 28.0178L8.67253 40.1701H11.0355L15.4238 28.0178L13.5672 40.1701H17.1117L19.8122 23.967H15.5926L10.8667 33.9252L10.6979 23.967H8.84131L3.10269 40.1701H6.30957ZM55.0878 40.1701H58.6323C59.645 34.6003 59.8138 30.0431 62.1767 30.8871C62.5143 28.6929 63.0206 27.849 63.3582 27.0051H62.6831C61.164 27.0051 59.9825 29.0304 59.9825 29.0304L60.3201 27.1738L55.0878 40.1701ZM75.0042 30.3807C75.0042 30.3807 76.5233 29.7056 78.7174 29.7056C79.8989 29.7056 80.9116 29.8744 80.9116 30.8871C80.9116 31.5622 80.7428 31.731 80.7428 31.731H79.2238C76.3545 31.731 73.1476 32.9125 73.1476 36.7945C73.1476 39.8326 75.173 40.5077 76.3545 40.5077C78.7175 40.5077 79.7301 38.9886 79.8989 38.9886L79.7301 40.3389H82.7682L84.1185 31.0558C84.1185 27.1738 80.7428 27.0051 79.3926 27.0051L75.0042 30.3807ZM81.9243 34.2627C81.9243 34.7691 79.8989 37.4696 77.8735 37.4696C76.8608 37.4696 76.5233 36.6257 76.5233 36.1193C76.5233 35.2754 77.0296 34.0939 79.5614 34.0939C80.2365 34.2627 81.9243 34.2627 81.9243 34.2627ZM83.4434 40.1701H86.9878C88.0005 34.6003 88.1693 30.0431 90.5322 30.8871C90.8698 28.6929 91.3762 27.849 91.7137 27.0051H91.0386C89.5196 27.0051 88.3381 29.0304 88.3381 29.0304L88.6756 27.1738" fill="#DCE5E5"/>
</svg>
