<svg width="78" height="118" viewBox="0 0 78 118" fill="none" xmlns="http://www.w3.org/2000/svg">
<path d="M56.6938 61.4767V63.5123C56.6938 77.13 51.7475 90.2185 38.1297 90.2185H10.8943C9.57118 90.2185 4.62483 50.953 6.55859 43.6047C10.3854 29.1117 34.7915 19.7686 34.7915 19.7686V36.6432L34.3029 36.8671C20.6241 42.0984 22.4968 59.0341 22.4968 59.0341C26.1148 54.4592 30.3324 50.3923 35.0357 46.943V61.4767H56.6938Z" fill="#E0E0E0"/>
<path d="M73.67 6.51419V59.4382C73.67 60.5179 73.2411 61.5534 72.4776 62.3168C71.7142 63.0803 70.6787 63.5092 69.5989 63.5092H36.5825C35.5028 63.5092 34.4673 63.0803 33.7039 62.3168C32.9404 61.5534 32.5115 60.5179 32.5115 59.4382V6.51419C32.5115 5.43447 32.9404 4.39898 33.7039 3.63551C34.4673 2.87203 35.5028 2.44312 36.5825 2.44312H69.5989C70.6787 2.44312 71.7142 2.87203 72.4776 3.63551C73.2411 4.39898 73.67 5.43447 73.67 6.51419Z" fill="#51A1F9"/>
<path d="M66.0971 2.44312V63.5092H59.9905V2.44312H66.0971ZM50.8306 35.6224C50.0208 35.6224 49.2442 35.3007 48.6716 34.7281C48.099 34.1555 47.7773 33.3789 47.7773 32.5691V28.498C47.7773 27.6882 48.099 26.9116 48.6716 26.339C49.2442 25.7664 50.0208 25.4447 50.8306 25.4447C51.6404 25.4447 52.417 25.7664 52.9896 26.339C53.5622 26.9116 53.8839 27.6882 53.8839 28.498V32.5691C53.8839 33.3789 53.5622 34.1555 52.9896 34.7281C52.417 35.3007 51.6404 35.6224 50.8306 35.6224ZM53.8228 2.44312V19.5009C53.8228 20.3107 53.5011 21.0873 52.9285 21.6599C52.3559 22.2325 51.5793 22.5542 50.7695 22.5542C49.9597 22.5542 49.1831 22.2325 48.6105 21.6599C48.0379 21.0873 47.7162 20.3107 47.7162 19.5009V2.44312H53.8228Z" fill="#2079EF"/>
<path d="M21.5184 62.2678C21.7623 60.3143 22.5845 58.4783 23.8797 56.9957C27.039 53.2277 30.6641 49.8762 34.668 47.0216C35.7688 46.1478 37.0314 45.5001 38.3833 45.1159C39.7352 44.7316 41.1497 44.6183 42.5455 44.7825C47.9804 45.9631 48.6521 53.3725 45.2324 56.609C43.0748 58.6445 41.487 60.1712 40.3268 61.4739C39.2106 62.6269 38.2893 63.9537 37.5992 65.4025C36.7948 67.3391 35.3993 68.9722 33.6119 70.0688C31.8244 71.1654 29.7363 71.6695 27.6454 71.5091C24.0018 71.0613 20.7653 68.9443 21.5184 62.2678Z" fill="#E0E0E0"/>
<path d="M53.0292 92.2534V110.187C53.0292 111.266 52.6003 112.302 51.8368 113.065C51.0734 113.829 50.0379 114.258 48.9582 114.258H6.82257C5.74285 114.258 4.70736 113.829 3.94389 113.065C3.18041 112.302 2.7515 111.266 2.7515 110.187V92.2534C2.7515 91.1737 3.18041 90.1382 3.94389 89.3748C4.70736 88.6113 5.74285 88.1824 6.82257 88.1824H48.9582C50.0379 88.1824 51.0734 88.6113 51.8368 89.3748C52.6003 90.1382 53.0292 91.1737 53.0292 92.2534Z" fill="#51A1F9"/>
<path d="M69.9648 0H36.8466C34.9571 0 33.145 0.750602 31.8089 2.08668C30.4728 3.42276 29.7222 5.23487 29.7222 7.12437V17.3021C23.9617 20.5182 6.72066 30.533 3.50451 40.4664C1.46897 46.7562 4.68512 74.4395 7.18883 85.8182C5.29933 85.8182 3.48722 86.5688 2.15114 87.9049C0.815056 89.2409 0.0644531 91.0531 0.0644531 92.9426V110.876C0.0644531 112.765 0.815056 114.577 2.15114 115.913C3.48722 117.249 5.29933 118 7.18883 118H49.3244C51.2139 118 53.0261 117.249 54.3621 115.913C55.6982 114.577 56.4488 112.765 56.4488 110.876V92.9426C56.4427 91.648 56.083 90.3798 55.4086 89.2749C54.7341 88.1699 53.7706 87.2703 52.622 86.6731C56.9374 82.4799 59.5225 75.8848 60.011 67.1727H69.9648C71.8543 67.1727 73.6664 66.4221 75.0025 65.086C76.3386 63.7499 77.0892 61.9378 77.0892 60.0483V7.12437C77.0892 6.18879 76.9049 5.26236 76.5469 4.39799C76.1888 3.53363 75.664 2.74824 75.0025 2.08668C74.3409 1.42512 73.5555 0.900344 72.6912 0.542311C71.8268 0.184277 70.9004 0 69.9648 0ZM24.9184 52.6593C24.6605 50.3194 24.9614 47.9516 25.7965 45.7506C26.6316 43.5496 27.977 41.5782 29.7222 39.9983V48.1404C28.0417 49.5602 26.4381 51.0686 24.9184 52.6593ZM50.3422 110.855C50.3422 111.125 50.235 111.384 50.0441 111.575C49.8532 111.766 49.5944 111.873 49.3244 111.873H7.16847C6.89855 111.873 6.63967 111.766 6.44881 111.575C6.25794 111.384 6.15071 111.125 6.15071 110.855V92.9426C6.15071 92.6726 6.25794 92.4137 6.44881 92.2229C6.63967 92.032 6.89855 91.9248 7.16847 91.9248H49.3244C49.5944 91.9248 49.8532 92.032 50.0441 92.2229C50.235 92.4137 50.3422 92.6726 50.3422 92.9426V110.855ZM38.4954 85.8182H13.3565C11.4227 77.9407 7.57558 47.6926 9.28543 42.3391C11.321 36.2325 22.3129 28.7214 29.6408 24.4264V32.2429L26.16 34.9501C19.8092 39.8761 17.4072 48.2015 19.4021 58.3995L19.7684 60.3129C19.8808 60.8862 20.1553 61.4152 20.5594 61.8372C20.9634 62.2591 21.48 62.5563 22.0479 62.6935C22.6158 62.8306 23.2111 62.802 23.7632 62.6109C24.3153 62.4199 24.801 62.0745 25.1626 61.6157C30.8418 54.3692 39.0653 47.3669 42.2408 48.3847C43.4417 48.7918 45.4773 49.6671 45.7622 51.0309C45.7638 51.8212 45.5806 52.6009 45.2272 53.3078C44.8737 54.0146 44.3599 54.629 43.7267 55.1019C36.1749 62.1245 34.75 64.4043 34.1597 70.4092C34.1204 70.8089 34.1603 71.2125 34.2772 71.5967C34.3941 71.981 34.5857 72.3384 34.841 72.6485C35.0963 72.9586 35.4102 73.2153 35.7648 73.4039C36.1195 73.5925 36.5078 73.7092 36.9077 73.7475H37.213C37.9691 73.7462 38.6978 73.4645 39.258 72.9568C39.8183 72.4492 40.1703 71.7517 40.2459 70.9995C40.3292 69.6763 40.6535 68.3794 41.2026 67.1727H53.9858C53.3344 76.3326 50.0165 85.8182 38.4954 85.8182ZM60.3571 61.0661H46.3526L48.0624 59.458C49.4922 58.2885 50.5931 56.7671 51.2569 55.0434C51.9207 53.3196 52.1246 51.4528 51.8485 49.6264C51.36 47.3669 49.6501 44.2729 44.2967 42.4816C42.873 42.1237 41.392 42.0545 39.9411 42.2783C38.4903 42.502 37.0989 43.0141 35.8492 43.7844V7.14473C35.8492 6.8748 35.9564 6.61593 36.1473 6.42506C36.3382 6.23419 36.597 6.12696 36.867 6.12696H48.1031V20.1314C48.1031 20.9412 48.4248 21.7179 48.9974 22.2905C49.57 22.8631 50.3466 23.1848 51.1564 23.1848C51.9662 23.1848 52.7428 22.8631 53.3154 22.2905C53.888 21.7179 54.2097 20.9412 54.2097 20.1314V6.10661H60.3163L60.3571 61.0661ZM70.9826 60.0483C70.9826 60.3182 70.8753 60.5771 70.6845 60.768C70.4936 60.9588 70.2347 61.0661 69.9648 61.0661H66.4637V6.10661H69.9648C70.2347 6.10661 70.4936 6.21384 70.6845 6.4047C70.8753 6.59557 70.9826 6.85445 70.9826 7.12437V60.0483ZM54.1894 29.1082V33.1792C54.1894 33.989 53.8677 34.7656 53.2951 35.3382C52.7225 35.9108 51.9459 36.2325 51.1361 36.2325C50.3263 36.2325 49.5497 35.9108 48.9771 35.3382C48.4044 34.7656 48.0828 33.989 48.0828 33.1792V29.1082C48.0828 28.2984 48.4044 27.5218 48.9771 26.9491C49.5497 26.3765 50.3263 26.0549 51.1361 26.0549C51.9459 26.0549 52.7225 26.3765 53.2951 26.9491C53.8677 27.5218 54.1894 28.2984 54.1894 29.1082ZM19.9924 101.899C19.9924 102.704 19.7536 103.491 19.3063 104.161C18.8589 104.83 18.2231 105.352 17.4792 105.66C16.7353 105.968 15.9168 106.049 15.1271 105.892C14.3373 105.735 13.612 105.347 13.0426 104.778C12.4733 104.208 12.0855 103.483 11.9284 102.693C11.7714 101.903 11.852 101.085 12.1601 100.341C12.4682 99.5971 12.99 98.9613 13.6595 98.5139C14.329 98.0666 15.1161 97.8278 15.9213 97.8278C17.001 97.8278 18.0365 98.2568 18.8 99.0202C19.5634 99.7837 19.9924 100.819 19.9924 101.899Z" fill="#004F84"/>
</svg>
