<svg width="31" height="31" viewBox="0 0 31 31" fill="none" xmlns="http://www.w3.org/2000/svg">
<path d="M15.1094 0C6.76266 0 0 6.76266 0 15.1094C0 23.4561 6.76266 30.2188 15.1094 30.2188C23.4561 30.2188 30.2188 23.4561 30.2188 15.1094C30.2188 6.76266 23.4561 0 15.1094 0ZM23.8826 16.8153C23.8826 17.2174 23.5536 17.5464 23.1515 17.5464H17.5464V23.1515C17.5464 23.5536 17.2174 23.8826 16.8153 23.8826H13.4035C13.0014 23.8826 12.6724 23.5536 12.6724 23.1515V17.5464H7.06729C6.66518 17.5464 6.33619 17.2174 6.33619 16.8153V13.4035C6.33619 13.0014 6.66518 12.6724 7.06729 12.6724H12.6724V7.06729C12.6724 6.66518 13.0014 6.33619 13.4035 6.33619H16.8153C17.2174 6.33619 17.5464 6.66518 17.5464 7.06729V12.6724H23.1515C23.5536 12.6724 23.8826 13.0014 23.8826 13.4035V16.8153Z" fill="#00C2FF"/>
</svg>
