<svg width="184" height="64" viewBox="0 0 184 64" fill="none" xmlns="http://www.w3.org/2000/svg">
<path d="M15.7984 15.734H22.2085L19.0034 7.57568L15.7984 15.734Z" fill="#2FABF7"/>
<path d="M95.3416 8.74108C94.7588 8.44971 93.8847 8.44971 93.0106 8.44971H87.1833V13.1116H93.0106C93.8847 13.1116 94.7588 13.1116 95.3416 12.8202C95.9243 12.5288 96.2157 11.6547 96.2157 10.7806C96.507 9.61517 95.9243 9.03244 95.3416 8.74108Z" fill="#228FE0"/>
<path d="M157.694 0V3.4964L155.946 0H142.252V3.4964L140.503 0H121.856C118.651 0 116.029 0.582735 113.698 1.7482V0H100.586V1.7482C99.1293 0.582735 97.3811 0 95.0502 0H48.14L44.935 7.28418L41.73 0H26.8702V3.4964L25.122 0H12.5932L6.7659 13.6943L0.0644531 28.8454H14.9242L16.6724 24.1835H20.7515L22.4997 28.8454H39.399V25.3489L40.8559 28.8454H49.3055L50.7623 25.3489V28.8454H91.2624V21.2698H91.8451C92.4279 21.2698 92.4279 21.2698 92.4279 22.1439V28.554H113.406V26.8058C115.155 27.6799 117.777 28.554 121.273 28.554H130.014L131.762 23.8921H135.842L137.59 28.554H154.489V24.1835L157.111 28.554H170.806V0H157.694ZM59.212 24.4748H54.2588V8.44965L47.2659 24.4748H42.8954L35.9026 8.44965V24.4748H25.9961L23.9566 20.1043H14.0501L12.3019 24.7662H6.7659L15.5069 4.07914H22.7911L30.9494 23.6007V4.07914H38.8163L45.2264 18.0648L51.0537 4.07914H59.212V24.4748ZM79.025 8.44965H67.6617V12.2374H78.7336V16.3166H67.6617V20.3957H79.025V24.7662H62.7084V4.07914H79.025V8.44965ZM100.878 16.8993C101.46 18.0648 101.752 18.9389 101.752 20.6871V24.7662H96.7984V22.1439C96.7984 20.9784 96.7984 19.2302 95.9243 18.0648C95.0502 17.1907 94.1761 17.1907 92.4279 17.1907H87.1833V24.7662H82.23V4.07914H93.302C95.9243 4.07914 97.6725 4.07914 99.1293 4.95324C100.586 5.82734 101.46 7.28418 101.46 9.61512C101.46 12.8202 99.4207 14.5684 97.9638 15.1511C99.4207 15.4425 100.295 16.3166 100.878 16.8993ZM109.619 24.4748H104.665V3.78777H109.619V24.4748ZM167.018 24.4748H160.025L150.701 9.03238V24.4748H140.795L139.047 20.1043H128.849L127.101 24.7662H121.565C119.234 24.7662 116.32 24.1835 114.572 22.4353C112.824 20.6871 111.949 18.3561 111.949 14.5684C111.949 11.6547 112.532 8.74101 114.572 6.41008C116.029 4.66187 118.651 4.07914 121.856 4.07914H126.518V8.44965H121.856C120.108 8.44965 119.234 8.74101 118.068 9.61512C117.194 10.4892 116.611 12.2374 116.611 14.277C116.611 16.6079 116.903 18.0648 118.068 19.2302C118.942 20.1043 120.108 20.3957 121.565 20.3957H123.604L130.306 4.37051H137.59L145.748 23.8921V4.37051H153.032L161.482 18.6475V4.37051H166.435V24.4748H167.018Z" fill="#0571C1"/>
<path d="M130.597 15.734H137.298L134.093 7.57568L130.597 15.734ZM81.0644 57.6908V41.0829L73.4888 49.2412L81.0644 57.6908Z" fill="#228FE0"/>
<path d="M49.8882 43.1221V46.9098H60.6688V50.989H49.8882V55.3595H61.8342L67.3702 49.2408L62.1256 43.1221H49.8882Z" fill="#2FABF7"/>
<path d="M92.1365 43.1221H86.0178V48.3667H92.4279C94.1761 48.3667 95.3416 47.4926 95.3416 45.7444C95.0502 43.9962 93.8847 43.1221 92.1365 43.1221Z" fill="#228FE0"/>
<path d="M182.169 48.0759V34.9644H169.932C167.309 34.9644 165.27 35.5471 163.813 36.7126V34.9644H150.41C148.37 34.9644 145.748 35.5471 144.583 36.7126V34.9644H120.982V36.7126C119.234 35.2557 116.029 34.9644 114.572 34.9644H98.838V36.7126C97.3812 35.2557 93.8848 34.9644 92.1366 34.9644H74.6545L70.5754 39.3349L66.7876 34.9644H40.5646V63.5184H66.2049L70.284 59.1478L74.0718 63.5184H89.8056V56.8169H91.8452C93.8848 56.8169 96.5071 56.8169 98.5466 55.9428V63.8097H111.658V56.2342H112.241C113.115 56.2342 113.115 56.2342 113.115 57.1083V63.8097H152.741C155.363 63.8097 157.986 63.227 159.442 62.0615V63.8097H171.971C174.593 63.8097 177.216 63.5183 178.964 62.3529C181.878 60.6047 183.626 57.3996 183.626 53.6119C183.626 51.5723 183.043 49.5327 182.169 48.0759ZM91.8452 52.7378H86.0179V59.7306H76.6941L70.8668 53.0291L64.7481 59.7306H45.5178V39.0435H65.0394L70.8668 45.7449L76.9855 39.0435H92.4279C96.2157 39.0435 100.586 40.209 100.586 45.7449C100.295 51.5723 96.2157 52.7378 91.8452 52.7378ZM120.982 51.5723C121.565 52.4464 121.856 53.6119 121.856 55.3601V59.4392H116.903V56.8169C116.903 55.6514 116.903 53.6119 116.029 52.7378C115.446 51.8637 114.28 51.8637 112.532 51.8637H107.288V59.4392H102.334V38.7521H113.406C115.737 38.7521 117.777 38.7521 119.234 39.6262C120.691 40.5003 121.856 41.9572 121.856 44.2881C121.856 47.4931 119.816 49.2414 118.36 49.8241C119.816 50.4068 120.691 50.9896 120.982 51.5723ZM141.086 43.1226H129.723V46.9104H140.795V50.9896H129.723V55.0687H141.086V59.4392H124.77V38.7521H141.086V43.1226ZM153.324 59.4392H144V55.0687H153.324C154.198 55.0687 154.781 55.0687 155.363 54.486C155.655 54.1946 155.946 53.6119 155.946 53.0291C155.946 52.4464 155.655 51.8637 155.363 51.5723C155.072 51.2809 154.489 50.9896 153.615 50.9896C148.953 50.6982 143.417 50.9896 143.417 44.5795C143.417 41.6658 145.165 38.4608 150.41 38.4608H160.025V43.414H150.993C150.119 43.414 149.536 43.414 148.953 43.7054C148.37 43.9967 148.37 44.5795 148.37 45.1622C148.37 46.0363 148.953 46.3277 149.536 46.619C150.119 46.9104 150.701 46.9104 151.284 46.9104H153.906C156.529 46.9104 158.277 47.4931 159.442 48.6586C160.317 49.5327 160.899 50.9896 160.899 53.0291C160.899 57.3996 158.277 59.4392 153.324 59.4392ZM178.381 57.3996C177.216 58.5651 175.176 59.4392 172.263 59.4392H162.939V55.0687H172.263C173.137 55.0687 173.719 55.0687 174.302 54.486C174.593 54.1946 174.885 53.6119 174.885 53.0291C174.885 52.4464 174.593 51.8637 174.302 51.5723C174.011 51.2809 173.428 50.9896 172.554 50.9896C167.892 50.6982 162.356 50.9896 162.356 44.5795C162.356 41.6658 164.104 38.4608 169.349 38.4608H178.964V43.414H170.223C169.349 43.414 168.766 43.414 168.183 43.7054C167.601 43.9967 167.601 44.5795 167.601 45.1622C167.601 46.0363 167.892 46.3277 168.766 46.619C169.349 46.9104 169.932 46.9104 170.514 46.9104H173.137C175.759 46.9104 177.507 47.4931 178.673 48.6586C178.964 48.6586 178.964 48.95 178.964 48.95C179.838 50.1155 180.129 51.5723 180.129 53.0291C180.129 54.7773 179.547 56.2342 178.381 57.3996Z" fill="#0571C1"/>
<path d="M115.737 43.7044C115.155 43.4131 114.28 43.4131 113.406 43.4131H107.579V48.075H113.406C114.28 48.075 115.155 48.075 115.737 47.7836C116.32 47.4922 116.611 46.6181 116.611 45.744C116.903 44.5786 116.32 43.9958 115.737 43.7044Z" fill="#228FE0"/>
<path d="M95.3414 8.74115C94.7586 8.44978 93.8845 8.44978 93.0104 8.44978H87.1831V13.1117H93.0104C93.8845 13.1117 94.7586 13.1117 95.3414 12.8203C95.9241 12.5289 96.2155 11.6548 96.2155 10.7807C96.5068 9.61525 95.9241 9.03252 95.3414 8.74115ZM130.597 15.734H137.298L134.093 7.57568L130.597 15.734ZM81.0644 57.6908V41.0829L73.4888 49.2412L81.0644 57.6908ZM92.1363 43.1225H86.0176V48.3671H92.4277C94.1759 48.3671 95.3414 47.493 95.3414 45.7448C95.05 43.9966 93.8845 43.1225 92.1363 43.1225ZM115.737 43.7052C115.154 43.4138 114.28 43.4138 113.406 43.4138H107.579V48.0757H113.406C114.28 48.0757 115.154 48.0757 115.737 47.7844C116.32 47.493 116.611 46.6189 116.611 45.7448C116.903 44.5793 116.32 43.9966 115.737 43.7052Z" fill="#228FE0"/>
<path d="M90.097 58.8565L86.0179 54.486V59.4392H76.4027L70.5754 52.7378L64.1653 59.4392H44.9351V39.0435H64.4567L70.5754 45.7449L73.4891 42.2485L66.2049 34.9644H40.5646V63.5184H66.2049L70.5754 59.1478L74.3632 63.5184H90.097V58.8565Z" fill="#2FABF7"/>
<path d="M59.7947 28.554L56.007 24.4748H54.2588V22.7266L49.8882 18.3561L46.9746 24.4748H42.8954L35.9026 8.44965V24.4748H25.9961L23.9566 20.1043H14.0501L12.0105 24.4748H6.7659L15.5069 4.07914H22.7911L30.9494 23.6007V4.07914H35.3199L31.2407 0H26.8702V3.4964L25.4134 0H12.5932L6.7659 13.6943L0.0644531 28.554H15.2155L16.9638 24.1835H21.0429L23.0825 28.554H39.399V25.0576L40.8559 28.554H49.3055L50.7623 25.0576V28.554H59.7947Z" fill="#2FABF7"/>
<path d="M46.392 15.1516L41.7302 10.4897L45.2266 18.0653L46.392 15.1516Z" fill="#2FABF7"/>
<path d="M178.964 62.0601C181.586 60.3119 183.335 57.3982 183.626 54.1932L179.547 50.1141C179.838 50.9882 180.13 51.8623 180.13 53.0277C180.13 54.7759 179.547 56.2328 178.381 57.3982C177.216 58.5637 175.176 59.4378 172.263 59.4378H162.939V55.0673H172.263C173.137 55.0673 173.719 55.0673 174.302 54.4846C174.594 54.1932 174.885 53.6105 174.885 53.0277C174.885 52.445 174.594 51.8623 174.302 51.5709C174.011 51.2795 173.428 50.9882 172.554 50.9882C167.892 50.6968 162.356 50.9882 162.356 44.5781C162.356 41.6644 164.104 39.0421 168.475 38.4594L165.27 35.2543C164.687 35.5457 164.396 35.8371 164.104 35.8371V34.0889H150.701C148.662 34.0889 146.04 34.6716 144.874 35.8371V34.0889H120.982V35.8371C119.234 34.3802 116.029 34.0889 114.572 34.0889H98.8381V35.8371C97.3812 34.3802 93.8848 34.0889 92.1366 34.0889H74.6546L70.5755 38.4594L66.7877 34.0889H63.5826L72.3237 42.8299L76.6942 38.168H92.1366C95.9244 38.168 100.295 39.3335 100.295 44.8695C100.295 50.6968 96.2158 51.8623 91.8453 51.8623H86.0179V56.2328L90.3884 60.6033V56.2328H91.8453C93.8848 56.2328 96.5071 56.2328 98.5467 55.3587V63.2256H111.658V55.65H112.241C113.115 55.65 113.115 55.65 113.115 56.5241V63.2256H152.741C155.363 63.2256 157.986 62.6429 159.442 61.4774V63.2256H171.971C174.302 63.517 176.924 63.2256 178.964 62.0601ZM120.982 51.5709C121.565 52.445 121.856 53.6105 121.856 55.3587V59.4378H116.903V56.8155C116.903 55.65 116.903 53.6105 116.029 52.7364C115.446 51.8623 114.281 51.8623 112.532 51.8623H107.288V59.4378H102.334V38.7507H113.406C115.737 38.7507 117.777 38.7507 119.234 39.6248C120.691 40.499 121.856 41.9558 121.856 44.2867C121.856 47.4918 119.817 49.24 118.36 49.8227C119.817 50.4054 120.691 50.9882 120.982 51.5709ZM141.086 43.1213H129.723V46.909H140.795V50.9882H129.723V55.0673H141.086V59.4378H124.77V38.7507H141.086V43.1213ZM153.324 59.4378H144V55.0673H153.324C154.198 55.0673 154.781 55.0673 155.363 54.4846C155.655 54.1932 155.946 53.6105 155.946 53.0277C155.946 52.445 155.655 51.8623 155.363 51.5709C155.072 51.2795 154.489 50.9882 153.615 50.9882C148.953 50.6968 143.417 50.9882 143.417 44.5781C143.417 41.6644 145.165 38.4594 150.41 38.4594H160.025V43.4126H150.993C150.119 43.4126 149.536 43.4126 148.953 43.704C148.37 43.9953 148.371 44.5781 148.371 45.1608C148.371 46.0349 148.953 46.3263 149.536 46.6177C150.119 46.909 150.701 46.909 151.284 46.909H153.906C156.529 46.909 158.277 47.4918 159.442 48.6572C160.317 49.5313 160.899 50.9882 160.899 53.0277C160.899 57.3982 158.277 59.4378 153.324 59.4378Z" fill="#228FE0"/>
<path d="M167.309 45.1613C167.309 46.0354 167.601 46.3268 168.475 46.6181C169.058 46.9095 169.64 46.9095 170.223 46.9095H172.845C174.594 46.9095 175.759 47.2009 176.925 47.7836L172.554 43.4131H169.932C169.058 43.4131 168.475 43.4131 167.892 43.7044C167.601 43.9958 167.309 44.5786 167.309 45.1613Z" fill="#228FE0"/>
<path d="M157.111 27.68L157.694 28.5541H157.985L157.111 27.68ZM141.086 11.6548L146.039 23.6008V16.608L141.086 11.6548Z" fill="#228FE0"/>
<path d="M91.2624 21.2704H91.8451C92.4278 21.2704 92.4278 21.2704 92.4278 22.1445V28.5546H113.406V26.8064C115.154 27.6805 117.777 28.5546 121.273 28.5546H130.014L131.762 23.8927H135.842L137.59 28.5546H154.489V25.6409L150.41 21.5618V24.7668H140.503L139.047 20.105H128.849L127.101 24.7668H121.565C119.234 24.7668 116.32 24.1841 114.572 22.4359C112.824 20.6877 111.949 18.3568 111.949 14.569C111.949 11.6553 112.532 8.74164 114.572 6.4107C116.029 4.6625 118.651 4.07976 121.856 4.07976H126.518V8.45027H121.856C120.108 8.45027 119.234 8.74164 118.068 9.61574C117.194 10.4898 116.611 12.238 116.611 14.2776C116.611 16.6086 116.903 18.0654 118.068 19.2309C118.942 20.105 120.108 20.3963 121.565 20.3963H123.604L130.306 4.37113H133.219L129.14 0.291992H121.565C118.36 0.291992 115.737 0.874722 113.406 2.04019V0.291992H100.586V2.04019C99.1293 0.874722 97.3811 0.291992 95.0501 0.291992H48.14L44.935 7.57617L41.7299 0.291992H28.9098L32.9889 4.37113H38.8163L43.7695 15.1517L45.5177 16.8999L50.7623 4.07976H58.9206V24.7668H53.9674V8.74164L49.0141 20.3963L57.4638 28.846H90.971L91.2624 21.2704ZM104.665 4.07976H109.618V24.7668H104.665V4.07976ZM79.025 8.45027H67.6616V12.238H78.7336V16.3172H67.6616V20.3963H79.025V24.7668H62.7084V4.07976H79.025V8.45027ZM87.1832 24.4755H82.23V3.7884H93.3019C95.9242 3.7884 97.6724 3.7884 99.1293 4.6625C100.586 5.5366 101.46 6.99343 101.46 9.32437C101.46 12.5294 99.4206 14.2776 97.9638 14.8604C99.1293 15.1517 100.003 16.0258 100.295 16.6086C100.877 17.774 101.169 18.6481 101.169 20.3963V24.4755H96.2156V21.8532C96.2156 20.6877 96.2156 18.9395 95.3415 17.774C95.0501 17.1913 94.176 17.1913 92.4278 17.1913H87.1832V24.4755Z" fill="#228FE0"/>
</svg>
