<svg width="39" height="48" viewBox="0 0 39 48" fill="none" xmlns="http://www.w3.org/2000/svg">
<path d="M31.8526 25.344C31.7998 19.4777 36.6573 16.6237 36.8794 16.4909C34.1284 12.4811 29.8645 11.9332 28.3661 11.8895C24.785 11.5128 21.3112 14.0319 19.4869 14.0319C17.6263 14.0319 14.817 11.9259 11.7893 11.9878C7.89318 12.0479 4.24829 14.3031 2.24924 17.805C-1.8763 24.9454 1.20056 35.4386 5.15314 41.2103C7.13034 44.0388 9.44071 47.1931 12.4648 47.082C15.4233 46.9619 16.5284 45.1982 20.0987 45.1982C23.6361 45.1982 24.6739 47.082 27.758 47.0111C30.9332 46.9619 32.9323 44.1716 34.8403 41.3195C37.1252 38.0814 38.0428 34.8889 38.0792 34.7251C38.0063 34.6996 31.9145 32.3734 31.8526 25.344ZM26.0266 8.09272C27.6178 6.1033 28.7066 3.39674 28.4044 0.650146C26.1013 0.752075 23.221 2.24277 21.5624 4.18851C20.095 5.90308 18.7842 8.71339 19.1228 11.3562C21.7099 11.5492 24.3662 10.0512 26.0266 8.09272Z" fill="white"/>
</svg>
