<svg width="56" height="80" viewBox="0 0 56 80" fill="none" xmlns="http://www.w3.org/2000/svg">
<path d="M29.0791 2.87724L31.3197 1.61943C31.9897 1.24306 32.7758 1.12929 33.5251 1.30025C34.2743 1.47122 34.9332 1.91469 35.3737 2.54445L36.8458 4.64972C37.15 5.08486 37.5611 5.43444 38.0394 5.66484C38.5177 5.89524 39.0473 5.99872 39.5772 5.96534L42.1407 5.80459C42.9078 5.75615 43.6654 5.9948 44.2661 6.47412C44.8669 6.95343 45.2679 7.63912 45.391 8.39775L45.8041 10.9331C45.8894 11.4573 46.1081 11.9507 46.4393 12.3658C46.7705 12.781 47.2029 13.1039 47.6951 13.3035L50.0753 14.2708C50.7873 14.5601 51.3661 15.1039 51.6995 15.7963C52.0328 16.4888 52.0967 17.2804 51.8788 18.0174L51.1512 20.4808C51.0006 20.99 50.9836 21.5294 51.1019 22.0471C51.2202 22.5647 51.4698 23.0432 51.8266 23.4364L53.5512 25.34C54.0672 25.9095 54.353 26.6506 54.353 27.4192C54.353 28.1877 54.0672 28.9288 53.5512 29.4984L51.8266 31.402C51.4705 31.7956 51.2214 32.2741 51.1031 32.7916C50.9848 33.3091 51.0014 33.8483 51.1512 34.3575L51.8788 36.821C52.0967 37.5579 52.0328 38.3496 51.6995 39.042C51.3661 39.7345 50.7873 40.2782 50.0753 40.5676L47.6951 41.5349C47.2031 41.7347 46.7708 42.0577 46.4396 42.4728C46.1085 42.8879 45.8897 43.3812 45.8041 43.9053L45.391 46.4406C45.267 47.1988 44.8658 47.8839 44.2652 48.3631C43.6647 48.8422 42.9075 49.0812 42.1407 49.0338L39.5772 48.873C39.0473 48.8399 38.5179 48.9435 38.0396 49.1739C37.5613 49.4043 37.1502 49.7537 36.8458 50.1886L35.3737 52.2939C34.9332 52.9237 34.2743 53.3671 33.5251 53.5381C32.7758 53.7091 31.9897 53.5953 31.3197 53.2189L29.0791 51.9611C28.6161 51.7011 28.0941 51.5645 27.5632 51.5645C27.0323 51.5645 26.5103 51.7011 26.0474 51.9611L23.8067 53.2189C23.1367 53.5953 22.3506 53.7091 21.6013 53.5381C20.8521 53.3671 20.1932 52.9237 19.7527 52.2939L18.2806 50.1886C17.9764 49.7535 17.5653 49.4039 17.087 49.1735C16.6087 48.9431 16.0791 48.8396 15.5492 48.873L12.9857 49.0338C12.2186 49.0822 11.461 48.8436 10.8603 48.3642C10.2595 47.8849 9.85853 47.1992 9.73541 46.4406L9.32225 43.9053C9.23701 43.3811 9.01827 42.8877 8.6871 42.4725C8.35592 42.0574 7.92345 41.7345 7.43132 41.5349L5.05108 40.5676C4.33915 40.2782 3.76026 39.7345 3.42694 39.042C3.09362 38.3496 3.02969 37.5579 3.24758 36.821L3.97236 34.3604C4.12301 33.8512 4.14 33.3118 4.0217 32.7941C3.9034 32.2765 3.6538 31.798 3.29693 31.4048L1.57239 29.5012C1.05634 28.9316 0.770538 28.1906 0.770538 27.422C0.770538 26.6534 1.05634 25.9124 1.57239 25.3428L3.29693 23.4392C3.65309 23.0456 3.90223 22.5671 4.02049 22.0496C4.13875 21.5321 4.12218 20.9929 3.97236 20.4836L3.24476 18.0202C3.02687 17.2833 3.0908 16.4916 3.42412 15.7992C3.75744 15.1067 4.33634 14.563 5.04827 14.2736L7.4285 13.3063C7.92048 13.1065 8.35281 12.7835 8.68395 12.3684C9.0151 11.9533 9.23393 11.46 9.31943 10.9359L9.73259 8.40057C9.8566 7.64236 10.2578 6.95724 10.8584 6.47809C11.4589 5.99895 12.216 5.75993 12.9829 5.80741L15.5464 5.96816C16.0762 6.00127 16.6057 5.89766 17.084 5.66729C17.5623 5.43691 17.9734 5.08749 18.2777 4.65254L19.7499 2.54728C20.1904 1.91751 20.8493 1.47404 21.5985 1.30308C22.3478 1.13211 23.1339 1.24588 23.8039 1.62225L26.0445 2.88006C26.9893 3.40602 28.1371 3.40602 29.0791 2.87724Z" fill="#F8B545"/>
<path d="M25.9134 51.9812L23.6727 53.239C23.0027 53.6154 22.2166 53.7291 21.4674 53.5582C20.7181 53.3872 20.0592 52.9437 19.6187 52.314L18.1466 50.2087C17.8424 49.7736 17.4314 49.424 16.953 49.1936C16.4747 48.9632 15.9451 48.8597 15.4153 48.8931L12.8517 49.0538C12.3035 49.0866 11.7564 48.9727 11.2668 48.7239L4.27975 74.8007L12.8658 72.7222L19.262 78.8152L26.5169 51.7387C26.3077 51.7978 26.1053 51.8791 25.9134 51.9812ZM43.7271 48.7239C43.2505 48.965 42.709 49.0905 42.1421 49.0538L39.5786 48.8931C39.0487 48.8597 38.5191 48.9632 38.0408 49.1936C37.5625 49.424 37.1514 49.7736 36.8472 50.2087L36.1281 51.2352L35.3737 52.314C34.9332 52.9437 34.2743 53.3872 33.525 53.5582C32.7758 53.7291 31.9897 53.6154 31.3197 53.239L29.079 51.9812C28.8875 51.8793 28.6856 51.798 28.4769 51.7387L35.7319 78.8152L42.128 72.7222L50.7141 74.8007L43.7271 48.7239Z" fill="#2C3E50"/>
<path d="M27.5631 43.6377C36.519 43.6377 43.7792 36.3775 43.7792 27.4216C43.7792 18.4657 36.519 11.2056 27.5631 11.2056C18.6073 11.2056 11.3471 18.4657 11.3471 27.4216C11.3471 36.3775 18.6073 43.6377 27.5631 43.6377Z" fill="#E74C3C"/>
<path d="M13.9656 69.4409C13.8568 69.4415 13.7494 69.4168 13.6518 69.3688C13.5542 69.3207 13.4691 69.2507 13.4032 69.1641C13.3373 69.0776 13.2924 68.9769 13.272 68.87C13.2517 68.7632 13.2565 68.653 13.286 68.5483L18.1846 50.839C18.2342 50.6589 18.3532 50.5059 18.5156 50.4136C18.678 50.3213 18.8703 50.2973 19.0504 50.3469C19.2305 50.3964 19.3835 50.5155 19.4758 50.6778C19.5681 50.8402 19.5921 51.0326 19.5425 51.2127L14.6439 68.922C14.6038 69.0711 14.5156 69.2029 14.3929 69.2967C14.2703 69.3905 14.12 69.4412 13.9656 69.4409ZM27.5631 44.3427C18.2326 44.3427 10.642 36.7522 10.642 27.4216C10.642 18.091 18.2326 10.5005 27.5631 10.5005C36.8937 10.5005 44.4842 18.091 44.4842 27.4216C44.4842 36.7522 36.8937 44.3427 27.5631 44.3427ZM27.5631 11.9106C19.0109 11.9106 12.0521 18.8694 12.0521 27.4216C12.0521 35.9738 19.0109 42.9326 27.5631 42.9326C36.1153 42.9326 43.0741 35.9738 43.0741 27.4216C43.0741 18.8694 36.1153 11.9106 27.5631 11.9106Z" fill="#212E3A"/>
<path d="M22.2866 54.3287C21.6753 54.3289 21.0731 54.1812 20.5314 53.898C19.9897 53.6149 19.5246 53.2048 19.1759 52.7029L17.7024 50.5962C17.4646 50.2631 17.1466 49.9954 16.7779 49.8179C16.4091 49.6404 16.0015 49.5589 15.5929 49.5809L13.0293 49.7417C12.0864 49.8067 11.1533 49.5157 10.4145 48.9262C9.67564 48.3367 9.18475 47.4916 9.03875 46.5577L8.62559 44.0224C8.55788 43.618 8.3882 43.2377 8.13259 42.9171C7.87698 42.5966 7.54387 42.3466 7.16473 42.1907L4.7845 41.2233C3.90909 40.8698 3.19703 40.2025 2.7876 39.3518C2.37816 38.5011 2.30081 37.5283 2.57066 36.6236L3.29967 34.1602C3.41411 33.7667 3.42625 33.3505 3.33495 32.951C3.24366 32.5515 3.05194 32.1819 2.77794 31.8772L1.0534 29.9722C0.417365 29.2741 0.0647141 28.3639 0.0644533 27.4195C0.0641925 26.4751 0.416342 25.5647 1.05199 24.8663L2.77935 22.9626C3.05299 22.6577 3.24437 22.2881 3.33542 21.8886C3.42646 21.4892 3.41416 21.0731 3.29967 20.6797L2.57066 18.2149C2.30054 17.3104 2.37779 16.3376 2.78727 15.4871C3.19676 14.6365 3.90899 13.9695 4.7845 13.6165L7.16473 12.6478C7.93182 12.3348 8.49022 11.634 8.62559 10.8161L9.03875 8.28076C9.18567 7.34746 9.67687 6.50304 10.4155 5.91395C11.1542 5.32485 12.0867 5.03381 13.0293 5.09818L15.5929 5.25893C16.0021 5.28194 16.4106 5.20058 16.7798 5.0225C17.149 4.84442 17.467 4.57546 17.7038 4.24085L19.1745 2.1384C19.7132 1.36263 20.5223 0.816059 21.4431 0.605815C22.3639 0.39557 23.33 0.536816 24.1521 1.00187L26.3927 2.25826C26.7504 2.45816 27.1532 2.56323 27.5629 2.56348C27.9727 2.56372 28.3756 2.45914 28.7335 2.25967V2.25826L30.9741 1.00046C31.7966 0.536517 32.7625 0.396037 33.6831 0.606484C34.6036 0.816931 35.4126 1.36317 35.9518 2.1384L37.4239 4.24085C37.8991 4.92051 38.7169 5.30406 39.5334 5.25893L42.0969 5.09818C43.0384 5.03901 43.9683 5.33198 44.7058 5.92016C45.4433 6.50834 45.9358 7.34972 46.0875 8.28076L46.5007 10.8175C46.5688 11.2215 46.7387 11.6015 46.9943 11.9217C47.2499 12.2419 47.5827 12.4918 47.9615 12.6478L50.3417 13.6165C51.2175 13.9692 51.9299 14.6362 52.3394 15.4869C52.7489 16.3375 52.826 17.3104 52.5556 18.2149L51.8266 20.6797C51.7122 21.0734 51.7 21.4898 51.7913 21.8895C51.8826 22.2892 52.0743 22.659 52.3483 22.964L54.0728 24.8663C54.7089 25.5643 55.0615 26.4746 55.0618 27.419C55.062 28.3633 54.7099 29.2738 54.0743 29.9722L52.3469 31.8772C52.0731 32.1821 51.8817 32.5517 51.7906 32.9512C51.6996 33.3507 51.712 33.7668 51.8266 34.1602L52.5556 36.6236C52.8251 37.5283 52.7476 38.501 52.3382 39.3516C51.9288 40.2022 51.217 40.8696 50.3417 41.2233L47.9615 42.1907C47.5822 42.3467 47.249 42.597 46.9933 42.9178C46.7377 43.2385 46.5681 43.6192 46.5007 44.0238L46.0875 46.5577C45.9433 47.4924 45.4529 48.3387 44.7137 48.9286C43.9744 49.5184 43.0403 49.8087 42.0969 49.7417L39.5334 49.5809C39.1246 49.5602 38.7171 49.6423 38.3482 49.82C37.9794 49.9976 37.6611 50.265 37.4225 50.5976L35.9518 52.7015C35.413 53.4772 34.6039 54.0238 33.6831 54.2341C32.7623 54.4443 31.7962 54.3031 30.9741 53.838L28.7335 52.5816C28.3759 52.3817 27.973 52.2766 27.5633 52.2764C27.1536 52.2761 26.7506 52.3807 26.3927 52.5802L24.1521 53.838C23.5825 54.1584 22.9401 54.3274 22.2866 54.3287ZM15.7367 48.1666C16.9677 48.1666 18.1465 48.7744 18.8572 49.7868L20.3308 51.8935C20.67 52.3808 21.1788 52.7242 21.7577 52.8564C22.3366 52.9886 22.944 52.9002 23.4612 52.6084L25.7018 51.3506C26.271 51.033 26.912 50.8663 27.5638 50.8663C28.2157 50.8663 28.8566 51.033 29.4259 51.3506L31.6665 52.6084C32.7382 53.2091 34.089 52.9073 34.7983 51.8921L36.269 49.7882C36.6436 49.2548 37.1486 48.8262 37.7358 48.5433C38.3231 48.2604 38.973 48.1327 39.6236 48.1723L42.1872 48.333C43.4041 48.388 44.4997 47.5476 44.6986 46.3307L45.1117 43.7953C45.2185 43.1526 45.4878 42.5479 45.894 42.0385C46.3002 41.5291 46.8299 41.132 47.4327 40.8849L49.813 39.9176C50.364 39.6952 50.8122 39.2752 51.0698 38.7397C51.3275 38.2043 51.3761 37.592 51.2061 37.0227L50.4771 34.5592C50.2946 33.9338 50.2748 33.2722 50.4197 32.637C50.5646 32.0018 50.8692 31.4141 51.3048 30.9297L53.0322 29.0246C53.4324 28.5857 53.6542 28.013 53.6539 27.419C53.6536 26.8249 53.4314 26.2525 53.0308 25.8138L51.3063 23.9102C50.8706 23.4258 50.5658 22.8382 50.4208 22.203C50.2757 21.5679 50.2951 20.9062 50.4771 20.2806L51.2061 17.8158C51.376 17.2466 51.3274 16.6345 51.0697 16.0993C50.812 15.5642 50.3639 15.1444 49.813 14.9223L47.4313 13.9564C46.8291 13.7087 46.3 13.3116 45.8939 12.8026C45.4878 12.2936 45.2181 11.6895 45.1103 11.0474L44.6972 8.50919C44.5988 7.92479 44.288 7.39731 43.8245 7.02802C43.361 6.65872 42.7774 6.47363 42.1858 6.50827L39.6222 6.66902C38.9719 6.70811 38.3223 6.58014 37.7354 6.29729C37.1485 6.01444 36.6437 5.58611 36.269 5.05306L34.7955 2.9492C34.4569 2.46111 33.9481 2.11708 33.3691 1.98457C32.79 1.85206 32.1823 1.94061 31.6651 2.23288L29.4244 3.4935C28.8547 3.8096 28.2138 3.97535 27.5622 3.9751C26.9107 3.97486 26.2699 3.80863 25.7004 3.49209L23.4598 2.2357C22.9433 1.94153 22.3353 1.85162 21.7558 1.9837C21.1763 2.11579 20.6673 2.46028 20.3294 2.9492L18.8572 5.05447C18.4852 5.59052 17.9806 6.0211 17.3927 6.30429C16.8049 6.58747 16.1537 6.71362 15.5026 6.67043L12.9405 6.50968C12.3493 6.47724 11.7669 6.66315 11.3039 7.03206C10.8408 7.40097 10.5295 7.92717 10.4291 8.5106L10.0159 11.0474C9.90905 11.6899 9.6397 12.2944 9.23348 12.8035C8.82726 13.3126 8.29765 13.7095 7.69493 13.9564L5.31469 14.9251C4.76359 15.147 4.31523 15.5667 4.05751 16.1019C3.79978 16.6372 3.75129 17.2494 3.92152 17.8186L4.65054 20.2835C4.83266 20.9087 4.85222 21.57 4.70738 22.2049C4.56253 22.8398 4.25807 23.4273 3.82282 23.9116L2.09545 25.8167C1.69524 26.2556 1.4735 26.8283 1.47376 27.4223C1.47402 28.0163 1.69626 28.5888 2.09686 29.0274L3.82141 30.9325C4.70553 31.9083 5.02422 33.3 4.65054 34.562L3.92152 37.0255C3.57182 38.21 4.17111 39.4551 5.31469 39.9204L7.69493 40.8877C8.29698 41.1356 8.82598 41.5328 9.23205 42.0417C9.63812 42.5507 9.9079 43.1547 10.0159 43.7967L10.4291 46.3335C10.6293 47.5504 11.7165 48.388 12.9405 48.3358L15.504 48.1751C15.5816 48.168 15.6605 48.1666 15.7367 48.1666Z" fill="#212E3A"/>
<path d="M19.2591 79.5205C19.0779 79.5208 18.9036 79.4511 18.7726 79.3259L12.6542 73.4966L4.44326 75.4862C4.32427 75.5146 4.19995 75.5117 4.08243 75.4777C3.96491 75.4437 3.8582 75.3799 3.7727 75.2924C3.6872 75.2049 3.62583 75.0968 3.59458 74.9785C3.56333 74.8602 3.56326 74.7359 3.59438 74.6176L10.5814 48.5407C10.6087 48.4397 10.6581 48.346 10.7262 48.2664C10.7942 48.1868 10.8791 48.1234 10.9747 48.0807C11.0703 48.0381 11.1742 48.0172 11.2788 48.0197C11.3835 48.0222 11.4863 48.048 11.5797 48.0952C11.9661 48.2898 12.3891 48.3786 12.8037 48.3518L15.3672 48.191C16.018 48.1506 16.6682 48.278 17.2556 48.5609C17.843 48.8439 18.3478 49.273 18.7218 49.807L20.194 51.9109C20.5327 52.3997 21.042 52.7442 21.6218 52.8764C22.2017 53.0087 22.81 52.9193 23.3272 52.6258L25.5664 51.368V51.3666C25.8231 51.2227 26.0797 51.1367 26.3011 51.0676C26.4216 51.0294 26.5502 51.0244 26.6734 51.0529C26.7966 51.0815 26.9098 51.1427 27.0012 51.2301C27.0926 51.3175 27.1588 51.4278 27.193 51.5496C27.2271 51.6713 27.2278 51.8 27.1951 51.9221L19.9388 78.9987C19.8976 79.1478 19.809 79.2794 19.6864 79.3735C19.5637 79.4677 19.4137 79.5193 19.2591 79.5205ZM12.8629 72.0174C13.042 72.0174 13.2168 72.0865 13.3494 72.212L18.8868 77.4857L25.4325 53.0615L24.0196 53.8554C23.1976 54.3208 22.2313 54.4622 21.3105 54.2519C20.3896 54.0417 19.5805 53.4949 19.0419 52.7189L17.5698 50.615C17.3319 50.282 17.0139 50.0143 16.6452 49.8366C16.2765 49.6589 15.869 49.577 15.4603 49.5983L12.8953 49.7591C12.5099 49.7848 12.1229 49.7487 11.7489 49.6519L5.26816 73.8364L12.6993 72.0371C12.7529 72.0241 12.8078 72.0175 12.8629 72.0174ZM41.0267 69.4411C40.8725 69.4413 40.7225 69.3907 40.6 69.2972C40.4774 69.2037 40.389 69.0724 40.3484 68.9236L35.4935 51.375C35.4686 51.2859 35.4616 51.1927 35.4728 51.1008C35.4841 51.0089 35.5133 50.9202 35.5589 50.8396C35.6045 50.7591 35.6655 50.6883 35.7385 50.6313C35.8115 50.5744 35.895 50.5324 35.9842 50.5078C36.0734 50.4824 36.1667 50.4749 36.2588 50.4859C36.3508 50.4969 36.4398 50.526 36.5205 50.5717C36.6012 50.6174 36.672 50.6786 36.7288 50.7519C36.7856 50.8252 36.8273 50.909 36.8514 50.9985L41.7063 68.5499C41.7356 68.6546 41.7401 68.7645 41.7197 68.8712C41.6992 68.9779 41.6543 69.0784 41.5884 69.1648C41.5225 69.2511 41.4375 69.321 41.34 69.369C41.2426 69.417 41.1353 69.4416 41.0267 69.4411Z" fill="#212E3A"/>
<path d="M35.7318 79.5199C35.5765 79.5192 35.4257 79.4677 35.3024 79.3732C35.1792 79.2787 35.0903 79.1465 35.0493 78.9967L27.7944 51.9201C27.7616 51.798 27.7624 51.6693 27.7965 51.5475C27.8306 51.4258 27.8968 51.3154 27.9882 51.2281C28.0796 51.1407 28.1929 51.0795 28.316 51.0509C28.4392 51.0223 28.5678 51.0274 28.6884 51.0656C28.9097 51.1347 29.1678 51.2207 29.423 51.3645V51.366L31.6636 52.6252C32.7353 53.2273 34.0834 52.9241 34.7955 51.9088L36.2676 49.8036C36.6419 49.2699 37.1468 48.8412 37.7342 48.5585C38.3215 48.2758 38.9716 48.1486 39.6222 48.189L42.1843 48.3498C42.6017 48.3737 43.0219 48.2863 43.4083 48.0931C43.5018 48.0465 43.6045 48.0211 43.709 48.0189C43.8135 48.0167 43.9172 48.0376 44.0127 48.0802C44.1081 48.1228 44.193 48.186 44.2611 48.2653C44.3292 48.3446 44.3789 48.438 44.4066 48.5387L51.3937 74.6156C51.4256 74.734 51.4262 74.8586 51.3953 74.9773C51.3643 75.096 51.303 75.2046 51.2173 75.2923C51.1315 75.38 51.0244 75.4438 50.9065 75.4775C50.7885 75.5111 50.6639 75.5134 50.5448 75.4842L42.3338 73.4945L36.2154 79.3239C36.0863 79.4503 35.9125 79.5207 35.7318 79.5199ZM29.5612 53.0595L36.1054 77.4837L41.6429 72.2099C41.7289 72.1293 41.8335 72.0712 41.9474 72.0407C42.0613 72.0102 42.1809 72.0082 42.2957 72.0351L49.7269 73.8344L43.2461 49.6499C42.8722 49.7466 42.4851 49.7827 42.0997 49.757L39.5362 49.5963C39.1269 49.5721 38.7182 49.6527 38.3488 49.8306C37.9794 50.0086 37.6615 50.2778 37.4253 50.613L35.9546 52.7168C35.4154 53.4921 34.6063 54.0382 33.6857 54.2484C32.7651 54.4586 31.7992 54.3178 30.9769 53.8534L29.5612 53.0595ZM25.448 32.9459C25.2609 32.946 25.0814 32.8719 24.9488 32.7401L19.3084 27.0997C19.18 26.9667 19.1089 26.7886 19.1105 26.6038C19.1121 26.4189 19.1863 26.2421 19.317 26.1113C19.4477 25.9806 19.6246 25.9065 19.8094 25.9049C19.9943 25.9033 20.1724 25.9743 20.3054 26.1028L25.448 31.2439L34.8194 21.8725C34.9524 21.744 35.1305 21.673 35.3154 21.6746C35.5002 21.6762 35.6771 21.7503 35.8078 21.8811C35.9385 22.0118 36.0126 22.1886 36.0143 22.3735C36.0159 22.5583 35.9448 22.7364 35.8164 22.8694L25.9457 32.7401C25.8804 32.8054 25.8028 32.8573 25.7174 32.8926C25.6319 32.9279 25.5404 32.9461 25.448 32.9459Z" fill="#212E3A"/>
</svg>
