<svg width="110" height="101" viewBox="0 0 110 101" fill="none" xmlns="http://www.w3.org/2000/svg">
<path d="M96.4436 0.999932L1.06445 21.6565L13.6853 79.9316L109.064 59.2751L96.4436 0.999932Z" fill="#327DFF" stroke="#0C1F40" stroke-linecap="round" stroke-linejoin="round"/>
<path d="M98.6211 13.4438L2.28162 34.3083L4.57889 44.9157L100.918 24.0512L98.6211 13.4438Z" fill="#0C1F40"/>
<path d="M101.816 39.9761H4.22516V99.6022H101.816V39.9761Z" fill="white" stroke="#0C1F40" stroke-linecap="round" stroke-linejoin="round"/>
<path d="M26.3784 63.8762H16.8204C14.3537 63.8762 12.354 65.8759 12.354 68.3426V73.4343C12.354 75.901 14.3537 77.9006 16.8204 77.9006H26.3784C28.8451 77.9006 30.8448 75.901 30.8448 73.4343V68.3426C30.8448 65.8759 28.8451 63.8762 26.3784 63.8762Z" fill="#0C1F40"/>
<path d="M15.0786 88.7515H25.9319" stroke="#0C1F40" stroke-linecap="round" stroke-linejoin="round"/>
<path d="M36.7404 88.7515H47.5937" stroke="#0C1F40" stroke-linecap="round" stroke-linejoin="round"/>
<path d="M42.1895 50.8335H90.9623" stroke="#0C1F40" stroke-linecap="round" stroke-linejoin="round"/>
<path d="M58.4471 88.7515H69.3004" stroke="#0C1F40" stroke-linecap="round" stroke-linejoin="round"/>
<path d="M80.1533 88.7515H90.962" stroke="#0C1F40" stroke-linecap="round" stroke-linejoin="round"/>
</svg>
