<svg width="59" height="42" viewBox="0 0 59 42" fill="none" xmlns="http://www.w3.org/2000/svg">
<path d="M29.5 0C24.6854 0.00303173 19.9447 1.18747 15.691 3.45008C11.4374 5.71268 7.79991 8.98475 5.09578 12.9811C2.39164 16.9774 0.702906 21.5766 0.176784 26.3778C-0.349338 31.179 0.303125 36.0364 2.07729 40.5266L2.44628 41.4595H56.5537L56.9227 40.5266C58.6969 36.0364 59.3493 31.179 58.8232 26.3778C58.2971 21.5766 56.6084 16.9774 53.9042 12.9811C51.2001 8.98475 47.5626 5.71268 43.309 3.45008C39.0553 1.18747 34.3146 0.00303173 29.5 0ZM44.2593 21.6626L34.8724 33.4193C36.1624 34.7936 36.8804 36.6103 36.8796 38.4981H33.9278C33.9278 37.32 33.4613 36.1901 32.6309 35.3571C31.8005 34.524 30.6743 34.056 29.5 34.056C28.3257 34.056 27.1995 34.524 26.3691 35.3571C25.5387 36.1901 25.0722 37.32 25.0722 38.4981H22.1204C22.121 37.2691 22.4266 36.0596 23.0095 34.9787C23.5925 33.8978 24.4345 32.9795 25.4596 32.3067C26.4847 31.6338 27.6606 31.2275 28.8813 31.1245C30.102 31.0215 31.3291 31.2249 32.4519 31.7165L41.8978 19.8709C42.015 19.7154 42.1617 19.5845 42.3294 19.4858C42.497 19.3871 42.6825 19.3225 42.875 19.2957C43.0676 19.2689 43.2635 19.2804 43.4516 19.3296C43.6398 19.3787 43.8164 19.4646 43.9715 19.5822C44.1265 19.6998 44.257 19.847 44.3553 20.0152C44.4537 20.1834 44.5181 20.3694 44.5448 20.5626C44.5716 20.7558 44.5601 20.9523 44.5111 21.1411C44.4621 21.3298 44.3765 21.507 44.2593 21.6626ZM51.6389 31.0946C51.2474 31.0946 50.872 30.9386 50.5952 30.6609C50.3185 30.3832 50.163 30.0066 50.163 29.6139C50.162 24.8522 48.5271 20.236 45.5329 16.5412C42.5388 12.8465 38.3681 10.2985 33.7218 9.32559C29.0756 8.35268 24.2371 9.01417 20.0198 11.1989C15.8024 13.3836 12.4634 16.9582 10.5639 21.322C9.4164 23.9344 8.82811 26.7592 8.83704 29.6139C8.83704 30.0066 8.68154 30.3832 8.40475 30.6609C8.12796 30.9386 7.75255 31.0946 7.36111 31.0946C6.96967 31.0946 6.59426 30.9386 6.31747 30.6609C6.04068 30.3832 5.88518 30.0066 5.88518 29.6139C5.87856 26.3513 6.55223 23.1234 7.86292 20.1375C10.0353 15.1529 13.8515 11.0702 18.6703 8.57529C23.4892 6.08042 29.0171 5.32538 34.3254 6.43702C39.6337 7.54866 44.3989 10.4592 47.8205 14.6798C51.2421 18.9003 53.1115 24.1737 53.1148 29.6139C53.1148 30.0066 52.9593 30.3832 52.6825 30.6609C52.4057 30.9386 52.0303 31.0946 51.6389 31.0946Z" fill="#1D6167"/>
</svg>
