<svg width="87" height="80" viewBox="0 0 87 80" fill="none" xmlns="http://www.w3.org/2000/svg">
<path d="M39.2256 1.53906C18.1508 1.53906 1.00134 18.6885 1.00134 39.7633C1.00134 60.8381 18.1508 77.9875 39.2256 77.9875C60.3004 77.9875 77.4498 60.8381 77.4498 39.7633C77.4498 18.6885 60.3004 1.53906 39.2256 1.53906Z" fill="#F0CAAF"/>
<path d="M55.5176 62.7961C55.3964 62.7963 55.2767 62.7683 55.1682 62.7142C55.0597 62.6602 54.9653 62.5816 54.8924 62.4847C54.8196 62.3877 54.7704 62.2752 54.7486 62.1559C54.7269 62.0366 54.7332 61.9139 54.7672 61.7976C56.2555 56.6719 57.0113 51.3616 57.0122 46.0242C57.0122 42.6542 56.7096 39.2609 56.112 35.9361C55.5792 32.9203 54.2793 30.0923 52.3374 27.7242C50.3955 25.356 47.8769 23.5274 45.0239 22.4141C44.8313 22.3382 44.6767 22.1889 44.5942 21.999C44.5117 21.8091 44.508 21.5942 44.5839 21.4016C44.6598 21.209 44.8092 21.0544 44.9991 20.9719C45.189 20.8894 45.4039 20.8857 45.5965 20.9616C48.6972 22.172 51.4345 24.1596 53.5451 26.7334C55.6558 29.3073 57.069 32.3807 57.6488 35.6584C59.246 44.5044 58.7734 53.6 56.268 62.2328C56.2208 62.3953 56.122 62.538 55.9867 62.6396C55.8514 62.7411 55.6868 62.7961 55.5176 62.7961ZM9.64699 64.9616C9.48806 64.9618 9.33287 64.9134 9.20218 64.8229C9.0715 64.7325 8.97155 64.6043 8.91573 64.4555C8.85991 64.3067 8.85087 64.1444 8.88982 63.9903C8.92877 63.8362 9.01386 63.6977 9.1337 63.5933C9.78429 63.0254 10.3865 62.5558 10.9747 62.1564C16.3557 58.4884 19.5681 52.4584 19.5681 46.0242C19.5681 45.8173 19.6503 45.6189 19.7966 45.4726C19.9429 45.3263 20.1413 45.2441 20.3482 45.2441C20.5551 45.2441 20.7535 45.3263 20.8998 45.4726C21.0461 45.6189 21.1283 45.8173 21.1283 46.0242C21.1283 52.9748 17.66 59.4885 11.8531 63.4451C11.2625 63.852 10.6972 64.2943 10.1603 64.7697C10.0183 64.894 9.83575 64.9622 9.64699 64.9616Z" fill="#024665" stroke="#E2B698" stroke-width="2" stroke-miterlimit="10"/>
<path d="M40.3961 78.7548C40.2496 78.7548 40.106 78.7134 39.9819 78.6356C39.8578 78.5577 39.7582 78.4465 39.6944 78.3146C39.6305 78.1827 39.6051 78.0355 39.6211 77.8899C39.637 77.7443 39.6937 77.6061 39.7845 77.4911C46.8779 68.5351 50.7472 57.4504 50.7681 46.0256C50.7681 45.0193 50.7369 44.0114 50.6776 43.0035C50.6715 42.9013 50.6856 42.7988 50.7192 42.702C50.7528 42.6052 50.8051 42.5159 50.8732 42.4394C50.9414 42.3629 51.0239 42.3006 51.1162 42.256C51.2084 42.2114 51.3086 42.1855 51.4109 42.1798C51.8399 42.133 52.2097 42.4824 52.2347 42.913C52.2971 43.9506 52.3283 44.9896 52.3283 46.0256C52.3073 57.8024 48.3186 69.2285 41.0061 78.46C40.9335 78.5523 40.8409 78.6268 40.7352 78.6779C40.6294 78.729 40.5135 78.7553 40.3961 78.7548ZM14.0214 69.425C13.86 69.4261 13.7022 69.3769 13.57 69.2844C13.4377 69.1919 13.3375 69.0605 13.2832 68.9085C13.2289 68.7565 13.2231 68.5914 13.2668 68.436C13.3104 68.2806 13.4013 68.1426 13.5268 68.0412C13.8341 67.79 14.1509 67.545 14.4863 67.3141C16.539 65.9177 18.3815 64.2349 19.9578 62.3169C20.0892 62.157 20.2787 62.0558 20.4847 62.0356C20.6907 62.0154 20.8963 62.0779 21.0562 62.2092C21.2161 62.3406 21.3173 62.5301 21.3375 62.7361C21.3577 62.9421 21.2952 63.1477 21.1638 63.3076C19.494 65.3408 17.5416 67.1245 15.3662 68.6044C15.0714 68.8072 14.789 69.0256 14.5175 69.2487C14.3769 69.362 14.2019 69.4241 14.0214 69.425ZM44.5586 55.0012C44.444 55.0016 44.3307 54.9766 44.2268 54.9281C44.1229 54.8797 44.0309 54.8089 43.9575 54.7209C43.884 54.6328 43.8309 54.5297 43.8019 54.4188C43.7728 54.3079 43.7686 54.1919 43.7894 54.0792C44.7602 48.8143 44.7718 43.4173 43.8238 38.1483C43.565 36.7242 42.7525 35.4608 41.564 34.6347C40.3756 33.8086 38.9082 33.4871 37.4832 33.7408C36.7769 33.8658 36.1024 34.1297 35.4987 34.5173C34.8951 34.9048 34.3743 35.4082 33.9666 35.9984C33.5555 36.5862 33.2652 37.2498 33.1125 37.9507C32.9599 38.6516 32.9479 39.3758 33.0773 40.0813C33.603 43.0092 33.7378 45.9938 33.4783 48.9571C33.4577 49.1622 33.3577 49.3511 33.1997 49.4835C33.0417 49.6158 32.8382 49.6812 32.6327 49.6655C32.5305 49.6566 32.4311 49.6277 32.3401 49.5804C32.2491 49.5331 32.1683 49.4684 32.1024 49.3898C32.0365 49.3113 31.9867 49.2205 31.9558 49.1227C31.925 49.0249 31.9138 48.922 31.9228 48.8198C32.1694 45.9946 32.0409 43.149 31.5405 40.3575C31.2082 38.5118 31.6139 36.649 32.6841 35.1075C33.7544 33.5661 35.3598 32.5363 37.2055 32.204C39.0378 31.8772 40.9249 32.2901 42.4533 33.3523C43.9817 34.4145 45.0266 36.0393 45.359 37.8706C46.3401 43.3254 46.328 48.9126 45.3231 54.3631C45.2909 54.5423 45.1966 54.7045 45.0568 54.8211C44.917 54.9378 44.7407 55.0016 44.5586 55.0012Z" fill="#024665" stroke="#E2B698" stroke-width="2" stroke-miterlimit="10"/>
<path d="M13.7648 49.8684C13.6476 49.8685 13.5319 49.8422 13.4262 49.7914C13.3206 49.7406 13.2277 49.6667 13.1546 49.5751C13.0814 49.4835 13.0298 49.3766 13.0037 49.2623C12.9775 49.1481 12.9775 49.0294 13.0035 48.9151C13.3918 47.1955 13.43 45.4154 13.1158 43.6807C10.6008 29.7094 19.9213 16.2981 33.8911 13.7831C47.864 11.2713 61.2721 20.5949 63.7886 34.5568C64.4689 38.3293 64.8121 42.1892 64.8121 46.0288C64.8121 46.5639 63.2207 48.0227 63.2316 47.5936C63.3367 43.3184 63.0084 39.0436 62.2519 34.8345C59.8898 21.7166 47.2898 12.9594 34.1672 15.3184C21.0446 17.682 12.2905 30.2804 14.6526 43.403C15.0012 45.3437 14.9582 47.3345 14.5262 49.2583C14.4876 49.4314 14.3911 49.5862 14.2527 49.6971C14.1143 49.8079 13.9422 49.8684 13.7648 49.8684Z" fill="#024665" stroke="#E2B698" stroke-width="2" stroke-miterlimit="10"/>
<path d="M18.5596 15.8487C18.3989 15.8491 18.2421 15.7998 18.1106 15.7076C17.979 15.6155 17.8791 15.485 17.8244 15.3339C17.7698 15.1829 17.7632 15.0186 17.8054 14.8636C17.8476 14.7087 17.9366 14.5705 18.0603 14.468C22.2911 10.9495 27.3665 8.59519 32.7852 7.63756C37.1102 6.86512 41.5477 6.98902 45.8229 8.00158C50.098 9.01415 54.1197 10.8938 57.6387 13.5241C57.7963 13.6508 57.8985 13.8338 57.9238 14.0344C57.9491 14.235 57.8955 14.4376 57.7743 14.5995C57.6531 14.7614 57.4738 14.8699 57.2741 14.9021C57.0745 14.9343 56.8702 14.8877 56.7042 14.7722C53.3566 12.2707 49.531 10.4829 45.4645 9.51978C41.3979 8.55661 37.177 8.4385 33.0629 9.17277C27.9093 10.0838 23.082 12.3224 19.0573 15.6678C18.918 15.7851 18.7417 15.8492 18.5596 15.8487Z" fill="#024665" stroke="#E2B698" stroke-width="2" stroke-miterlimit="10"/>
<path d="M74.1716 41.269C67.7203 41.269 62.4703 46.519 62.4703 52.9703C62.4703 59.4216 67.7203 64.6716 74.1716 64.6716C80.6229 64.6716 85.8729 59.4216 85.8729 52.9703C85.8729 46.519 80.6229 41.269 74.1716 41.269Z" fill="#92CA62"/>
<path d="M67.1509 52.9703C67.1509 47.321 71.1777 42.5921 76.5119 41.5046C75.7417 41.3476 74.9577 41.2687 74.1716 41.269C67.7203 41.269 62.4703 46.519 62.4703 52.9703C62.4703 59.4216 67.7203 64.6716 74.1716 64.6716C74.9577 64.672 75.7417 64.5931 76.5119 64.436C71.1777 63.3486 67.1509 58.6197 67.1509 52.9703Z" fill="#71BC58"/>
<path d="M75.6984 41.3648C75.7218 40.8391 75.7328 40.3117 75.7328 39.7844C75.7328 23.4275 64.679 8.90234 48.8526 4.46365C48.6553 4.40833 48.4708 4.31469 48.3097 4.18808C48.1486 4.06147 48.014 3.90436 47.9136 3.72573C47.8132 3.5471 47.7489 3.35044 47.7245 3.14699C47.7001 2.94353 47.7161 2.73726 47.7714 2.53996C47.8267 2.34266 47.9203 2.15818 48.047 1.99706C48.1736 1.83595 48.3307 1.70135 48.5093 1.60095C48.6879 1.50055 48.8846 1.43632 49.088 1.41192C49.2915 1.38753 49.4978 1.40344 49.6951 1.45876C66.8616 6.27345 78.8516 22.0343 78.8516 39.7844C78.8516 40.5925 78.8266 41.4007 78.7782 42.2073C78.6987 43.5101 78.1308 42.3103 77.3476 42.0607C76.6065 41.8251 75.6454 42.6083 75.6984 41.3648ZM5.45173 23.2497C5.18124 23.2496 4.91543 23.1792 4.68037 23.0453C4.44531 22.9115 4.24908 22.7189 4.11094 22.4863C3.9728 22.2538 3.89748 21.9893 3.89239 21.7189C3.8873 21.4484 3.9526 21.1813 4.08189 20.9437C11.1058 8.02552 24.5123 0 39.0687 0C40.5088 0 41.9613 0.0795688 43.3857 0.235586C43.7972 0.280895 44.1739 0.487819 44.4328 0.810838C44.6918 1.13386 44.8118 1.54651 44.7665 1.95802C44.7212 2.36952 44.5143 2.74618 44.1912 3.00512C43.8682 3.26406 43.4556 3.38408 43.0441 3.33877C41.7239 3.1933 40.3968 3.12039 39.0687 3.12034C25.6575 3.12034 13.301 10.5218 6.82312 22.4337C6.68927 22.6807 6.49117 22.8869 6.24977 23.0305C6.00836 23.1742 5.73263 23.2499 5.45173 23.2497ZM1.5669 47.9675C1.38641 47.9673 1.21156 47.9045 1.07216 47.7899C0.93276 47.6752 0.83743 47.5158 0.802415 47.3387C0.311967 44.851 0.0648139 42.3215 0.0644531 39.7859C0.0644531 35.2802 0.842979 30.8524 2.37507 26.6275C2.41 26.5311 2.46358 26.4425 2.53274 26.3668C2.60191 26.2911 2.6853 26.2298 2.77817 26.1863C2.87103 26.1428 2.97155 26.1181 3.07398 26.1135C3.1764 26.1089 3.27874 26.1245 3.37514 26.1594C3.47154 26.1943 3.56011 26.2479 3.6358 26.3171C3.71149 26.3862 3.77282 26.4696 3.81628 26.5625C3.85975 26.6554 3.88449 26.7559 3.88911 26.8583C3.89373 26.9607 3.87812 27.0631 3.84319 27.1595C2.37288 31.2067 1.62204 35.4799 1.62463 39.7859C1.62463 42.2151 1.86333 44.6552 2.3345 47.0361C2.3569 47.1493 2.35388 47.2662 2.32565 47.3781C2.29741 47.4901 2.24467 47.5944 2.17124 47.6835C2.0978 47.7726 2.00549 47.8443 1.90099 47.8934C1.79648 47.9425 1.68237 47.9678 1.5669 47.9675Z" fill="#024665"/>
<path d="M18.5586 15.8487C18.398 15.8491 18.2412 15.7998 18.1096 15.7076C17.978 15.6155 17.8781 15.485 17.8235 15.3339C17.7689 15.1829 17.7622 15.0186 17.8044 14.8636C17.8466 14.7087 17.9357 14.5705 18.0593 14.468C22.2902 10.9495 27.3655 8.59519 32.7842 7.63756C37.1092 6.86512 41.5467 6.98902 45.8219 8.00158C50.097 9.01415 54.1187 10.8938 57.6378 13.5241C57.7953 13.6508 57.8975 13.8338 57.9228 14.0344C57.9481 14.235 57.8945 14.4376 57.7733 14.5995C57.6521 14.7614 57.4728 14.8699 57.2732 14.9021C57.0735 14.9343 56.8692 14.8877 56.7032 14.7722C53.3556 12.2707 49.5301 10.4829 45.4635 9.51978C41.397 8.55661 37.176 8.4385 33.0619 9.17277C27.9083 10.0838 23.0811 12.3224 19.0563 15.6678C18.9171 15.7851 18.7407 15.8492 18.5586 15.8487ZM68.6229 42.5542C68.475 39.6392 68.1415 36.7366 67.6244 33.8641C66.651 28.423 64.1717 23.3638 60.4679 19.2608C60.1905 18.9538 60.0464 18.5491 60.0673 18.1359C60.0882 17.7226 60.2724 17.3345 60.5795 17.0571C60.8865 16.7797 61.2912 16.6355 61.7044 16.6565C62.1177 16.6774 62.5058 16.8616 62.7832 17.1687C66.8772 21.704 69.6181 27.296 70.6948 33.3102C71.1832 36.0202 71.5155 38.7708 71.6887 41.5292C71.7339 42.2437 71.0287 42.1642 70.297 42.3966C69.4951 42.6525 68.6541 43.1596 68.6229 42.5542ZM3.31261 54.8609C2.98516 54.8609 2.66601 54.7578 2.40036 54.5664C2.13472 54.3749 1.93605 54.1047 1.8325 53.7941C1.72895 53.4834 1.72577 53.148 1.82341 52.8355C1.92104 52.5229 2.11455 52.249 2.37651 52.0525L2.74003 51.7702C2.98966 51.5751 3.23928 51.3801 3.50607 51.1991C5.25815 50.004 6.30502 48.071 6.30502 46.0272C6.30502 45.6558 6.27226 45.2845 6.20673 44.9257C5.35991 40.2411 5.54551 35.4282 6.75056 30.8227C7.95561 26.2173 10.1511 21.9302 13.1838 18.2608C13.3142 18.1027 13.4745 17.9719 13.6555 17.8757C13.8364 17.7796 14.0346 17.7201 14.2386 17.7005C14.4425 17.6809 14.6484 17.7018 14.8443 17.7617C15.0403 17.8217 15.2225 17.9197 15.3805 18.0501C15.5386 18.1806 15.6694 18.3408 15.7656 18.5218C15.8617 18.7028 15.9212 18.9009 15.9408 19.1049C15.9604 19.3089 15.9395 19.5147 15.8796 19.7107C15.8196 19.9066 15.7216 20.0888 15.5912 20.2469C12.8475 23.5669 10.8611 27.4456 9.77062 31.6122C8.68011 35.7789 8.5117 40.1334 9.27715 44.3718C9.37544 44.9132 9.42536 45.4702 9.42536 46.0287C9.42536 49.1069 7.86987 52.0026 5.26283 53.7797C5.05532 53.9216 4.86186 54.0745 4.6684 54.2274L4.24559 54.5535C3.97529 54.7527 3.64841 54.8604 3.31261 54.8609ZM58.0559 74.5128C57.7936 74.5132 57.5354 74.4473 57.3053 74.3213C57.0752 74.1952 56.8807 74.0131 56.7399 73.7917C56.599 73.5704 56.5164 73.3171 56.4996 73.0553C56.4828 72.7935 56.5325 72.5317 56.6439 72.2942C59.3373 66.5098 61.1284 60.3469 61.9548 54.0199C62.0655 53.1649 64.4464 58.2059 64.281 59.0187C63.2565 64.0549 61.6421 68.9528 59.471 73.611C59.3455 73.8805 59.1457 74.1086 58.895 74.2683C58.6443 74.4281 58.3532 74.5129 58.0559 74.5128ZM6.05539 60.6007C5.73392 60.6009 5.42027 60.5017 5.15731 60.3167C4.89436 60.1318 4.69495 59.8702 4.58635 59.5676C4.47776 59.265 4.46527 58.9363 4.55061 58.6264C4.63595 58.3164 4.81495 58.0404 5.06312 57.8361C5.7808 57.2464 6.40331 56.7752 7.01958 56.3555C8.11234 55.6119 9.08335 54.7035 9.89809 53.6626C10.0241 53.5009 10.1809 53.3657 10.3593 53.2647C10.5378 53.1638 10.7344 53.099 10.9379 53.0742C11.1414 53.0494 11.3479 53.0651 11.5453 53.1203C11.7428 53.1755 11.9274 53.2691 12.0886 53.3959C12.7672 53.9263 12.8874 54.9077 12.3554 55.5848C11.343 56.8789 10.1362 58.0084 8.77789 58.9329C8.23807 59.2995 7.68889 59.7161 7.0461 60.2466C6.76683 60.4758 6.41667 60.6009 6.05539 60.6007Z" fill="#024665"/>
<path d="M13.7648 49.8684C13.6476 49.8685 13.5319 49.8422 13.4262 49.7914C13.3206 49.7406 13.2277 49.6667 13.1546 49.5751C13.0814 49.4835 13.0298 49.3766 13.0037 49.2623C12.9775 49.1481 12.9775 49.0294 13.0035 48.9151C13.3918 47.1955 13.43 45.4154 13.1158 43.6807C10.6008 29.7094 19.9213 16.2981 33.8911 13.7831C47.864 11.2713 61.2721 20.5949 63.7886 34.5568C64.4689 38.3293 64.8121 42.1892 64.8121 46.0288C64.8121 46.5639 63.2207 48.0227 63.2316 47.5936C63.3367 43.3184 63.0084 39.0436 62.2519 34.8345C59.8898 21.7166 47.2898 12.9594 34.1672 15.3184C21.0446 17.682 12.2905 30.2804 14.6526 43.403C15.0012 45.3437 14.9582 47.3345 14.5262 49.2583C14.4876 49.4314 14.3911 49.5862 14.2527 49.6971C14.1143 49.8079 13.9422 49.8684 13.7648 49.8684Z" fill="#024665"/>
<path d="M19.7397 41.3443C19.336 41.3442 18.9481 41.1876 18.6575 40.9074C18.3668 40.6273 18.1961 40.2453 18.1811 39.8419C17.8098 29.8256 24.9804 20.9311 34.8594 19.1525C36.2666 18.8982 37.6989 18.7921 39.1186 18.8373C39.9799 18.8654 40.6554 19.5846 40.6289 20.4458C40.6024 21.3071 39.8675 21.9795 39.0203 21.9561C37.8119 21.9171 36.6028 22.0065 35.4132 22.2229C27.0523 23.7284 20.9848 31.2532 21.2999 39.7249C21.3147 40.1383 21.165 40.5406 20.8837 40.8439C20.6024 41.1471 20.2124 41.3265 19.799 41.3428L19.7397 41.3443ZM55.5176 62.7952C55.3964 62.7954 55.2767 62.7674 55.1682 62.7133C55.0597 62.6593 54.9653 62.5807 54.8924 62.4837C54.8196 62.3868 54.7704 62.2743 54.7486 62.155C54.7269 62.0357 54.7332 61.913 54.7672 61.7966C56.2555 56.671 57.0113 51.3606 57.0122 46.0233C57.0122 42.6533 56.7096 39.26 56.112 35.9352C55.5792 32.9194 54.2793 30.0914 52.3374 27.7233C50.3955 25.3551 47.8769 23.5265 45.0239 22.4132C44.8313 22.3373 44.6767 22.188 44.5942 21.9981C44.5117 21.8082 44.508 21.5933 44.5839 21.4007C44.6598 21.2081 44.8092 21.0535 44.9991 20.971C45.189 20.8885 45.4039 20.8848 45.5965 20.9607C48.6972 22.1711 51.4345 24.1587 53.5451 26.7325C55.6558 29.3063 57.069 32.3798 57.6488 35.6575C59.246 44.5035 58.7734 53.5991 56.268 62.2319C56.2208 62.3944 56.122 62.5371 55.9867 62.6387C55.8514 62.7402 55.6868 62.7951 55.5176 62.7952ZM48.9025 78.2845C48.6237 78.2842 48.35 78.2092 48.11 78.0673C47.87 77.9253 47.6725 77.7217 47.5379 77.4775C47.4033 77.2333 47.3366 76.9575 47.3447 76.6788C47.3528 76.4001 47.4355 76.1287 47.5841 75.8928C49.3611 73.0698 50.8856 70.0955 52.1398 67.0045C52.2969 66.6237 52.5982 66.3204 52.978 66.1609C53.3578 66.0014 53.7853 65.9986 54.1672 66.1531C54.5491 66.3075 54.8544 66.6068 55.0165 66.9855C55.1786 67.3642 55.1843 67.7917 55.0324 68.1746C53.7099 71.4382 52.1008 74.5781 50.2239 77.5575C50.0831 77.7805 49.888 77.9642 49.6569 78.0913C49.4258 78.2185 49.1662 78.2849 48.9025 78.2845ZM9.64699 64.9607C9.48806 64.9608 9.33287 64.9125 9.20218 64.822C9.0715 64.7316 8.97155 64.6034 8.91573 64.4546C8.85991 64.3058 8.85087 64.1435 8.88982 63.9894C8.92877 63.8353 9.01386 63.6968 9.1337 63.5924C9.78429 63.0245 10.3865 62.5549 10.9747 62.1555C16.3557 58.4875 19.5681 52.4575 19.5681 46.0233C19.5681 45.8164 19.6503 45.618 19.7966 45.4717C19.9429 45.3254 20.1413 45.2432 20.3482 45.2432C20.5551 45.2432 20.7535 45.3254 20.8998 45.4717C21.0461 45.618 21.1283 45.8164 21.1283 46.0233C21.1283 52.9739 17.66 59.4876 11.8531 63.4442C11.2625 63.8511 10.6972 64.2934 10.1603 64.7688C10.0183 64.8931 9.83575 64.9613 9.64699 64.9607Z" fill="#024665"/>
<path d="M50.7322 38.4659C50.3666 38.4654 50.0128 38.3366 49.7326 38.102C49.4523 37.8673 49.2633 37.5416 49.1986 37.1819C48.9483 35.7689 48.4201 34.4196 47.6445 33.2123C46.8689 32.005 45.8613 30.9636 44.6803 30.1486C43.5049 29.3264 42.1781 28.7457 40.7766 28.4401C39.3751 28.1345 37.9269 28.1102 36.5159 28.3684C35.7046 28.514 34.9122 28.7506 34.1538 29.0736C33.7731 29.2358 33.3436 29.2402 32.9597 29.0857C32.5759 28.9312 32.2691 28.6306 32.1069 28.2499C31.9447 27.8692 31.9403 27.4397 32.0948 27.0558C32.2493 26.6719 32.55 26.3651 32.9306 26.2029C33.9047 25.7889 34.922 25.4854 35.9636 25.298C37.778 24.9665 39.64 24.998 41.4421 25.3909C43.2441 25.7838 44.9503 26.5301 46.462 27.5868C47.9804 28.6349 49.2758 29.9738 50.2731 31.526C51.2704 33.0783 51.9499 34.8129 52.2721 36.6296C52.312 36.8545 52.3021 37.0855 52.2431 37.3062C52.1841 37.5269 52.0775 37.732 51.9307 37.9071C51.7839 38.0821 51.6005 38.2229 51.3934 38.3194C51.1864 38.416 50.9607 38.466 50.7322 38.4659ZM40.3961 78.7573C40.2496 78.7572 40.106 78.7159 39.9819 78.638C39.8578 78.5601 39.7582 78.4489 39.6944 78.317C39.6305 78.1852 39.6051 78.038 39.6211 77.8923C39.637 77.7467 39.6937 77.6085 39.7845 77.4936C46.8779 68.5375 50.7472 57.4529 50.7681 46.028C50.7681 45.0217 50.7369 44.0138 50.6776 43.006C50.6715 42.9037 50.6856 42.8012 50.7192 42.7044C50.7528 42.6076 50.8051 42.5184 50.8732 42.4419C50.9414 42.3653 51.0239 42.303 51.1162 42.2584C51.2084 42.2139 51.3086 42.188 51.4109 42.1822C51.8399 42.1354 52.2097 42.4849 52.2347 42.9155C52.2971 43.953 52.3283 44.9921 52.3283 46.028C52.3073 57.8048 48.3186 69.231 41.0061 78.4624C40.9335 78.5547 40.8409 78.6292 40.7352 78.6803C40.6294 78.7314 40.5135 78.7578 40.3961 78.7573ZM14.0214 69.4275C13.86 69.4285 13.7022 69.3794 13.57 69.2868C13.4377 69.1943 13.3375 69.063 13.2832 68.911C13.2289 68.759 13.2231 68.5939 13.2668 68.4385C13.3104 68.2831 13.4013 68.1451 13.5268 68.0436C13.8341 67.7924 14.1509 67.5475 14.4863 67.3166C16.539 65.9201 18.3815 64.2374 19.9578 62.3193C20.0892 62.1594 20.2787 62.0582 20.4847 62.038C20.6907 62.0178 20.8963 62.0803 21.0562 62.2117C21.2161 62.3431 21.3173 62.5326 21.3375 62.7386C21.3577 62.9446 21.2952 63.1501 21.1638 63.31C19.494 65.3432 17.5416 67.1269 15.3662 68.6068C15.0714 68.8096 14.789 69.0281 14.5175 69.2512C14.3769 69.3644 14.2019 69.4266 14.0214 69.4275ZM23.9347 59.1069C23.6703 59.1068 23.4103 59.0395 23.1791 58.9114C22.9478 58.7832 22.753 58.5984 22.6128 58.3742C22.4725 58.1501 22.3916 57.894 22.3775 57.63C22.3634 57.366 22.4166 57.1028 22.5321 56.865C24.1679 53.4856 25.0206 49.7809 25.0268 46.0265C25.0268 44.5459 24.8942 43.059 24.6321 41.6049C24.2516 39.5202 24.3503 37.3762 24.9206 35.3352C25.4909 33.2942 26.518 31.4096 27.9241 29.8241C28.0578 29.6647 28.2221 29.5338 28.4072 29.4388C28.5924 29.3439 28.7946 29.287 29.0021 29.2714C29.2095 29.2558 29.418 29.2819 29.6152 29.348C29.8125 29.4142 29.9945 29.5192 30.1506 29.6567C30.3067 29.7943 30.4337 29.9617 30.5241 30.149C30.6145 30.3364 30.6666 30.5399 30.6772 30.7477C30.6878 30.9555 30.6567 31.1633 30.5858 31.3589C30.5149 31.5545 30.4056 31.7339 30.2643 31.8866C29.1702 33.1202 28.3711 34.5865 27.9272 36.1744C27.4834 37.7624 27.4066 39.4306 27.7025 41.0526C27.9974 42.6877 28.1472 44.3618 28.1472 46.0265C28.1472 50.2233 27.1752 54.4436 25.3389 58.227C25.2111 58.4908 25.0116 58.7132 24.7633 58.8688C24.5149 59.0244 24.2278 59.107 23.9347 59.1069Z" fill="#024665"/>
<path d="M44.5585 55.0013C44.4438 55.0016 44.3305 54.9766 44.2266 54.9281C44.1227 54.8797 44.0308 54.8089 43.9574 54.7209C43.8839 54.6328 43.8308 54.5297 43.8017 54.4188C43.7727 54.3079 43.7685 54.1919 43.7893 54.0792C44.7601 48.8143 44.7717 43.4173 43.8237 38.1483C43.5649 36.7242 42.7523 35.4608 41.5639 34.6347C40.3755 33.8086 38.9081 33.4871 37.4831 33.7408C36.7768 33.8658 36.1023 34.1297 35.4986 34.5173C34.895 34.9048 34.3742 35.4082 33.9665 35.9984C33.5554 36.5862 33.2651 37.2498 33.1124 37.9507C32.9598 38.6516 32.9478 39.3758 33.0772 40.0813C33.6028 43.0092 33.7377 45.9938 33.4782 48.9571C33.4576 49.1622 33.3576 49.3511 33.1996 49.4835C33.0416 49.6159 32.8381 49.6812 32.6325 49.6655C32.5304 49.6566 32.431 49.6277 32.34 49.5804C32.249 49.5332 32.1682 49.4684 32.1023 49.3898C32.0363 49.3113 31.9865 49.2205 31.9557 49.1227C31.9249 49.0249 31.9137 48.922 31.9227 48.8199C32.1693 45.9946 32.0408 43.149 31.5404 40.3575C31.2081 38.5118 31.6138 36.649 32.684 35.1075C33.7543 33.5661 35.3597 32.5363 37.2054 32.204C39.0377 31.8772 40.9248 32.2901 42.4532 33.3523C43.9815 34.4145 45.0264 36.0393 45.3589 37.8706C46.34 43.3254 46.3279 48.9126 45.323 54.3631C45.2907 54.5423 45.1965 54.7045 45.0567 54.8211C44.9169 54.9378 44.7406 55.0016 44.5585 55.0013ZM32.5296 78.9998C32.2234 78.9995 31.9241 78.9091 31.6689 78.7399C31.4137 78.5707 31.214 78.3301 31.0945 78.0482C30.9751 77.7663 30.9413 77.4554 30.9973 77.1544C31.0533 76.8534 31.1966 76.5755 31.4094 76.3553C35.8917 71.7263 39.3444 66.1206 41.3945 60.1451C41.5411 59.77 41.827 59.466 42.1925 59.2967C42.558 59.1274 42.9747 59.1058 43.3557 59.2365C43.7367 59.3672 44.0525 59.6401 44.2371 59.998C44.4217 60.356 44.4608 60.7715 44.3463 61.1577C42.148 67.5638 38.4504 73.5704 33.6513 78.5255C33.5058 78.6759 33.3315 78.7954 33.1388 78.8769C32.946 78.9584 32.7388 79.0002 32.5296 78.9998ZM19.2775 74.0509C18.9476 74.0522 18.6259 73.9488 18.3585 73.7557C18.0912 73.5625 17.892 73.2894 17.7897 72.9759C17.6873 72.6623 17.6871 72.3243 17.7891 72.0106C17.891 71.6969 18.0899 71.4237 18.357 71.2302C24.0064 67.1144 28.1642 61.2029 30.0645 54.5816C30.1783 54.1837 30.4455 53.8474 30.8073 53.6465C31.169 53.4456 31.5958 53.3967 31.9937 53.5105C32.3915 53.6243 32.7279 53.8915 32.9287 54.2533C33.1296 54.615 33.1785 55.0418 33.0647 55.4397C30.9741 62.7272 26.4028 69.23 20.1949 73.7514C19.9288 73.9464 19.6074 74.0513 19.2775 74.0509Z" fill="#024665"/>
<path d="M25.5147 77.0933C25.1965 77.0935 24.8859 76.9963 24.6245 76.8149C24.3631 76.6335 24.1634 76.3765 24.0522 76.0784C23.941 75.7803 23.9236 75.4553 24.0024 75.147C24.0811 74.8388 24.2522 74.5619 24.4928 74.3537C32.7633 67.2003 37.5062 56.8766 37.5062 46.0319C37.5062 43.8133 37.3065 41.5807 36.9133 39.3996C36.8406 38.9923 36.9322 38.5728 37.1682 38.2329C37.4042 37.8931 37.7653 37.6607 38.1724 37.5866C38.3741 37.5498 38.5812 37.5531 38.7816 37.5965C38.9821 37.6399 39.172 37.7225 39.3405 37.8394C39.5089 37.9564 39.6526 38.1056 39.7633 38.2782C39.8739 38.4509 39.9494 38.6438 39.9853 38.8457C40.4112 41.2109 40.6265 43.6292 40.6265 46.0319C40.6265 57.7831 35.4904 68.9664 26.5335 76.7126C26.2513 76.9589 25.8892 77.0941 25.5147 77.0933ZM72.2215 58.4337C72.0166 58.4339 71.8137 58.3936 71.6244 58.3151C71.4351 58.2367 71.2632 58.1216 71.1185 57.9765L67.2181 54.0761C67.0732 53.9313 66.9583 53.7593 66.8799 53.57C66.8015 53.3808 66.7612 53.1779 66.7612 52.9731C66.7612 52.7682 66.8015 52.5654 66.8799 52.3761C66.9583 52.1868 67.0732 52.0149 67.2181 51.87C67.3629 51.7252 67.5349 51.6103 67.7242 51.5319C67.9134 51.4535 68.1163 51.4131 68.3211 51.4131C68.526 51.4131 68.7288 51.4535 68.9181 51.5319C69.1073 51.6103 69.2793 51.7252 69.4242 51.87L72.2215 54.6674L78.9194 47.9696C79.2119 47.677 79.6087 47.5127 80.0224 47.5127C80.4361 47.5127 80.8329 47.677 81.1254 47.9696C81.418 48.2621 81.5823 48.6589 81.5823 49.0726C81.5823 49.4864 81.418 49.8831 81.1254 50.1757L73.3246 57.9765C73.1799 58.1216 73.008 58.2367 72.8187 58.3151C72.6294 58.3936 72.4265 58.4339 72.2215 58.4337Z" fill="#024665"/>
<path d="M74.1716 65.4542C67.2897 65.4542 61.6902 59.8547 61.6902 52.9728C61.6902 46.0909 67.2897 40.4915 74.1716 40.4915C81.0535 40.4915 86.653 46.0909 86.653 52.9728C86.653 59.8547 81.0535 65.4542 74.1716 65.4542ZM74.1716 42.0516C68.1509 42.0516 63.2504 46.9521 63.2504 52.9728C63.2504 58.9935 68.1509 63.894 74.1716 63.894C80.1923 63.894 85.0928 58.9935 85.0928 52.9728C85.0928 46.9521 80.1923 42.0516 74.1716 42.0516Z" fill="#024665"/>
</svg>
