<svg width="52" height="52" viewBox="0 0 52 52" fill="none" xmlns="http://www.w3.org/2000/svg">
<path d="M41.6943 0C44.3406 0 46.6034 0.939563 48.4825 2.81869C50.3616 4.69781 51.3012 6.96055 51.3012 9.60689V41.6299C51.3012 44.2762 50.3616 46.5389 48.4825 48.4181C46.6034 50.2972 44.3406 51.2367 41.6943 51.2367H35.4231V31.3892H42.0612L43.062 23.6503H35.4231V18.7134C35.4231 17.4681 35.6844 16.5341 36.207 15.9114C36.7296 15.2887 37.747 14.9774 39.2592 14.9774L43.3288 14.944V8.0391C41.9278 7.83895 39.9486 7.73888 37.3912 7.73888C34.3668 7.73888 31.9484 8.62841 30.136 10.4075C28.3236 12.1865 27.4174 14.6994 27.4174 17.9462V23.6503H20.746V31.3892H27.4174V51.2367H9.67134C7.025 51.2367 4.76227 50.2972 2.88314 48.4181C1.00402 46.5389 0.0644531 44.2762 0.0644531 41.6299V9.60689C0.0644531 6.96055 1.00402 4.69781 2.88314 2.81869C4.76227 0.939563 7.025 0 9.67134 0H41.6943Z" fill="black"/>
</svg>
