<svg width="46" height="41" viewBox="0 0 46 41" fill="none" xmlns="http://www.w3.org/2000/svg">
<path d="M3.13697 40.9542C2.67237 40.9463 2.21574 40.8321 1.80209 40.6204C1.26473 40.3749 0.809214 39.9802 0.489738 39.4832C0.170261 38.9863 0.000273982 38.408 0 37.8172V17.3535C0 12.751 1.82831 8.33711 5.08271 5.08271C8.33711 1.82831 12.751 0 17.3535 0H28.6465C33.249 0 37.6629 1.82831 40.9173 5.08271C44.1717 8.33711 46 12.751 46 17.3535C46 21.9559 44.1717 26.3698 40.9173 29.6242C37.6629 32.8786 33.249 34.7069 28.6465 34.7069H12.2409L5.0058 40.3001C4.46935 40.7133 3.81402 40.9426 3.13697 40.9542ZM17.3802 3.31051C13.6568 3.31404 10.087 4.7947 7.45419 7.42749C4.82139 10.0603 3.34074 13.6301 3.3372 17.3535V37.3767L10.6524 31.8102C10.9384 31.5601 11.3007 31.4143 11.6802 31.3964H28.6732C32.241 31.1761 35.5905 29.6035 38.039 26.9991C40.4875 24.3948 41.8507 20.9547 41.8507 17.3802C41.8507 13.8056 40.4875 10.3655 38.039 7.76116C35.5905 5.15681 32.241 3.58421 28.6732 3.3639L17.3802 3.31051Z" fill="#174293"/>
<path d="M31.7971 15.0708H14.2567C13.8142 15.0708 13.3898 14.895 13.0769 14.5821C12.7639 14.2691 12.5881 13.8447 12.5881 13.4022C12.5881 12.9596 12.7639 12.5352 13.0769 12.2223C13.3898 11.9094 13.8142 11.7336 14.2567 11.7336H31.7971C32.2396 11.7336 32.664 11.9094 32.977 12.2223C33.2899 12.5352 33.4657 12.9596 33.4657 13.4022C33.4657 13.8447 33.2899 14.2691 32.977 14.5821C32.664 14.895 32.2396 15.0708 31.7971 15.0708ZM23.8679 23.2402H14.2567C13.8142 23.2402 13.3898 23.0644 13.0769 22.7515C12.7639 22.4386 12.5881 22.0142 12.5881 21.5716C12.5881 21.1291 12.7639 20.7047 13.0769 20.3918C13.3898 20.0788 13.8142 19.903 14.2567 19.903H23.8679C24.3104 19.903 24.7348 20.0788 25.0478 20.3918C25.3607 20.7047 25.5365 21.1291 25.5365 21.5716C25.5365 22.0142 25.3607 22.4386 25.0478 22.7515C24.7348 23.0644 24.3104 23.2402 23.8679 23.2402Z" fill="#174293"/>
</svg>
