<svg width="127" height="106" viewBox="0 0 127 106" fill="none" xmlns="http://www.w3.org/2000/svg">
<path d="M119.234 105.843C119.234 91.0789 113.369 76.9191 102.929 66.4791C92.4891 56.0391 78.3294 50.1738 63.565 50.1738C48.8006 50.1738 34.6409 56.0391 24.2009 66.4791C13.7609 76.9191 7.89575 91.0789 7.89575 105.843" fill="#E6E6DC"/>
<path d="M116.906 104.544H126.064M1.06445 104.544H10.2103H1.06445ZM15.4082 104.544H103.965H15.4082ZM109.132 104.544H111.778H109.132Z" stroke="#373449" stroke-linecap="round" stroke-linejoin="round"/>
<path d="M28.0798 24.8189L26.4626 25.2511L24.8455 25.686C24.5602 25.7639 24.2931 25.8977 24.0596 26.0792C23.8262 26.2607 23.6309 26.4865 23.4849 26.7437C23.339 27.001 23.2454 27.2845 23.2094 27.578C23.1734 27.8716 23.1957 28.1694 23.2751 28.4543L39.6267 89.4726C39.7001 89.7591 39.8294 90.0282 40.0071 90.2645C40.1848 90.5009 40.4075 90.6997 40.6623 90.8498C40.9171 90.9998 41.199 91.098 41.4919 91.1387C41.7848 91.1795 42.0828 91.162 42.3689 91.0872L68.2413 84.155C68.5268 84.077 68.7941 83.9431 69.0278 83.7614C69.2615 83.5797 69.4569 83.3536 69.6029 83.0961C69.7488 82.8385 69.8424 82.5548 69.8782 82.261C69.914 81.9671 69.8914 81.6689 69.8116 81.3839L53.46 20.3657C53.3866 20.0793 53.2573 19.8102 53.0796 19.5739C52.9019 19.3375 52.6793 19.1386 52.4244 18.9886C52.1696 18.8386 51.8877 18.7404 51.5948 18.6997C51.302 18.6589 51.0039 18.6764 50.7178 18.7512L49.1033 19.186L47.4835 19.6184L45.8689 20.0532L44.2491 20.4856L42.6345 20.9177L41.0147 21.3528L39.4001 21.7849L28.0798 24.8189ZM34.5486 23.087L32.9314 23.5194L34.5486 23.087Z" fill="#3B9C00"/>
<path d="M34.5486 23.087L32.9314 23.5194M28.0798 24.8189L26.4626 25.2511L24.8455 25.686C24.5602 25.7639 24.2931 25.8977 24.0596 26.0792C23.8262 26.2607 23.6309 26.4865 23.4849 26.7437C23.339 27.001 23.2454 27.2845 23.2094 27.578C23.1734 27.8716 23.1957 28.1694 23.2751 28.4543L39.6267 89.4727C39.7001 89.7591 39.8294 90.0282 40.0071 90.2645C40.1848 90.5009 40.4075 90.6997 40.6623 90.8498C40.9171 90.9998 41.199 91.098 41.4919 91.1387C41.7848 91.1795 42.0828 91.162 42.3689 91.0872L68.2413 84.155C68.5268 84.077 68.7941 83.9431 69.0278 83.7614C69.2615 83.5797 69.4569 83.3536 69.6029 83.0961C69.7488 82.8385 69.8424 82.5548 69.8782 82.261C69.914 81.9671 69.8914 81.6689 69.8116 81.3839L53.46 20.3657C53.3866 20.0793 53.2573 19.8102 53.0796 19.5739C52.9019 19.3375 52.6793 19.1386 52.4244 18.9886C52.1696 18.8386 51.8877 18.7404 51.5948 18.6997C51.302 18.6589 51.0039 18.6764 50.7178 18.7512L49.1033 19.186L47.4835 19.6184L45.8689 20.0532L44.2491 20.4856L42.6345 20.9177L41.0147 21.3528L39.4001 21.7849L28.0798 24.8189Z" stroke="#373449" stroke-linecap="round" stroke-linejoin="round"/>
<path d="M48.6271 61.1993C50.6297 60.6582 52.3357 59.3446 53.3708 57.5469C54.4059 55.7492 54.6854 53.6143 54.1479 51.6107C53.8828 50.6204 53.4248 49.6922 52.8001 48.8793C52.1755 48.0663 51.3965 47.3846 50.5078 46.8734C49.6192 46.3621 48.6384 46.0315 47.6216 45.9001C46.6049 45.7688 45.5722 45.8394 44.5828 46.108C43.5921 46.3705 42.6629 46.8259 41.8486 47.4481C41.0342 48.0703 40.3506 48.8472 39.837 49.7341C39.3234 50.621 38.9899 51.6005 38.8555 52.6165C38.7212 53.6326 38.7887 54.6651 39.0542 55.655C39.5898 57.6589 40.8986 59.3685 42.6934 60.4084C44.4881 61.4483 46.6221 61.7337 48.6271 61.2018V61.1993Z" fill="#CBE2A9"/>
<path d="M41.7514 54.9456C41.7332 54.8745 41.7292 54.8004 41.7398 54.7277C41.7503 54.655 41.7752 54.5852 41.813 54.5222C41.8508 54.4592 41.9008 54.4044 41.9599 54.3609C42.0191 54.3173 42.0863 54.286 42.1577 54.2687L42.6264 54.1411C42.5665 53.0265 43.202 51.9692 44.2775 51.6801C45.5301 51.3442 46.7931 52.2088 47.1421 53.5108C47.353 54.2973 48.0379 54.7139 48.6395 54.5524C49.241 54.3909 49.6238 53.6879 49.4155 52.9014C49.2046 52.115 48.5223 51.6983 47.9181 51.8597C47.1889 52.055 46.8973 50.9665 47.6317 50.7816C48.6915 50.4977 49.6733 51.1411 50.1759 52.1202L50.7671 51.9613C51.4962 51.766 51.7879 52.8545 51.0535 53.0394L50.465 53.1956C50.5171 54.2972 49.991 55.3441 48.9285 55.628C47.7931 55.9327 46.5014 55.4144 46.09 53.8728L46.0744 53.8206L46.0665 53.7947C45.8582 53.0057 45.1733 52.5915 44.5691 52.753C43.9754 52.9092 43.6004 53.5967 43.7905 54.3701L43.8113 54.43C44.0405 55.193 44.6968 55.602 45.2905 55.4431C46.0197 55.2478 46.3113 56.3364 45.577 56.5213C44.504 56.8077 43.4259 56.2087 42.9207 55.2139L42.4494 55.3389C42.3774 55.3589 42.3021 55.3645 42.228 55.3551C42.1538 55.3457 42.0823 55.3215 42.0176 55.2842C41.9528 55.2469 41.8962 55.1971 41.851 55.1376C41.8057 55.0782 41.7728 55.0102 41.754 54.9378L41.7514 54.9456Z" fill="#015834"/>
<path d="M42.2726 37.479C43.1305 37.2466 43.8612 36.6834 44.3044 35.9131C44.7477 35.1427 44.8674 34.2281 44.6372 33.3696C44.5236 32.9452 44.3274 32.5473 44.0598 32.1988C43.7921 31.8504 43.4583 31.5581 43.0775 31.339C42.6967 31.1198 42.2764 30.9778 41.8407 30.9214C41.4049 30.865 40.9623 30.8952 40.5382 31.0103C40.1137 31.1227 39.7155 31.3179 39.3665 31.5845C39.0175 31.8512 38.7245 32.1841 38.5044 32.5641C38.2842 32.9442 38.1412 33.3639 38.0836 33.7993C38.026 34.2347 38.0548 34.6771 38.1684 35.1014C38.6502 36.8904 40.4862 37.9582 42.2726 37.479Z" fill="#CBE2A9"/>
<path d="M41.6944 35.323C41.8433 35.2914 41.9841 35.2297 42.1083 35.1418C42.2325 35.0539 42.3375 34.9415 42.4169 34.8117C42.4963 34.6819 42.5483 34.5372 42.5699 34.3865C42.5915 34.2359 42.5822 34.0825 42.5425 33.9356C42.5028 33.7887 42.4336 33.6515 42.3391 33.5322C42.2445 33.4129 42.1267 33.3142 41.9927 33.242C41.8588 33.1698 41.7115 33.1256 41.5599 33.1123C41.4083 33.0989 41.2556 33.1165 41.1111 33.1641C40.8315 33.2476 40.5955 33.437 40.4534 33.6919C40.3113 33.9468 40.2744 34.247 40.3504 34.5288C40.4264 34.8105 40.6095 35.0515 40.8605 35.2003C41.1115 35.3491 41.4107 35.3941 41.6944 35.3256V35.323Z" fill="#015834"/>
<path d="M52.6718 76.2902C53.5296 76.0578 54.2603 75.4946 54.7036 74.7243C55.1469 73.9539 55.2665 73.0393 55.0364 72.1808C54.9228 71.7566 54.7267 71.3589 54.4592 71.0107C54.1917 70.6624 53.8582 70.3702 53.4777 70.1511C53.0972 69.9319 52.6771 69.79 52.2417 69.7334C51.8062 69.6768 51.3639 69.7068 50.94 69.8214C50.5154 69.9339 50.1173 70.1289 49.7682 70.3955C49.4192 70.6622 49.1263 70.9952 48.9061 71.3753C48.686 71.7553 48.543 72.1749 48.4854 72.6103C48.4277 73.0457 48.4565 73.4881 48.5702 73.9124C49.0494 75.7014 50.8879 76.7668 52.6718 76.2902Z" fill="#CBE2A9"/>
<path d="M52.093 74.1318C52.2396 74.0981 52.3779 74.0349 52.4997 73.9465C52.6215 73.8581 52.7241 73.7461 52.8016 73.6172C52.8791 73.4882 52.9299 73.345 52.9507 73.196C52.9716 73.0469 52.9623 72.8953 52.9232 72.7499C52.8842 72.6046 52.8163 72.4685 52.7235 72.35C52.6307 72.2316 52.5151 72.1332 52.3834 72.0604C52.2517 71.9877 52.1066 71.9421 51.957 71.9266C51.8073 71.9111 51.656 71.9259 51.5122 71.9702C51.2351 72.0555 51.0019 72.245 50.8617 72.4988C50.7214 72.7526 50.6851 73.051 50.7604 73.3311C50.8356 73.6111 51.0165 73.8509 51.2651 74.0002C51.5136 74.1496 51.8104 74.1969 52.093 74.1318Z" fill="#015834"/>
<path d="M28.2751 32.018C29.0255 31.8171 29.6607 31.3092 30.0411 30.6059C30.4215 29.9027 30.516 29.0618 30.3038 28.268L47.283 23.7185C47.4958 24.5119 47.9978 25.1929 48.6785 25.6119C49.3592 26.0308 50.163 26.1536 50.9132 25.953L64.8116 77.8228C64.0618 78.0244 63.4272 78.5324 63.0473 79.2356C62.6674 79.9387 62.5733 80.7793 62.7856 81.5727L45.8064 86.122C45.701 85.7289 45.5234 85.3593 45.2838 85.0342C45.0442 84.7092 44.7472 84.4352 44.4099 84.2277C44.0725 84.0202 43.7014 83.8833 43.3177 83.825C42.934 83.7666 42.5452 83.7882 42.1736 83.8879L28.2751 32.018Z" fill="#8BBE3E"/>
<path d="M48.2521 61.2991C50.5411 60.6806 52.4911 59.1789 53.6737 57.1237C54.8564 55.0686 55.1749 52.628 54.5594 50.3382C54.2562 49.2067 53.7327 48.1463 53.0189 47.2174C52.3051 46.2886 51.415 45.5097 50.3997 44.9254C49.3844 44.3412 48.2637 43.963 47.102 43.8127C45.9403 43.6623 44.7603 43.7427 43.6297 44.0492C42.4976 44.3494 41.4358 44.87 40.5053 45.5812C39.5747 46.2925 38.7936 47.1804 38.2067 48.194C37.6199 49.2076 37.2387 50.327 37.0852 51.4882C36.9317 52.6493 37.0087 53.8293 37.312 54.9606C37.9239 57.2508 39.4197 59.2047 41.4708 60.3931C43.522 61.5815 45.9609 61.9072 48.2521 61.2991Z" fill="#CBE2A9"/>
<path d="M40.3949 54.1514C40.3743 54.0702 40.3699 53.9856 40.3821 53.9027C40.3942 53.8197 40.4227 53.7401 40.4657 53.6682C40.5088 53.5963 40.5657 53.5337 40.6331 53.4839C40.7005 53.434 40.7771 53.3981 40.8585 53.378L41.3975 53.2346C41.3272 51.9586 42.0538 50.7504 43.283 50.4222C44.7152 50.0368 46.158 51.0238 46.5564 52.5108C46.796 53.4118 47.5772 53.8857 48.2673 53.7008C48.9548 53.5159 49.3923 52.7164 49.1527 51.8154C48.9106 50.917 48.1319 50.4405 47.4418 50.6254C46.6085 50.8493 46.2777 49.6045 47.1137 49.3935C48.3246 49.068 49.447 49.8023 50.0251 50.9221L50.697 50.74C51.5303 50.5186 51.8637 51.7634 51.0277 51.9743L50.3507 52.1565C50.4106 53.4143 49.8116 54.6097 48.6007 54.9352C47.2986 55.2815 45.8246 54.6905 45.3507 52.9301L45.335 52.8675L45.3272 52.8414C45.0876 51.9404 44.3064 51.4665 43.6163 51.6514C42.9392 51.8337 42.5069 52.615 42.7283 53.5004L42.7491 53.5706C43.0095 54.443 43.7621 54.9091 44.4418 54.7268C45.2751 54.5029 45.6085 55.7477 44.7699 55.9586C43.5408 56.2894 42.309 55.6045 41.7335 54.4665L41.1944 54.6097C41.1122 54.6328 41.0261 54.6394 40.9413 54.6287C40.8565 54.6181 40.7747 54.5905 40.7007 54.5478C40.6267 54.5051 40.562 54.4481 40.5104 54.38C40.4587 54.3119 40.4213 54.2342 40.4001 54.1514H40.3949Z" fill="#015834"/>
<path d="M41.6087 36.5026C42.4672 36.2703 43.1983 35.7067 43.6417 34.9357C44.085 34.1648 44.2043 33.2494 43.9733 32.3906C43.8595 31.9663 43.6631 31.5687 43.3953 31.2206C43.1275 30.8724 42.7937 30.5805 42.4129 30.3616C42.0322 30.1427 41.6119 30.0009 41.1763 29.9447C40.7407 29.8885 40.2983 29.9188 39.8744 30.0339C39.4501 30.1464 39.0522 30.3414 38.7034 30.6078C38.3546 30.8743 38.0617 31.2069 37.8416 31.5866C37.6215 31.9664 37.4784 32.3859 37.4206 32.821C37.3628 33.2561 37.3913 33.6984 37.5046 34.1224C37.9863 35.9141 39.8223 36.9792 41.6087 36.5026Z" fill="#CBE2A9"/>
<path d="M41.0305 34.351C41.1771 34.3173 41.3154 34.2543 41.4372 34.1659C41.5589 34.0775 41.6616 33.9655 41.7391 33.8365C41.8166 33.7076 41.8673 33.5642 41.8882 33.4152C41.9091 33.2662 41.8998 33.1145 41.8607 32.9692C41.8217 32.8238 41.7538 32.6879 41.661 32.5694C41.5682 32.4509 41.4525 32.3524 41.3208 32.2797C41.1891 32.2069 41.0441 32.1613 40.8945 32.1458C40.7448 32.1303 40.5935 32.1453 40.4497 32.1895C40.1726 32.2749 39.9394 32.4644 39.7992 32.7182C39.6589 32.972 39.6226 33.2702 39.6978 33.5503C39.7731 33.8303 39.954 34.0702 40.2026 34.2196C40.4511 34.3689 40.7479 34.4161 41.0305 34.351Z" fill="#015834"/>
<path d="M52.0069 75.3138C52.8659 75.082 53.5977 74.5186 54.0415 73.7475C54.4854 72.9765 54.605 72.061 54.3741 71.2019C54.2603 70.7776 54.0639 70.3799 53.7961 70.0317C53.5284 69.6835 53.1945 69.3917 52.8137 69.1728C52.433 68.9538 52.0127 68.8123 51.5771 68.756C51.1415 68.6998 50.6991 68.73 50.2752 68.845C49.8509 68.9575 49.453 69.1524 49.1042 69.4188C48.7554 69.6853 48.4625 70.0182 48.2424 70.3979C48.0223 70.7777 47.8793 71.1969 47.8214 71.632C47.7636 72.0671 47.7921 72.5094 47.9054 72.9334C48.3846 74.7251 50.2231 75.7904 52.0069 75.3138Z" fill="#CBE2A9"/>
<path d="M51.4287 73.1541C51.5782 73.1233 51.7199 73.0621 51.845 72.9745C51.97 72.8869 52.0759 72.7748 52.156 72.6448C52.2361 72.5149 52.2888 72.37 52.3109 72.2189C52.3329 72.0678 52.3238 71.9136 52.2841 71.7662C52.2445 71.6188 52.1751 71.4812 52.0802 71.3615C51.9854 71.2419 51.8671 71.1429 51.7325 71.0707C51.598 70.9984 51.4502 70.9546 51.2981 70.9416C51.1459 70.9286 50.9928 70.9466 50.848 70.995C50.5683 71.0785 50.3324 71.2681 50.1903 71.523C50.0482 71.7779 50.0112 72.078 50.0873 72.3597C50.1633 72.6414 50.3463 72.8826 50.5974 73.0314C50.8484 73.1802 51.1476 73.2252 51.4313 73.1567L51.4287 73.1541Z" fill="#015834"/>
<path d="M87.5025 89.4756L103.853 28.4563C104.177 27.2462 103.474 26.0068 102.284 25.6878L76.4101 18.7549C75.2195 18.4359 73.9916 19.1581 73.6674 20.3682L57.3173 81.3875C56.993 82.5975 57.6953 83.8371 58.8859 84.1561L84.7597 91.089C85.9502 91.408 87.1782 90.6856 87.5025 89.4756Z" fill="#3B9C00" stroke="#373449" stroke-linecap="round" stroke-linejoin="round"/>
<path d="M78.5022 61.1993C76.4996 60.6582 74.7935 59.3446 73.7584 57.5469C72.7234 55.7492 72.4439 53.6143 72.9813 51.6107C73.2465 50.6204 73.7045 49.6922 74.3291 48.8793C74.9538 48.0663 75.7328 47.3846 76.6214 46.8734C77.5101 46.3621 78.4909 46.0315 79.5076 45.9001C80.5244 45.7688 81.5571 45.8394 82.5465 46.108C83.5372 46.3705 84.4663 46.8259 85.2807 47.4481C86.0951 48.0703 86.7787 48.8472 87.2923 49.7341C87.8059 50.621 88.1394 51.6005 88.2737 52.6165C88.4081 53.6326 88.3406 54.6651 88.0751 55.655C87.5395 57.6589 86.2306 59.3685 84.4359 60.4084C82.6411 61.4483 80.5071 61.7337 78.5022 61.2018V61.1993Z" fill="#CBE2A9"/>
<path d="M85.377 54.9456C85.3953 54.8745 85.3992 54.8004 85.3887 54.7277C85.3781 54.655 85.3532 54.5852 85.3154 54.5222C85.2776 54.4592 85.2277 54.4044 85.1685 54.3609C85.1093 54.3173 85.0421 54.286 84.9707 54.2687L84.4994 54.1411C84.5619 53.0265 83.9264 51.9692 82.8509 51.6801C81.5957 51.3442 80.3353 52.2088 79.9863 53.5108C79.7754 54.2973 79.0905 54.7139 78.489 54.5524C77.8848 54.3909 77.502 53.6879 77.7129 52.9014C77.9238 52.115 78.6061 51.6983 79.2103 51.8597C79.9395 52.055 80.2285 50.9665 79.4968 50.7816C78.4369 50.4977 77.4551 51.1411 76.9499 52.1202L76.3614 51.9613C75.6322 51.766 75.3405 52.8545 76.0723 53.0394L76.6634 53.1956C76.6113 54.2972 77.1374 55.3441 78.1973 55.628C79.3327 55.9327 80.627 55.4144 81.0384 53.8728L81.0541 53.8206L81.0619 53.7947C81.2702 53.0057 81.9551 52.5915 82.5593 52.753C83.153 52.9092 83.528 53.5967 83.3353 54.3701C83.3283 54.3898 83.3222 54.4098 83.3171 54.43C83.0879 55.193 82.4317 55.602 81.8379 55.4431C81.1087 55.2478 80.8171 56.3364 81.5488 56.5213C82.6244 56.8077 83.7025 56.2087 84.2051 55.2139L84.6791 55.3389C84.7511 55.3589 84.8263 55.3645 84.9005 55.3551C84.9746 55.3457 85.0461 55.3215 85.1108 55.2842C85.1756 55.2469 85.2322 55.1971 85.2775 55.1376C85.3227 55.0782 85.3557 55.0102 85.3744 54.9378L85.377 54.9456Z" fill="#015834"/>
<path d="M84.8561 37.4793C83.9982 37.2469 83.2676 36.6837 82.8243 35.9134C82.381 35.143 82.2614 34.2284 82.4915 33.3699C82.6051 32.9457 82.8012 32.548 83.0687 32.1997C83.3362 31.8515 83.6697 31.5595 84.0502 31.3403C84.4307 31.1212 84.8507 30.9792 85.2862 30.9226C85.7216 30.866 86.164 30.8959 86.5879 31.0105C88.3743 31.4897 89.4368 33.3126 88.9577 35.1016C88.7286 35.9605 88.168 36.6933 87.3989 37.1391C86.6299 37.585 85.7153 37.7074 84.8561 37.4793Z" fill="#CBE2A9"/>
<path d="M85.4346 35.3233C85.285 35.2925 85.1434 35.2314 85.0183 35.1438C84.8932 35.0563 84.7874 34.944 84.7073 34.814C84.6271 34.6841 84.5744 34.5391 84.5524 34.388C84.5304 34.237 84.5395 34.083 84.5791 33.9355C84.6188 33.7881 84.6882 33.6503 84.783 33.5307C84.8779 33.4111 84.9962 33.3121 85.1307 33.2398C85.2652 33.1676 85.4131 33.1237 85.5652 33.1108C85.7173 33.0978 85.8705 33.1159 86.0153 33.1643C86.2924 33.2497 86.5257 33.4392 86.6659 33.693C86.8061 33.9468 86.8424 34.245 86.7672 34.5251C86.692 34.8051 86.511 35.045 86.2625 35.1944C86.0139 35.3437 85.7172 35.3909 85.4346 35.3258V35.3233Z" fill="#015834"/>
<path d="M74.4577 76.2907C73.5994 76.0589 72.8681 75.4958 72.4243 74.7254C71.9805 73.955 71.8605 73.0401 72.0906 72.1813C72.2041 71.7568 72.4003 71.359 72.668 71.0105C72.9356 70.662 73.2694 70.3698 73.6502 70.1506C74.031 69.9314 74.4513 69.7896 74.8871 69.7332C75.3229 69.6768 75.7655 69.7069 76.1895 69.8219C77.976 70.3011 79.0385 72.1238 78.5593 73.9128C78.3296 74.7714 77.7689 75.5039 77 75.9496C76.2311 76.3953 75.3169 76.5181 74.4577 76.2907Z" fill="#CBE2A9"/>
<path d="M75.0328 74.13C74.8875 74.0949 74.7506 74.031 74.6303 73.9422C74.51 73.8533 74.4087 73.7412 74.3325 73.6125C74.2562 73.4838 74.2065 73.3411 74.1862 73.1929C74.166 73.0447 74.1756 72.8941 74.2146 72.7497C74.2536 72.6053 74.3211 72.4703 74.4131 72.3524C74.5052 72.2345 74.6199 72.1362 74.7505 72.0634C74.8812 71.9906 75.0251 71.9446 75.1738 71.9283C75.3224 71.912 75.4729 71.9256 75.6162 71.9684C75.8958 72.0519 76.1318 72.2415 76.2738 72.4964C76.4159 72.7513 76.4529 73.0513 76.3768 73.3331C76.3008 73.6148 76.1178 73.856 75.8667 74.0048C75.6157 74.1536 75.3165 74.1985 75.0328 74.13Z" fill="#015834"/>
<path d="M98.8505 32.018C98.1007 31.8165 97.4661 31.3083 97.0862 30.6051C96.7063 29.902 96.6122 29.0614 96.8245 28.268L79.8453 23.7185C79.6324 24.5119 79.1305 25.1929 78.4498 25.6119C77.7691 26.0308 76.9653 26.1536 76.2151 25.953L62.3141 77.8228C62.6858 77.922 63.0333 78.0976 63.3366 78.3397C63.6399 78.5819 63.8931 78.8857 64.0817 79.234C64.2703 79.5822 64.3907 79.9679 64.4359 80.3692C64.4811 80.7704 64.4504 81.1795 64.3453 81.5727L81.3245 86.122C81.5374 85.3287 82.0393 84.648 82.72 84.229C83.4007 83.81 84.2045 83.6873 84.9547 83.8879L98.8531 32.018H98.8505Z" fill="#8BBE3E"/>
<path d="M78.8767 61.2984C76.5877 60.6799 74.6377 59.1782 73.4551 57.123C72.2725 55.0679 71.9539 52.6273 72.5695 50.3375C72.8727 49.2062 73.3961 48.146 74.1097 47.2174C74.8233 46.2887 75.7131 45.51 76.7281 44.9258C77.7432 44.3416 78.8635 43.9635 80.0249 43.8129C81.1864 43.6623 82.3661 43.7424 83.4965 44.0485C84.6289 44.3484 85.6909 44.8689 86.6218 45.5801C87.5526 46.2912 88.334 47.1789 88.9211 48.1925C89.5083 49.2061 89.8896 50.3257 90.0433 51.487C90.197 52.6482 90.1201 53.8285 89.8168 54.9599C89.2049 57.2501 87.7091 59.204 85.658 60.3924C83.6069 61.5808 81.168 61.9065 78.8767 61.2984Z" fill="#CBE2A9"/>
<path d="M86.7341 54.1514C86.7548 54.0702 86.7591 53.9856 86.747 53.9027C86.7348 53.8197 86.7064 53.7401 86.6633 53.6682C86.6202 53.5963 86.5633 53.5337 86.4959 53.4839C86.4285 53.434 86.3519 53.3981 86.2706 53.378L85.7315 53.2346C85.8018 51.9586 85.0752 50.7504 83.8461 50.4222C82.4138 50.0368 80.9711 51.0238 80.5726 52.5108C80.3305 53.4118 79.5492 53.8857 78.8617 53.7008C78.1742 53.5159 77.7341 52.7164 77.9763 51.8154C78.2185 50.917 78.9971 50.4405 79.6846 50.6254C80.518 50.8493 80.8513 49.6045 80.0154 49.3935C78.8044 49.068 77.682 49.8023 77.1039 50.9221L76.4294 50.74C75.5961 50.5186 75.2654 51.7634 76.1013 51.9743L76.7784 52.1565C76.7185 53.4143 77.3174 54.6097 78.5284 54.9352C79.8305 55.2815 81.3044 54.6905 81.7758 52.9301C81.7862 52.904 81.7888 52.8883 81.794 52.8675L81.8018 52.8414C82.0414 51.9404 82.8226 51.4665 83.5128 51.6514C84.1898 51.8337 84.6221 52.615 84.4008 53.5004C84.3926 53.5235 84.3857 53.5469 84.3799 53.5706C84.1195 54.443 83.3643 54.9091 82.6872 54.7268C81.8539 54.5029 81.5206 55.7477 82.3565 55.9586C83.5857 56.2894 84.82 55.6045 85.3956 54.4665L85.9346 54.6097C86.0169 54.6328 86.1029 54.6394 86.1877 54.6287C86.2725 54.6181 86.3543 54.5905 86.4283 54.5478C86.5023 54.5051 86.5671 54.4481 86.6187 54.38C86.6703 54.3119 86.7078 54.2342 86.7289 54.1514H86.7341Z" fill="#015834"/>
<path d="M85.5174 36.5026C84.659 36.2703 83.9278 35.7067 83.4845 34.9357C83.0411 34.1648 82.9218 33.2494 83.1528 32.3906C83.2667 31.9663 83.4631 31.5687 83.7308 31.2206C83.9986 30.8724 84.3324 30.5805 84.7132 30.3616C85.094 30.1427 85.5142 30.0009 85.9498 29.9447C86.3855 29.8885 86.8279 29.9188 87.2518 30.0339C89.0356 30.5104 90.1007 32.336 89.6216 34.1224C89.3925 34.9814 88.832 35.7145 88.063 36.1607C87.2941 36.607 86.3795 36.7299 85.52 36.5026H85.5174Z" fill="#CBE2A9"/>
<path d="M86.0953 34.3492C85.95 34.3141 85.8131 34.2502 85.6928 34.1614C85.5725 34.0725 85.4712 33.9604 85.395 33.8317C85.3187 33.7031 85.269 33.5604 85.2487 33.4123C85.2285 33.2641 85.2381 33.1133 85.2771 32.969C85.3161 32.8246 85.3836 32.6895 85.4756 32.5716C85.5677 32.4537 85.6824 32.3554 85.8131 32.2826C85.9437 32.2098 86.0876 32.1638 86.2363 32.1475C86.3849 32.1312 86.5354 32.1449 86.6787 32.1877C86.9583 32.2712 87.1943 32.4605 87.3363 32.7154C87.4784 32.9703 87.5154 33.2707 87.4393 33.5524C87.3633 33.8342 87.1803 34.0752 86.9292 34.224C86.6782 34.3728 86.379 34.4177 86.0953 34.3492Z" fill="#015834"/>
<path d="M75.1222 75.3138C74.2633 75.082 73.5315 74.5186 73.0876 73.7475C72.6438 72.9765 72.5241 72.061 72.755 71.2019C72.8688 70.7776 73.0653 70.3799 73.333 70.0317C73.6008 69.6835 73.9346 69.3917 74.3154 69.1728C74.6962 68.9538 75.1164 68.8123 75.552 68.756C75.9876 68.6998 76.4301 68.73 76.854 68.845C78.6378 69.3216 79.7029 71.1444 79.2238 72.9334C78.9947 73.7924 78.4341 74.5255 77.6652 74.9717C76.8963 75.418 75.9817 75.5411 75.1222 75.3138Z" fill="#CBE2A9"/>
<path d="M75.6999 73.1541C75.5504 73.1233 75.4087 73.0621 75.2837 72.9745C75.1586 72.8869 75.0527 72.7748 74.9726 72.6448C74.8925 72.5149 74.8398 72.37 74.8178 72.2189C74.7957 72.0678 74.8048 71.9136 74.8445 71.7662C74.8841 71.6188 74.9535 71.4812 75.0484 71.3615C75.1432 71.2419 75.2616 71.1429 75.3961 71.0707C75.5306 70.9984 75.6784 70.9546 75.8306 70.9416C75.9827 70.9286 76.1359 70.9466 76.2807 70.995C76.5603 71.0785 76.7963 71.2681 76.9383 71.523C77.0804 71.7779 77.1174 72.078 77.0413 72.3597C76.9653 72.6414 76.7823 72.8826 76.5312 73.0314C76.2802 73.1802 75.981 73.2252 75.6973 73.1567L75.6999 73.1541Z" fill="#015834"/>
<path d="M79.1896 34.249V36.861V34.249ZM79.1896 42.0745V76.2438C79.1923 76.5392 79.1367 76.8323 79.0259 77.1062C78.9152 77.3801 78.7514 77.6294 78.5441 77.8399C78.3367 78.0504 78.0899 78.2181 77.8177 78.3329C77.5455 78.4478 77.2532 78.5077 76.9578 78.5094H50.1713C49.8759 78.5077 49.5837 78.4478 49.3114 78.3329C49.0392 78.2181 48.7924 78.0504 48.585 77.8399C48.3777 77.6294 48.2139 77.3801 48.1032 77.1062C47.9924 76.8323 47.9368 76.5392 47.9396 76.2438V13.0719C47.9396 11.8141 48.9343 10.8037 50.1713 10.8037H76.9578C78.1948 10.8037 79.1896 11.8141 79.1896 13.0693V29.0381" fill="#3B9C00"/>
<path d="M79.1896 42.0745V76.2438C79.1923 76.5392 79.1367 76.8323 79.0259 77.1062C78.9152 77.3801 78.7514 77.6294 78.5441 77.8399C78.3367 78.0504 78.0899 78.2181 77.8177 78.3329C77.5455 78.4478 77.2532 78.5077 76.9578 78.5094H50.1713C49.8759 78.5077 49.5837 78.4478 49.3114 78.3329C49.0392 78.2181 48.7924 78.0504 48.585 77.8399C48.3777 77.6294 48.2139 77.3801 48.1032 77.1062C47.9924 76.8323 47.9368 76.5392 47.9396 76.2438V13.0719C47.9396 11.8141 48.9343 10.8037 50.1713 10.8037H76.9578C78.1948 10.8037 79.1896 11.8141 79.1896 13.0693V29.0381M79.1896 34.249V36.861V34.249Z" stroke="#373449" stroke-linecap="round" stroke-linejoin="round"/>
<path d="M63.177 51.2644C58.8645 51.2644 55.3645 47.7488 55.3645 43.4259C55.3648 42.4012 55.5673 41.3868 55.9603 40.4406C56.3534 39.4943 56.9293 38.6349 57.655 37.9116C58.3808 37.1883 59.2421 36.6152 60.1896 36.2253C61.1372 35.8354 62.1523 35.6364 63.177 35.6394C67.4868 35.6394 70.9895 39.103 70.9895 43.4259C70.9915 45.5009 70.1699 47.4919 68.7051 48.9616C67.2403 50.4313 65.252 51.2596 63.177 51.2644Z" fill="#CBE2A9"/>
<path d="M68.1999 43.4463C68.1996 43.3725 68.1846 43.2996 68.1557 43.2317C68.1269 43.1638 68.0848 43.1024 68.0319 43.051C67.9791 42.9996 67.9165 42.9592 67.8479 42.9322C67.7792 42.9053 67.7059 42.8924 67.6322 42.8941H67.1426C66.9135 41.8003 66.028 40.9437 64.9135 40.9437C63.6166 40.9437 62.6218 42.1051 62.6218 43.4541C62.6218 44.2666 62.0671 44.8447 61.4421 44.8447C60.8171 44.8447 60.2702 44.2665 60.2702 43.4514C60.2702 42.6389 60.8171 42.0607 61.4421 42.0607C62.1973 42.0607 62.1973 40.9333 61.4421 40.9437C60.3457 40.9437 59.5619 41.8187 59.3301 42.8968H58.7181C57.9629 42.8968 57.9629 44.0217 58.7181 44.0113H59.3301C59.5645 45.0868 60.3457 45.9619 61.4395 45.9619C62.6192 45.9619 63.7312 45.1285 63.7312 43.5321V43.4488C63.7312 42.6337 64.2858 42.0557 64.9082 42.0557C65.5254 42.0557 66.0645 42.6206 66.0801 43.4175L66.0775 43.4801C66.0515 44.2744 65.5228 44.8394 64.9082 44.8394C64.153 44.8394 64.153 45.9671 64.9082 45.9567C66.0228 45.9567 66.9082 45.0973 67.14 44.0035H67.627C67.9421 44.0035 68.1999 43.7508 68.1947 43.4383L68.1999 43.4463Z" fill="#015834"/>
<path d="M63.1758 26.7097C61.3269 26.7097 59.8269 25.2045 59.8269 23.3504C59.8269 21.5014 61.3269 20.0144 63.1758 20.0144C65.0248 20.0144 66.5248 21.4987 66.5248 23.3529C66.5248 25.2019 65.0248 26.7122 63.1758 26.7122V26.7097Z" fill="#CBE2A9"/>
<path d="M63.1739 24.4766C62.8769 24.4756 62.5925 24.3566 62.3832 24.1458C62.1739 23.9351 62.057 23.6499 62.058 23.3529C62.059 23.0559 62.178 22.7715 62.3887 22.5623C62.5995 22.353 62.8847 22.236 63.1817 22.2371C63.4787 22.2378 63.7632 22.3564 63.9727 22.5669C64.1822 22.7774 64.2996 23.0624 64.2989 23.3594C64.2982 23.6564 64.1795 23.9409 63.9691 24.1505C63.7586 24.36 63.4735 24.4773 63.1765 24.4766H63.1739Z" fill="#015834"/>
<path d="M63.1758 66.882C61.3269 66.882 59.8269 65.377 59.8269 63.5254C59.8269 61.6739 61.3269 60.1868 63.1758 60.1868C65.0248 60.1868 66.5248 61.6713 66.5248 63.5254C66.5248 65.377 65.0248 66.8846 63.1758 66.8846V66.882Z" fill="#CBE2A9"/>
<path d="M63.1744 64.6533C63.0229 64.6601 62.8717 64.6358 62.7298 64.5824C62.588 64.529 62.4584 64.4474 62.349 64.3424C62.2397 64.2374 62.1528 64.1113 62.0936 63.9717C62.0344 63.8322 62.0041 63.6821 62.0046 63.5305C62.0052 63.3789 62.0365 63.229 62.0966 63.0899C62.1568 62.9508 62.2446 62.8253 62.3547 62.7212C62.4648 62.617 62.5949 62.5361 62.7371 62.4837C62.8794 62.4313 63.0308 62.4085 63.1822 62.4163C63.4792 62.417 63.7637 62.5355 63.9732 62.7459C64.1827 62.9564 64.3 63.2415 64.2994 63.5385C64.2987 63.8354 64.18 64.1202 63.9695 64.3297C63.759 64.5392 63.4739 64.6565 63.177 64.6558L63.1744 64.6533Z" fill="#015834"/>
<path d="M75.2832 17.8089C74.5062 17.8089 73.761 17.4824 73.2116 16.9012C72.6622 16.32 72.3535 15.5319 72.3535 14.71H54.7754C54.7754 15.5319 54.4667 16.32 53.9173 16.9012C53.3679 17.4824 52.6227 17.8089 51.8457 17.8089V71.5068C52.6227 71.5068 53.3679 71.8332 53.9173 72.4144C54.4667 72.9956 54.7754 73.7837 54.7754 74.6056H72.3535C72.3535 73.7837 72.6622 72.9956 73.2116 72.4144C73.761 71.8332 74.5062 71.5068 75.2832 71.5068V17.8089Z" fill="#8BBE3E"/>
<path d="M63.5648 51.2645C61.193 51.2597 58.9202 50.3134 57.2458 48.6337C55.5713 46.9539 54.6323 44.678 54.6351 42.3062C54.6354 41.1348 54.8669 39.9748 55.3163 38.893C55.7657 37.8112 56.4242 36.8288 57.254 36.0019C58.0838 35.1751 59.0686 34.52 60.1519 34.0744C61.2353 33.6288 62.396 33.4013 63.5674 33.4051C64.7384 33.4023 65.8984 33.6307 66.9811 34.0769C68.0637 34.5232 69.0477 35.1785 69.8767 36.0056C70.7057 36.8326 71.3634 37.815 71.8121 38.8966C72.2609 39.9782 72.4919 41.1377 72.4919 42.3087C72.494 44.6796 71.555 46.9545 69.8812 48.6337C68.2075 50.3128 65.9357 51.259 63.5648 51.2645Z" fill="#CBE2A9"/>
<path d="M69.3045 42.3224C69.3035 42.2385 69.2859 42.1558 69.2527 42.0787C69.2195 42.0017 69.1714 41.9319 69.1111 41.8735C69.0508 41.8152 68.9795 41.7694 68.9015 41.7388C68.8234 41.7081 68.74 41.6932 68.6561 41.6949H68.0988C67.8358 40.4449 66.8228 39.4657 65.5493 39.4657C64.065 39.4657 62.9295 40.7939 62.9295 42.3304C62.9295 43.2626 62.2967 43.9241 61.5832 43.9241C60.8722 43.9241 60.242 43.2626 60.242 42.3329C60.242 41.4006 60.8722 40.7417 61.5832 40.7417C62.4478 40.7417 62.4478 39.4527 61.5832 39.4657C60.328 39.4657 59.4347 40.4631 59.1665 41.6949H58.4712C57.6066 41.6949 57.6066 42.9813 58.4712 42.9709H59.1691C59.4374 44.2001 60.328 45.2001 61.5806 45.2001C62.9269 45.2001 64.2004 44.2443 64.2004 42.4214V42.3304C64.2004 41.4007 64.8332 40.7391 65.5441 40.7391C66.2472 40.7391 66.867 41.385 66.8827 42.2965V42.3693C66.8566 43.2808 66.2499 43.9241 65.5467 43.9241C64.6874 43.9241 64.6874 45.2105 65.5467 45.2001C66.8202 45.2001 67.8332 44.221 68.0962 42.9684H68.6535C69.0129 42.9684 69.3071 42.6818 69.3019 42.3224H69.3045Z" fill="#015834"/>
<path d="M63.565 25.5915C61.716 25.5915 60.216 24.0864 60.216 22.2322C60.216 20.3832 61.716 18.8962 63.565 18.8962C65.4139 18.8962 66.9139 20.3806 66.9139 22.2347C66.9139 24.0863 65.4113 25.5942 63.565 25.5942V25.5915Z" fill="#CBE2A9"/>
<path d="M63.5644 23.358C63.4129 23.3651 63.2616 23.3415 63.1196 23.2884C62.9776 23.2353 62.8479 23.1539 62.7382 23.0492C62.6286 22.9445 62.5414 22.8187 62.4819 22.6793C62.4223 22.5399 62.3917 22.3898 62.3919 22.2382C62.3921 22.0866 62.423 21.9366 62.4829 21.7973C62.5427 21.658 62.6303 21.5324 62.7401 21.4279C62.85 21.3235 62.9799 21.2424 63.1221 21.1897C63.2642 21.1369 63.4155 21.1135 63.567 21.121C63.714 21.1212 63.8596 21.1504 63.9954 21.2068C64.1312 21.2633 64.2545 21.3459 64.3584 21.45C64.4622 21.5541 64.5446 21.6776 64.6007 21.8135C64.6568 21.9494 64.6856 22.0951 64.6854 22.2422C64.6853 22.3892 64.6561 22.5348 64.5997 22.6706C64.5433 22.8063 64.4606 22.9297 64.3565 23.0336C64.2524 23.1374 64.1289 23.2197 63.993 23.2758C63.8571 23.3319 63.7114 23.3609 63.5644 23.3607V23.358Z" fill="#015834"/>
<path d="M63.565 65.7739C61.716 65.7739 60.216 64.2686 60.216 62.4144C60.216 60.5629 61.716 59.0759 63.565 59.0759C65.4139 59.0759 66.9139 60.5629 66.9139 62.4144C66.9139 64.2686 65.4113 65.7739 63.565 65.7739Z" fill="#CBE2A9"/>
<path d="M63.5648 63.5391C63.2678 63.5388 62.9831 63.4207 62.7734 63.2104C62.5636 63.0002 62.446 62.7152 62.4463 62.4182C62.4467 62.1212 62.565 61.8364 62.7752 61.6267C62.9855 61.4169 63.2704 61.2992 63.5674 61.2996C63.8644 61.2999 64.1491 61.4183 64.3588 61.6286C64.5686 61.8388 64.6862 62.1238 64.6859 62.4208C64.6855 62.7178 64.5672 63.0026 64.357 63.2123C64.1467 63.4221 63.8618 63.5395 63.5648 63.5391Z" fill="#015834"/>
<path d="M94.8596 56.9031H31.2633C28.6212 56.9031 26.4794 59.045 26.4794 61.687V99.7625C26.4794 102.405 28.6212 104.546 31.2633 104.546H94.8596C97.5017 104.546 99.6435 102.405 99.6435 99.7625V61.687C99.6435 59.045 97.5017 56.9031 94.8596 56.9031Z" fill="#4B414C"/>
<path fill-rule="evenodd" clip-rule="evenodd" d="M99.6421 78.3784H72.202L68.7723 81.7792V88.5865L72.202 91.9902H99.6421V78.3784Z" fill="#EC4A2C"/>
<path opacity="0.15" d="M26.4813 95.1021V99.6593C26.4916 100.958 27.0151 102.2 27.9376 103.115C28.86 104.03 30.1067 104.543 31.4058 104.542H94.7079C96.0074 104.544 97.2547 104.031 98.1778 103.116C99.1008 102.201 99.6246 100.959 99.635 99.6593V95.1021H31.4006H26.4813Z" fill="#1F2128"/>
<path d="M32.184 59.8088C30.4497 59.8088 29.02 61.2412 29.02 62.973V71.2254C29.0127 71.3765 29.0361 71.5275 29.0889 71.6692C29.1417 71.8109 29.2227 71.9405 29.3271 72.05C29.4314 72.1595 29.5569 72.2467 29.6959 72.3063C29.8349 72.3658 29.9846 72.3965 30.1359 72.3965C30.2871 72.3965 30.4368 72.3658 30.5758 72.3063C30.7148 72.2467 30.8403 72.1595 30.9447 72.05C31.049 71.9405 31.13 71.8109 31.1828 71.6692C31.2356 71.5275 31.259 71.3765 31.2517 71.2254V62.973C31.2517 62.4391 31.6476 62.0431 32.184 62.0431H78.3663C78.6626 62.0431 78.9468 61.9255 79.1563 61.716C79.3658 61.5065 79.4835 61.2224 79.4835 60.9261C79.4835 60.6298 79.3658 60.3455 79.1563 60.1359C78.9468 59.9264 78.6626 59.8088 78.3663 59.8088H32.184Z" fill="#85797D"/>
<path d="M76.5848 89.0962C78.7422 89.0962 80.4911 87.3473 80.4911 85.1899C80.4911 83.0326 78.7422 81.2837 76.5848 81.2837C74.4274 81.2837 72.6786 83.0326 72.6786 85.1899C72.6786 87.3473 74.4274 89.0962 76.5848 89.0962Z" fill="#FFCD00"/>
<path d="M64.8727 56.9031H67.4638M72.7008 56.9031H94.8622C97.5107 56.9031 99.6435 59.036 99.6435 61.6845V99.7599C99.6435 102.411 97.5107 104.544 94.8622 104.544H31.2633C30.6347 104.545 30.012 104.422 29.431 104.182C28.8499 103.943 28.322 103.59 27.8775 103.145C27.433 102.701 27.0807 102.173 26.8408 101.592C26.6009 101.011 26.4781 100.389 26.4794 99.7599V61.687C26.4794 59.036 28.6149 56.9031 31.2633 56.9031H59.6695H72.7008Z" stroke="#373449" stroke-linecap="round" stroke-linejoin="round"/>
<path fill-rule="evenodd" clip-rule="evenodd" d="M37.548 2.14636C37.4411 2.14737 37.3355 2.16952 37.2372 2.21169C37.139 2.25385 37.0501 2.31513 36.9757 2.39193C36.9014 2.46873 36.843 2.55957 36.804 2.65912C36.765 2.75867 36.7461 2.86488 36.7486 2.97177C36.7486 3.53687 36.5064 3.79208 35.9465 3.79208C34.8449 3.76604 34.8449 5.43531 35.9465 5.41969C36.4855 5.41969 36.7486 5.56813 36.7486 6.20615C36.7225 7.30771 38.3892 7.30771 38.3762 6.20615C38.3762 5.62803 38.6444 5.41969 39.1809 5.41969C40.2798 5.44573 40.2798 3.77906 39.1809 3.79208C38.4517 3.79208 38.3736 3.37541 38.3736 2.97177C38.3736 2.51343 38.009 2.13855 37.548 2.14636ZM15.4335 28.4667C15.2868 28.4683 15.1418 28.499 15.0071 28.5569C14.8723 28.6149 14.7503 28.699 14.6482 28.8043C14.546 28.9096 14.4657 29.034 14.4119 29.1705C14.358 29.3069 14.3317 29.4528 14.3345 29.5995C14.3345 30.3755 14.0038 30.727 13.2355 30.727C11.7251 30.701 11.7251 32.9822 13.2355 32.9613C13.9751 32.9613 14.3345 33.1671 14.3345 34.0395C14.3085 35.5499 16.5897 35.5499 16.5689 34.0395C16.5689 33.2452 16.9387 32.9613 17.673 32.9613C19.1835 32.9874 19.1835 30.7036 17.673 30.727C16.6756 30.727 16.5689 30.1542 16.5689 29.5995C16.5703 29.4501 16.5418 29.3019 16.4852 29.1636C16.4286 29.0254 16.345 28.8999 16.2393 28.7944C16.1335 28.6889 16.0078 28.6054 15.8694 28.5491C15.731 28.4929 15.5828 28.4649 15.4335 28.4667Z" fill="#FFCC00"/>
<path fill-rule="evenodd" clip-rule="evenodd" d="M17.3745 46.6343C17.0359 46.6343 16.7651 46.9209 16.7703 47.2594C16.7703 47.6839 16.588 47.8766 16.1661 47.8766C15.338 47.8506 15.338 49.1135 16.1661 49.103C16.575 49.103 16.7703 49.2152 16.7703 49.6943C16.7443 50.5251 18.0099 50.5251 17.9969 49.6943C17.9969 49.2594 18.2 49.103 18.6036 49.103C19.4344 49.103 19.4344 47.8636 18.6036 47.8766C18.0568 47.8766 17.9969 47.5641 17.9969 47.2594C17.9979 47.1773 17.9825 47.0957 17.9517 47.0196C17.9208 46.9435 17.875 46.8742 17.8171 46.816C17.7591 46.7578 17.6901 46.7117 17.6141 46.6806C17.5381 46.6494 17.4566 46.6336 17.3745 46.6343Z" fill="#12141A"/>
<path fill-rule="evenodd" clip-rule="evenodd" d="M72.2388 1.70479e-05C72.1317 0.00101805 72.0258 0.0233326 71.9274 0.0656617C71.829 0.107991 71.74 0.169464 71.6656 0.246542C71.5912 0.32362 71.5328 0.414676 71.494 0.514524C71.4552 0.614373 71.4366 0.721024 71.4393 0.828125C71.4393 1.39323 71.1972 1.64844 70.6373 1.64844C69.5357 1.6224 69.5357 3.28907 70.6373 3.27605C71.1763 3.27605 71.4393 3.42449 71.4393 4.06251C71.4133 5.16147 73.08 5.16147 73.067 4.06251C73.067 3.48439 73.3378 3.27605 73.8716 3.27605C74.9732 3.30209 74.9732 1.63282 73.8716 1.64844C73.1451 1.64844 73.0644 1.23177 73.0644 0.828125C73.0657 0.719428 73.0454 0.611468 73.0046 0.51071C72.9638 0.409952 72.9034 0.318405 72.8267 0.241297C72.7501 0.164189 72.6589 0.103122 72.5584 0.061688C72.4579 0.020254 72.3501 -0.00068419 72.2414 1.70479e-05H72.2388Z" fill="#FF8E00"/>
<path fill-rule="evenodd" clip-rule="evenodd" d="M105.986 63.1006C105.645 63.1006 105.374 63.387 105.379 63.7256C105.379 64.1501 105.197 64.3429 104.775 64.3429C103.947 64.3169 103.947 65.5824 104.775 65.5694C105.181 65.5694 105.379 65.6815 105.379 66.1606C105.353 66.9914 106.619 66.9914 106.606 66.1606C106.606 65.7257 106.809 65.5694 107.213 65.5694C108.041 65.5954 108.041 64.3298 107.213 64.3455C106.666 64.3455 106.606 64.0303 106.606 63.7256C106.607 63.6434 106.592 63.562 106.561 63.4859C106.53 63.4098 106.484 63.3403 106.426 63.2821C106.368 63.2239 106.299 63.1779 106.223 63.1467C106.147 63.1155 106.066 63.0999 105.983 63.1006H105.986Z" fill="#12141A"/>
<path fill-rule="evenodd" clip-rule="evenodd" d="M116.864 47.0552C116.717 47.0566 116.571 47.0871 116.436 47.145C116.301 47.203 116.178 47.2872 116.076 47.3928C115.973 47.4984 115.893 47.6234 115.839 47.7603C115.785 47.8973 115.759 48.0436 115.762 48.1907C115.762 48.9668 115.432 49.3158 114.663 49.3158C113.153 49.2897 113.153 51.5735 114.663 51.5501C115.403 51.5501 115.762 51.7584 115.762 52.6282C115.736 54.1386 118.017 54.1386 117.997 52.6282C117.997 51.8365 118.369 51.5501 119.101 51.5501C120.611 51.5761 120.611 49.2949 119.101 49.3158C118.106 49.3158 117.997 48.748 117.997 48.1907C117.998 48.0414 117.97 47.8931 117.914 47.7547C117.858 47.6164 117.774 47.4906 117.669 47.3849C117.563 47.2791 117.438 47.1954 117.3 47.1388C117.161 47.0822 117.013 47.0538 116.864 47.0552ZM11.4601 86.1177C11.3132 86.1194 11.1681 86.1502 11.0331 86.2083C10.8982 86.2664 10.7761 86.3507 10.6739 86.4563C10.5717 86.5619 10.4914 86.6867 10.4378 86.8234C10.3841 86.9602 10.3581 87.1063 10.3612 87.2532C10.3612 88.0267 10.0304 88.3782 9.26221 88.3782C7.75179 88.3522 7.75179 90.6358 9.26221 90.6124C10.0018 90.6124 10.3612 90.8209 10.3612 91.6907C10.3351 93.2011 12.6164 93.2011 12.5955 91.6907C12.5955 90.899 12.9653 90.6124 13.6997 90.6124C15.2101 90.6384 15.2101 88.3574 13.6997 88.3782C12.7049 88.3782 12.5955 87.8079 12.5955 87.2532C12.5973 87.1036 12.5691 86.9553 12.5127 86.8168C12.4562 86.6782 12.3727 86.5522 12.2669 86.4464C12.1611 86.3406 12.0352 86.2571 11.8967 86.2007C11.7581 86.1442 11.6097 86.116 11.4601 86.1177Z" fill="#FF8E00"/>
<path fill-rule="evenodd" clip-rule="evenodd" d="M110.424 27.8831C110.317 27.8841 110.211 27.9064 110.113 27.9488C110.014 27.9911 109.925 28.0526 109.851 28.1296C109.776 28.2067 109.718 28.2978 109.679 28.3976C109.64 28.4975 109.622 28.6041 109.625 28.7112C109.625 29.2737 109.382 29.5315 108.823 29.5315C107.721 29.5055 107.721 31.1722 108.823 31.1591C109.362 31.1591 109.625 31.3075 109.625 31.9429C109.599 33.0445 111.265 33.0445 111.252 31.9429C111.252 31.3674 111.523 31.1591 112.057 31.1591C113.156 31.1852 113.156 29.5159 112.057 29.5315C111.33 29.5315 111.25 29.1149 111.25 28.7112C111.25 28.2503 110.885 27.8779 110.424 27.8831ZM115.632 85.1746C115.525 85.1756 115.419 85.1981 115.321 85.2404C115.223 85.2827 115.134 85.3442 115.059 85.4213C114.985 85.4984 114.926 85.5894 114.888 85.6893C114.849 85.7891 114.83 85.8956 114.833 86.0027C114.833 86.5652 114.591 86.8232 114.031 86.8232C112.929 86.7971 112.929 88.4638 114.031 88.4508C114.57 88.4508 114.833 88.5993 114.833 89.2347C114.807 90.3363 116.474 90.3363 116.461 89.2347C116.461 88.6566 116.731 88.4508 117.265 88.4508C118.364 88.4768 118.364 86.8076 117.265 86.8232C116.539 86.8232 116.458 86.4064 116.458 86.0027C116.458 85.5418 116.093 85.1694 115.632 85.1746Z" fill="#FFCC00"/>
<path d="M119.234 105.843C119.234 91.0789 113.369 76.9191 102.929 66.4791C92.4891 56.0391 78.3294 50.1738 63.565 50.1738C48.8006 50.1738 34.6409 56.0391 24.2009 66.4791C13.7609 76.9191 7.89575 91.0789 7.89575 105.843" fill="#E6E6DC"/>
<path d="M116.906 104.544H126.064M1.06445 104.544H10.2103H1.06445ZM15.4082 104.544H103.965H15.4082ZM109.132 104.544H111.778H109.132Z" stroke="#12141A" stroke-linecap="round" stroke-linejoin="round"/>
<path d="M28.0798 24.8189L26.4626 25.2511L24.8455 25.686C24.5602 25.7639 24.2931 25.8977 24.0596 26.0792C23.8262 26.2607 23.6309 26.4865 23.4849 26.7437C23.339 27.001 23.2454 27.2845 23.2094 27.578C23.1734 27.8716 23.1957 28.1694 23.2751 28.4543L39.6267 89.4726C39.7001 89.7591 39.8294 90.0282 40.0071 90.2645C40.1848 90.5009 40.4075 90.6997 40.6623 90.8498C40.9171 90.9998 41.199 91.098 41.4919 91.1387C41.7848 91.1795 42.0828 91.162 42.3689 91.0872L68.2413 84.155C68.5268 84.077 68.7941 83.9431 69.0278 83.7614C69.2615 83.5797 69.4569 83.3536 69.6029 83.0961C69.7488 82.8385 69.8424 82.5548 69.8782 82.261C69.914 81.9671 69.8914 81.6689 69.8116 81.3839L53.46 20.3657C53.3866 20.0793 53.2573 19.8102 53.0796 19.5739C52.9019 19.3375 52.6793 19.1386 52.4244 18.9886C52.1696 18.8386 51.8877 18.7404 51.5948 18.6997C51.302 18.6589 51.0039 18.6764 50.7178 18.7512L49.1033 19.186L47.4835 19.6184L45.8689 20.0532L44.2491 20.4856L42.6345 20.9177L41.0147 21.3528L39.4001 21.7849L28.0798 24.8189ZM34.5486 23.087L32.9314 23.5194L34.5486 23.087Z" fill="#3B9C00"/>
<path d="M34.5486 23.087L32.9314 23.5194M28.0798 24.8189L26.4626 25.2511L24.8455 25.686C24.5602 25.7639 24.2931 25.8977 24.0596 26.0792C23.8262 26.2607 23.6309 26.4865 23.4849 26.7437C23.339 27.001 23.2454 27.2845 23.2094 27.578C23.1734 27.8716 23.1957 28.1694 23.2751 28.4543L39.6267 89.4727C39.7001 89.7591 39.8294 90.0282 40.0071 90.2645C40.1848 90.5009 40.4075 90.6997 40.6623 90.8498C40.9171 90.9998 41.199 91.098 41.4919 91.1387C41.7848 91.1795 42.0828 91.162 42.3689 91.0872L68.2413 84.155C68.5268 84.077 68.7941 83.9431 69.0278 83.7614C69.2615 83.5797 69.4569 83.3536 69.6029 83.0961C69.7488 82.8385 69.8424 82.5548 69.8782 82.261C69.914 81.9671 69.8914 81.6689 69.8116 81.3839L53.46 20.3657C53.3866 20.0793 53.2573 19.8102 53.0796 19.5739C52.9019 19.3375 52.6793 19.1386 52.4244 18.9886C52.1696 18.8386 51.8877 18.7404 51.5948 18.6997C51.302 18.6589 51.0039 18.6764 50.7178 18.7512L49.1033 19.186L47.4835 19.6184L45.8689 20.0532L44.2491 20.4856L42.6345 20.9177L41.0147 21.3528L39.4001 21.7849L28.0798 24.8189Z" stroke="#12141A" stroke-linecap="round" stroke-linejoin="round"/>
<path d="M48.6271 61.1993C50.6297 60.6582 52.3357 59.3446 53.3708 57.5469C54.4059 55.7492 54.6854 53.6143 54.1479 51.6107C53.8828 50.6204 53.4248 49.6922 52.8001 48.8793C52.1755 48.0663 51.3965 47.3846 50.5078 46.8734C49.6192 46.3621 48.6384 46.0315 47.6216 45.9001C46.6049 45.7688 45.5722 45.8394 44.5828 46.108C43.5921 46.3705 42.6629 46.8259 41.8486 47.4481C41.0342 48.0703 40.3506 48.8472 39.837 49.7341C39.3234 50.621 38.9899 51.6005 38.8555 52.6165C38.7212 53.6326 38.7887 54.6651 39.0542 55.655C39.5898 57.6589 40.8986 59.3685 42.6934 60.4084C44.4881 61.4483 46.6221 61.7337 48.6271 61.2018V61.1993Z" fill="#CBE2A9"/>
<path d="M41.7514 54.9456C41.7332 54.8745 41.7292 54.8004 41.7398 54.7277C41.7503 54.655 41.7752 54.5852 41.813 54.5222C41.8508 54.4592 41.9008 54.4044 41.9599 54.3609C42.0191 54.3173 42.0863 54.286 42.1577 54.2687L42.6264 54.1411C42.5665 53.0265 43.202 51.9692 44.2775 51.6801C45.5301 51.3442 46.7931 52.2088 47.1421 53.5108C47.353 54.2973 48.0379 54.7139 48.6395 54.5524C49.241 54.3909 49.6238 53.6879 49.4155 52.9014C49.2046 52.115 48.5223 51.6983 47.9181 51.8597C47.1889 52.055 46.8973 50.9665 47.6317 50.7816C48.6915 50.4977 49.6733 51.1411 50.1759 52.1202L50.7671 51.9613C51.4962 51.766 51.7879 52.8545 51.0535 53.0394L50.465 53.1956C50.5171 54.2972 49.991 55.3441 48.9285 55.628C47.7931 55.9327 46.5014 55.4144 46.09 53.8728L46.0744 53.8206L46.0665 53.7947C45.8582 53.0057 45.1733 52.5915 44.5691 52.753C43.9754 52.9092 43.6004 53.5967 43.7905 54.3701L43.8113 54.43C44.0405 55.193 44.6968 55.602 45.2905 55.4431C46.0197 55.2478 46.3113 56.3364 45.577 56.5213C44.504 56.8077 43.4259 56.2087 42.9207 55.2139L42.4494 55.3389C42.3774 55.3589 42.3021 55.3645 42.228 55.3551C42.1538 55.3457 42.0823 55.3215 42.0176 55.2842C41.9528 55.2469 41.8962 55.1971 41.851 55.1376C41.8057 55.0782 41.7728 55.0102 41.754 54.9378L41.7514 54.9456Z" fill="#015834"/>
<path d="M42.2726 37.479C43.1305 37.2466 43.8612 36.6834 44.3044 35.9131C44.7477 35.1427 44.8674 34.2281 44.6372 33.3696C44.5236 32.9452 44.3274 32.5473 44.0598 32.1988C43.7921 31.8504 43.4583 31.5581 43.0775 31.339C42.6967 31.1198 42.2764 30.9778 41.8407 30.9214C41.4049 30.865 40.9623 30.8952 40.5382 31.0103C40.1137 31.1227 39.7155 31.3179 39.3665 31.5845C39.0175 31.8512 38.7245 32.1841 38.5044 32.5641C38.2842 32.9442 38.1412 33.3639 38.0836 33.7993C38.026 34.2347 38.0548 34.6771 38.1684 35.1014C38.6502 36.8904 40.4862 37.9582 42.2726 37.479Z" fill="#CBE2A9"/>
<path d="M41.6944 35.323C41.8433 35.2914 41.9841 35.2297 42.1083 35.1418C42.2325 35.0539 42.3375 34.9415 42.4169 34.8117C42.4963 34.6819 42.5483 34.5372 42.5699 34.3865C42.5915 34.2359 42.5822 34.0825 42.5425 33.9356C42.5028 33.7887 42.4336 33.6515 42.3391 33.5322C42.2445 33.4129 42.1267 33.3142 41.9927 33.242C41.8588 33.1698 41.7115 33.1256 41.5599 33.1123C41.4083 33.0989 41.2556 33.1165 41.1111 33.1641C40.8315 33.2476 40.5955 33.437 40.4534 33.6919C40.3113 33.9468 40.2744 34.247 40.3504 34.5288C40.4264 34.8105 40.6095 35.0515 40.8605 35.2003C41.1115 35.3491 41.4107 35.3941 41.6944 35.3256V35.323Z" fill="#015834"/>
<path d="M52.6718 76.2902C53.5296 76.0578 54.2603 75.4946 54.7036 74.7243C55.1469 73.9539 55.2665 73.0393 55.0364 72.1808C54.9228 71.7566 54.7267 71.3589 54.4592 71.0107C54.1917 70.6624 53.8582 70.3702 53.4777 70.1511C53.0972 69.9319 52.6771 69.79 52.2417 69.7334C51.8062 69.6768 51.3639 69.7068 50.94 69.8214C50.5154 69.9339 50.1173 70.1289 49.7682 70.3955C49.4192 70.6622 49.1263 70.9952 48.9061 71.3753C48.686 71.7553 48.543 72.1749 48.4854 72.6103C48.4277 73.0457 48.4565 73.4881 48.5702 73.9124C49.0494 75.7014 50.8879 76.7668 52.6718 76.2902Z" fill="#CBE2A9"/>
<path d="M52.093 74.1318C52.2396 74.0981 52.3779 74.0349 52.4997 73.9465C52.6215 73.8581 52.7241 73.7461 52.8016 73.6172C52.8791 73.4882 52.9299 73.345 52.9507 73.196C52.9716 73.0469 52.9623 72.8953 52.9232 72.7499C52.8842 72.6046 52.8163 72.4685 52.7235 72.35C52.6307 72.2316 52.5151 72.1332 52.3834 72.0604C52.2517 71.9877 52.1066 71.9421 51.957 71.9266C51.8073 71.9111 51.656 71.9259 51.5122 71.9702C51.2351 72.0555 51.0019 72.245 50.8617 72.4988C50.7214 72.7526 50.6851 73.051 50.7604 73.3311C50.8356 73.6111 51.0165 73.8509 51.2651 74.0002C51.5136 74.1496 51.8104 74.1969 52.093 74.1318Z" fill="#015834"/>
<path d="M28.2751 32.018C29.0255 31.8171 29.6607 31.3092 30.0411 30.6059C30.4215 29.9027 30.516 29.0618 30.3038 28.268L47.283 23.7185C47.4958 24.5119 47.9978 25.1929 48.6785 25.6119C49.3592 26.0308 50.163 26.1536 50.9132 25.953L64.8116 77.8228C64.0618 78.0244 63.4272 78.5324 63.0473 79.2356C62.6674 79.9387 62.5733 80.7793 62.7856 81.5727L45.8064 86.122C45.701 85.7289 45.5234 85.3593 45.2838 85.0342C45.0442 84.7092 44.7472 84.4352 44.4099 84.2277C44.0725 84.0202 43.7014 83.8833 43.3177 83.825C42.934 83.7666 42.5452 83.7882 42.1736 83.8879L28.2751 32.018Z" fill="#8BBE3E"/>
<path d="M48.2521 61.2991C50.5411 60.6806 52.4911 59.1789 53.6737 57.1237C54.8564 55.0686 55.1749 52.628 54.5594 50.3382C54.2562 49.2067 53.7327 48.1463 53.0189 47.2174C52.3051 46.2886 51.415 45.5097 50.3997 44.9254C49.3844 44.3412 48.2637 43.963 47.102 43.8127C45.9403 43.6623 44.7603 43.7427 43.6297 44.0492C42.4976 44.3494 41.4358 44.87 40.5053 45.5812C39.5747 46.2925 38.7936 47.1804 38.2067 48.194C37.6199 49.2076 37.2387 50.327 37.0852 51.4882C36.9317 52.6493 37.0087 53.8293 37.312 54.9606C37.9239 57.2508 39.4197 59.2047 41.4708 60.3931C43.522 61.5815 45.9609 61.9072 48.2521 61.2991Z" fill="#CBE2A9"/>
<path d="M40.3949 54.1514C40.3743 54.0702 40.3699 53.9856 40.3821 53.9027C40.3942 53.8197 40.4227 53.7401 40.4657 53.6682C40.5088 53.5963 40.5657 53.5337 40.6331 53.4839C40.7005 53.434 40.7771 53.3981 40.8585 53.378L41.3975 53.2346C41.3272 51.9586 42.0538 50.7504 43.283 50.4222C44.7152 50.0368 46.158 51.0238 46.5564 52.5108C46.796 53.4118 47.5772 53.8857 48.2673 53.7008C48.9548 53.5159 49.3923 52.7164 49.1527 51.8154C48.9106 50.917 48.1319 50.4405 47.4418 50.6254C46.6085 50.8493 46.2777 49.6045 47.1137 49.3935C48.3246 49.068 49.447 49.8023 50.0251 50.9221L50.697 50.74C51.5303 50.5186 51.8637 51.7634 51.0277 51.9743L50.3507 52.1565C50.4106 53.4143 49.8116 54.6097 48.6007 54.9352C47.2986 55.2815 45.8246 54.6905 45.3507 52.9301L45.335 52.8675L45.3272 52.8414C45.0876 51.9404 44.3064 51.4665 43.6163 51.6514C42.9392 51.8337 42.5069 52.615 42.7283 53.5004L42.7491 53.5706C43.0095 54.443 43.7621 54.9091 44.4418 54.7268C45.2751 54.5029 45.6085 55.7477 44.7699 55.9586C43.5408 56.2894 42.309 55.6045 41.7335 54.4665L41.1944 54.6097C41.1122 54.6328 41.0261 54.6394 40.9413 54.6287C40.8565 54.6181 40.7747 54.5905 40.7007 54.5478C40.6267 54.5051 40.562 54.4481 40.5104 54.38C40.4587 54.3119 40.4213 54.2342 40.4001 54.1514H40.3949Z" fill="#015834"/>
<path d="M41.6087 36.5026C42.4672 36.2703 43.1983 35.7067 43.6417 34.9357C44.085 34.1648 44.2043 33.2494 43.9733 32.3906C43.8595 31.9663 43.6631 31.5687 43.3953 31.2206C43.1275 30.8724 42.7937 30.5805 42.4129 30.3616C42.0322 30.1427 41.6119 30.0009 41.1763 29.9447C40.7407 29.8885 40.2983 29.9188 39.8744 30.0339C39.4501 30.1464 39.0522 30.3414 38.7034 30.6078C38.3546 30.8743 38.0617 31.2069 37.8416 31.5866C37.6215 31.9664 37.4784 32.3859 37.4206 32.821C37.3628 33.2561 37.3913 33.6984 37.5046 34.1224C37.9863 35.9141 39.8223 36.9792 41.6087 36.5026Z" fill="#CBE2A9"/>
<path d="M41.0305 34.351C41.1771 34.3173 41.3154 34.2543 41.4372 34.1659C41.5589 34.0775 41.6616 33.9655 41.7391 33.8365C41.8166 33.7076 41.8673 33.5642 41.8882 33.4152C41.9091 33.2662 41.8998 33.1145 41.8607 32.9692C41.8217 32.8238 41.7538 32.6879 41.661 32.5694C41.5682 32.4509 41.4525 32.3524 41.3208 32.2797C41.1891 32.2069 41.0441 32.1613 40.8945 32.1458C40.7448 32.1303 40.5935 32.1453 40.4497 32.1895C40.1726 32.2749 39.9394 32.4644 39.7992 32.7182C39.6589 32.972 39.6226 33.2702 39.6978 33.5503C39.7731 33.8303 39.954 34.0702 40.2026 34.2196C40.4511 34.3689 40.7479 34.4161 41.0305 34.351Z" fill="#015834"/>
<path d="M52.0069 75.3138C52.8659 75.082 53.5977 74.5186 54.0415 73.7475C54.4854 72.9765 54.605 72.061 54.3741 71.2019C54.2603 70.7776 54.0639 70.3799 53.7961 70.0317C53.5284 69.6835 53.1945 69.3917 52.8137 69.1728C52.433 68.9538 52.0127 68.8123 51.5771 68.756C51.1415 68.6998 50.6991 68.73 50.2752 68.845C49.8509 68.9575 49.453 69.1524 49.1042 69.4188C48.7554 69.6853 48.4625 70.0182 48.2424 70.3979C48.0223 70.7777 47.8793 71.1969 47.8214 71.632C47.7636 72.0671 47.7921 72.5094 47.9054 72.9334C48.3846 74.7251 50.2231 75.7904 52.0069 75.3138Z" fill="#CBE2A9"/>
<path d="M51.4287 73.1541C51.5782 73.1233 51.7199 73.0621 51.845 72.9745C51.97 72.8869 52.0759 72.7748 52.156 72.6448C52.2361 72.5149 52.2888 72.37 52.3109 72.2189C52.3329 72.0678 52.3238 71.9136 52.2841 71.7662C52.2445 71.6188 52.1751 71.4812 52.0802 71.3615C51.9854 71.2419 51.8671 71.1429 51.7325 71.0707C51.598 70.9984 51.4502 70.9546 51.2981 70.9416C51.1459 70.9286 50.9928 70.9466 50.848 70.995C50.5683 71.0785 50.3324 71.2681 50.1903 71.523C50.0482 71.7779 50.0112 72.078 50.0873 72.3597C50.1633 72.6414 50.3463 72.8826 50.5974 73.0314C50.8484 73.1802 51.1476 73.2252 51.4313 73.1567L51.4287 73.1541Z" fill="#015834"/>
<path d="M87.5025 89.4756L103.853 28.4563C104.177 27.2462 103.474 26.0068 102.284 25.6878L76.4101 18.7549C75.2195 18.4359 73.9916 19.1581 73.6674 20.3682L57.3173 81.3875C56.993 82.5975 57.6953 83.8371 58.8859 84.1561L84.7597 91.089C85.9502 91.408 87.1782 90.6856 87.5025 89.4756Z" fill="#3B9C00" stroke="#12141A" stroke-linecap="round" stroke-linejoin="round"/>
<path d="M78.5022 61.1993C76.4996 60.6582 74.7935 59.3446 73.7584 57.5469C72.7234 55.7492 72.4439 53.6143 72.9813 51.6107C73.2465 50.6204 73.7045 49.6922 74.3291 48.8793C74.9538 48.0663 75.7328 47.3846 76.6214 46.8734C77.5101 46.3621 78.4909 46.0315 79.5076 45.9001C80.5244 45.7688 81.5571 45.8394 82.5465 46.108C83.5372 46.3705 84.4663 46.8259 85.2807 47.4481C86.0951 48.0703 86.7787 48.8472 87.2923 49.7341C87.8059 50.621 88.1394 51.6005 88.2737 52.6165C88.4081 53.6326 88.3406 54.6651 88.0751 55.655C87.5395 57.6589 86.2306 59.3685 84.4359 60.4084C82.6411 61.4483 80.5071 61.7337 78.5022 61.2018V61.1993Z" fill="#CBE2A9"/>
<path d="M85.377 54.9456C85.3953 54.8745 85.3992 54.8004 85.3887 54.7277C85.3781 54.655 85.3532 54.5852 85.3154 54.5222C85.2776 54.4592 85.2277 54.4044 85.1685 54.3609C85.1093 54.3173 85.0421 54.286 84.9707 54.2687L84.4994 54.1411C84.5619 53.0265 83.9264 51.9692 82.8509 51.6801C81.5957 51.3442 80.3353 52.2088 79.9863 53.5108C79.7754 54.2973 79.0905 54.7139 78.489 54.5524C77.8848 54.3909 77.502 53.6879 77.7129 52.9014C77.9238 52.115 78.6061 51.6983 79.2103 51.8597C79.9395 52.055 80.2285 50.9665 79.4968 50.7816C78.4369 50.4977 77.4551 51.1411 76.9499 52.1202L76.3614 51.9613C75.6322 51.766 75.3405 52.8545 76.0723 53.0394L76.6634 53.1956C76.6113 54.2972 77.1374 55.3441 78.1973 55.628C79.3327 55.9327 80.627 55.4144 81.0384 53.8728L81.0541 53.8206L81.0619 53.7947C81.2702 53.0057 81.9551 52.5915 82.5593 52.753C83.153 52.9092 83.528 53.5967 83.3353 54.3701C83.3283 54.3898 83.3222 54.4098 83.3171 54.43C83.0879 55.193 82.4317 55.602 81.8379 55.4431C81.1087 55.2478 80.8171 56.3364 81.5488 56.5213C82.6244 56.8077 83.7025 56.2087 84.2051 55.2139L84.6791 55.3389C84.7511 55.3589 84.8263 55.3645 84.9005 55.3551C84.9746 55.3457 85.0461 55.3215 85.1108 55.2842C85.1756 55.2469 85.2322 55.1971 85.2775 55.1376C85.3227 55.0782 85.3557 55.0102 85.3744 54.9378L85.377 54.9456Z" fill="#015834"/>
<path d="M84.8561 37.4793C83.9982 37.2469 83.2676 36.6837 82.8243 35.9134C82.381 35.143 82.2614 34.2284 82.4915 33.3699C82.6051 32.9457 82.8012 32.548 83.0687 32.1997C83.3362 31.8515 83.6697 31.5595 84.0502 31.3403C84.4307 31.1212 84.8507 30.9792 85.2862 30.9226C85.7216 30.866 86.164 30.8959 86.5879 31.0105C88.3743 31.4897 89.4368 33.3126 88.9577 35.1016C88.7286 35.9605 88.168 36.6933 87.3989 37.1391C86.6299 37.585 85.7153 37.7074 84.8561 37.4793Z" fill="#CBE2A9"/>
<path d="M85.4346 35.3233C85.285 35.2925 85.1434 35.2314 85.0183 35.1438C84.8932 35.0563 84.7874 34.944 84.7073 34.814C84.6271 34.6841 84.5744 34.5391 84.5524 34.388C84.5304 34.237 84.5395 34.083 84.5791 33.9355C84.6188 33.7881 84.6882 33.6503 84.783 33.5307C84.8779 33.4111 84.9962 33.3121 85.1307 33.2398C85.2652 33.1676 85.4131 33.1237 85.5652 33.1108C85.7173 33.0978 85.8705 33.1159 86.0153 33.1643C86.2924 33.2497 86.5257 33.4392 86.6659 33.693C86.8061 33.9468 86.8424 34.245 86.7672 34.5251C86.692 34.8051 86.511 35.045 86.2625 35.1944C86.0139 35.3437 85.7172 35.3909 85.4346 35.3258V35.3233Z" fill="#015834"/>
<path d="M74.4577 76.2907C73.5994 76.0589 72.8681 75.4958 72.4243 74.7254C71.9805 73.955 71.8605 73.0401 72.0906 72.1813C72.2041 71.7568 72.4003 71.359 72.668 71.0105C72.9356 70.662 73.2694 70.3698 73.6502 70.1506C74.031 69.9314 74.4513 69.7896 74.8871 69.7332C75.3229 69.6768 75.7655 69.7069 76.1895 69.8219C77.976 70.3011 79.0385 72.1238 78.5593 73.9128C78.3296 74.7714 77.7689 75.5039 77 75.9496C76.2311 76.3953 75.3169 76.5181 74.4577 76.2907Z" fill="#CBE2A9"/>
<path d="M75.0328 74.13C74.8875 74.0949 74.7506 74.031 74.6303 73.9422C74.51 73.8533 74.4087 73.7412 74.3325 73.6125C74.2562 73.4838 74.2065 73.3411 74.1862 73.1929C74.166 73.0447 74.1756 72.8941 74.2146 72.7497C74.2536 72.6053 74.3211 72.4703 74.4131 72.3524C74.5052 72.2345 74.6199 72.1362 74.7505 72.0634C74.8812 71.9906 75.0251 71.9446 75.1738 71.9283C75.3224 71.912 75.4729 71.9256 75.6162 71.9684C75.8958 72.0519 76.1318 72.2415 76.2738 72.4964C76.4159 72.7513 76.4529 73.0513 76.3768 73.3331C76.3008 73.6148 76.1178 73.856 75.8667 74.0048C75.6157 74.1536 75.3165 74.1985 75.0328 74.13Z" fill="#015834"/>
<path d="M98.8505 32.018C98.1007 31.8165 97.4661 31.3083 97.0862 30.6051C96.7063 29.902 96.6122 29.0614 96.8245 28.268L79.8453 23.7185C79.6324 24.5119 79.1305 25.1929 78.4498 25.6119C77.7691 26.0308 76.9653 26.1536 76.2151 25.953L62.3141 77.8228C62.6858 77.922 63.0333 78.0976 63.3366 78.3397C63.6399 78.5819 63.8931 78.8857 64.0817 79.234C64.2703 79.5822 64.3907 79.9679 64.4359 80.3692C64.4811 80.7704 64.4504 81.1795 64.3453 81.5727L81.3245 86.122C81.5374 85.3287 82.0393 84.648 82.72 84.229C83.4007 83.81 84.2045 83.6873 84.9547 83.8879L98.8531 32.018H98.8505Z" fill="#8BBE3E"/>
<path d="M78.8767 61.2984C76.5877 60.6799 74.6377 59.1782 73.4551 57.123C72.2725 55.0679 71.9539 52.6273 72.5695 50.3375C72.8727 49.2062 73.3961 48.146 74.1097 47.2174C74.8233 46.2887 75.7131 45.51 76.7281 44.9258C77.7432 44.3416 78.8635 43.9635 80.0249 43.8129C81.1864 43.6623 82.3661 43.7424 83.4965 44.0485C84.6289 44.3484 85.6909 44.8689 86.6218 45.5801C87.5526 46.2912 88.334 47.1789 88.9211 48.1925C89.5083 49.2061 89.8896 50.3257 90.0433 51.487C90.197 52.6482 90.1201 53.8285 89.8168 54.9599C89.2049 57.2501 87.7091 59.204 85.658 60.3924C83.6069 61.5808 81.168 61.9065 78.8767 61.2984Z" fill="#CBE2A9"/>
<path d="M86.7341 54.1514C86.7548 54.0702 86.7591 53.9856 86.747 53.9027C86.7348 53.8197 86.7064 53.7401 86.6633 53.6682C86.6202 53.5963 86.5633 53.5337 86.4959 53.4839C86.4285 53.434 86.3519 53.3981 86.2706 53.378L85.7315 53.2346C85.8018 51.9586 85.0752 50.7504 83.8461 50.4222C82.4138 50.0368 80.9711 51.0238 80.5726 52.5108C80.3305 53.4118 79.5492 53.8857 78.8617 53.7008C78.1742 53.5159 77.7341 52.7164 77.9763 51.8154C78.2185 50.917 78.9971 50.4405 79.6846 50.6254C80.518 50.8493 80.8513 49.6045 80.0154 49.3935C78.8044 49.068 77.682 49.8023 77.1039 50.9221L76.4294 50.74C75.5961 50.5186 75.2654 51.7634 76.1013 51.9743L76.7784 52.1565C76.7185 53.4143 77.3174 54.6097 78.5284 54.9352C79.8305 55.2815 81.3044 54.6905 81.7758 52.9301C81.7862 52.904 81.7888 52.8883 81.794 52.8675L81.8018 52.8414C82.0414 51.9404 82.8226 51.4665 83.5128 51.6514C84.1898 51.8337 84.6221 52.615 84.4008 53.5004C84.3926 53.5235 84.3857 53.5469 84.3799 53.5706C84.1195 54.443 83.3643 54.9091 82.6872 54.7268C81.8539 54.5029 81.5206 55.7477 82.3565 55.9586C83.5857 56.2894 84.82 55.6045 85.3956 54.4665L85.9346 54.6097C86.0169 54.6328 86.1029 54.6394 86.1877 54.6287C86.2725 54.6181 86.3543 54.5905 86.4283 54.5478C86.5023 54.5051 86.5671 54.4481 86.6187 54.38C86.6703 54.3119 86.7078 54.2342 86.7289 54.1514H86.7341Z" fill="#015834"/>
<path d="M85.5174 36.5026C84.659 36.2703 83.9278 35.7067 83.4845 34.9357C83.0411 34.1648 82.9218 33.2494 83.1528 32.3906C83.2667 31.9663 83.4631 31.5687 83.7308 31.2206C83.9986 30.8724 84.3324 30.5805 84.7132 30.3616C85.094 30.1427 85.5142 30.0009 85.9498 29.9447C86.3855 29.8885 86.8279 29.9188 87.2518 30.0339C89.0356 30.5104 90.1007 32.336 89.6216 34.1224C89.3925 34.9814 88.832 35.7145 88.063 36.1607C87.2941 36.607 86.3795 36.7299 85.52 36.5026H85.5174Z" fill="#CBE2A9"/>
<path d="M86.0953 34.3492C85.95 34.3141 85.8131 34.2502 85.6928 34.1614C85.5725 34.0725 85.4712 33.9604 85.395 33.8317C85.3187 33.7031 85.269 33.5604 85.2487 33.4123C85.2285 33.2641 85.2381 33.1133 85.2771 32.969C85.3161 32.8246 85.3836 32.6895 85.4756 32.5716C85.5677 32.4537 85.6824 32.3554 85.8131 32.2826C85.9437 32.2098 86.0876 32.1638 86.2363 32.1475C86.3849 32.1312 86.5354 32.1449 86.6787 32.1877C86.9583 32.2712 87.1943 32.4605 87.3363 32.7154C87.4784 32.9703 87.5154 33.2707 87.4393 33.5524C87.3633 33.8342 87.1803 34.0752 86.9292 34.224C86.6782 34.3728 86.379 34.4177 86.0953 34.3492Z" fill="#015834"/>
<path d="M75.1222 75.3138C74.2633 75.082 73.5315 74.5186 73.0876 73.7475C72.6438 72.9765 72.5241 72.061 72.755 71.2019C72.8688 70.7776 73.0653 70.3799 73.333 70.0317C73.6008 69.6835 73.9346 69.3917 74.3154 69.1728C74.6962 68.9538 75.1164 68.8123 75.552 68.756C75.9876 68.6998 76.4301 68.73 76.854 68.845C78.6378 69.3216 79.7029 71.1444 79.2238 72.9334C78.9947 73.7924 78.4341 74.5255 77.6652 74.9717C76.8963 75.418 75.9817 75.5411 75.1222 75.3138Z" fill="#CBE2A9"/>
<path d="M75.6999 73.1541C75.5504 73.1233 75.4087 73.0621 75.2837 72.9745C75.1586 72.8869 75.0527 72.7748 74.9726 72.6448C74.8925 72.5149 74.8398 72.37 74.8178 72.2189C74.7957 72.0678 74.8048 71.9136 74.8445 71.7662C74.8841 71.6188 74.9535 71.4812 75.0484 71.3615C75.1432 71.2419 75.2616 71.1429 75.3961 71.0707C75.5306 70.9984 75.6784 70.9546 75.8306 70.9416C75.9827 70.9286 76.1359 70.9466 76.2807 70.995C76.5603 71.0785 76.7963 71.2681 76.9383 71.523C77.0804 71.7779 77.1174 72.078 77.0413 72.3597C76.9653 72.6414 76.7823 72.8826 76.5312 73.0314C76.2802 73.1802 75.981 73.2252 75.6973 73.1567L75.6999 73.1541Z" fill="#015834"/>
<path d="M79.1896 34.249V36.861V34.249ZM79.1896 42.0745V76.2438C79.1923 76.5392 79.1367 76.8323 79.0259 77.1062C78.9152 77.3801 78.7514 77.6294 78.5441 77.8399C78.3367 78.0504 78.0899 78.2181 77.8177 78.3329C77.5455 78.4478 77.2532 78.5077 76.9578 78.5094H50.1713C49.8759 78.5077 49.5837 78.4478 49.3114 78.3329C49.0392 78.2181 48.7924 78.0504 48.585 77.8399C48.3777 77.6294 48.2139 77.3801 48.1032 77.1062C47.9924 76.8323 47.9368 76.5392 47.9396 76.2438V13.0719C47.9396 11.8141 48.9343 10.8037 50.1713 10.8037H76.9578C78.1948 10.8037 79.1896 11.8141 79.1896 13.0693V29.0381" fill="#3B9C00"/>
<path d="M79.1896 42.0745V76.2438C79.1923 76.5392 79.1367 76.8323 79.0259 77.1062C78.9152 77.3801 78.7514 77.6294 78.5441 77.8399C78.3367 78.0504 78.0899 78.2181 77.8177 78.3329C77.5455 78.4478 77.2532 78.5077 76.9578 78.5094H50.1713C49.8759 78.5077 49.5837 78.4478 49.3114 78.3329C49.0392 78.2181 48.7924 78.0504 48.585 77.8399C48.3777 77.6294 48.2139 77.3801 48.1032 77.1062C47.9924 76.8323 47.9368 76.5392 47.9396 76.2438V13.0719C47.9396 11.8141 48.9343 10.8037 50.1713 10.8037H76.9578C78.1948 10.8037 79.1896 11.8141 79.1896 13.0693V29.0381M79.1896 34.249V36.861V34.249Z" stroke="#12141A" stroke-linecap="round" stroke-linejoin="round"/>
<path d="M63.177 51.2644C58.8645 51.2644 55.3645 47.7488 55.3645 43.4259C55.3648 42.4012 55.5673 41.3868 55.9603 40.4406C56.3534 39.4943 56.9293 38.6349 57.655 37.9116C58.3808 37.1883 59.2421 36.6152 60.1896 36.2253C61.1372 35.8354 62.1523 35.6364 63.177 35.6394C67.4868 35.6394 70.9895 39.103 70.9895 43.4259C70.9915 45.5009 70.1699 47.4919 68.7051 48.9616C67.2403 50.4313 65.252 51.2596 63.177 51.2644Z" fill="#CBE2A9"/>
<path d="M68.1999 43.4463C68.1996 43.3725 68.1846 43.2996 68.1557 43.2317C68.1269 43.1638 68.0848 43.1024 68.0319 43.051C67.9791 42.9996 67.9165 42.9592 67.8479 42.9322C67.7792 42.9053 67.7059 42.8924 67.6322 42.8941H67.1426C66.9135 41.8003 66.028 40.9437 64.9135 40.9437C63.6166 40.9437 62.6218 42.1051 62.6218 43.4541C62.6218 44.2666 62.0671 44.8447 61.4421 44.8447C60.8171 44.8447 60.2702 44.2665 60.2702 43.4514C60.2702 42.6389 60.8171 42.0607 61.4421 42.0607C62.1973 42.0607 62.1973 40.9333 61.4421 40.9437C60.3457 40.9437 59.5619 41.8187 59.3301 42.8968H58.7181C57.9629 42.8968 57.9629 44.0217 58.7181 44.0113H59.3301C59.5645 45.0868 60.3457 45.9619 61.4395 45.9619C62.6192 45.9619 63.7312 45.1285 63.7312 43.5321V43.4488C63.7312 42.6337 64.2858 42.0557 64.9082 42.0557C65.5254 42.0557 66.0645 42.6206 66.0801 43.4175L66.0775 43.4801C66.0515 44.2744 65.5228 44.8394 64.9082 44.8394C64.153 44.8394 64.153 45.9671 64.9082 45.9567C66.0228 45.9567 66.9082 45.0973 67.14 44.0035H67.627C67.9421 44.0035 68.1999 43.7508 68.1947 43.4383L68.1999 43.4463Z" fill="#015834"/>
<path d="M63.1758 26.7097C61.3269 26.7097 59.8269 25.2045 59.8269 23.3504C59.8269 21.5014 61.3269 20.0144 63.1758 20.0144C65.0248 20.0144 66.5248 21.4987 66.5248 23.3529C66.5248 25.2019 65.0248 26.7122 63.1758 26.7122V26.7097Z" fill="#CBE2A9"/>
<path d="M63.1739 24.4766C62.8769 24.4756 62.5925 24.3566 62.3832 24.1458C62.1739 23.9351 62.057 23.6499 62.058 23.3529C62.059 23.0559 62.178 22.7715 62.3887 22.5623C62.5995 22.353 62.8847 22.236 63.1817 22.2371C63.4787 22.2378 63.7632 22.3564 63.9727 22.5669C64.1822 22.7774 64.2996 23.0624 64.2989 23.3594C64.2982 23.6564 64.1795 23.9409 63.9691 24.1505C63.7586 24.36 63.4735 24.4773 63.1765 24.4766H63.1739Z" fill="#015834"/>
<path d="M63.1758 66.882C61.3269 66.882 59.8269 65.377 59.8269 63.5254C59.8269 61.6739 61.3269 60.1868 63.1758 60.1868C65.0248 60.1868 66.5248 61.6713 66.5248 63.5254C66.5248 65.377 65.0248 66.8846 63.1758 66.8846V66.882Z" fill="#CBE2A9"/>
<path d="M63.1744 64.6533C63.0229 64.6601 62.8717 64.6358 62.7298 64.5824C62.588 64.529 62.4584 64.4474 62.349 64.3424C62.2397 64.2374 62.1528 64.1113 62.0936 63.9717C62.0344 63.8322 62.0041 63.6821 62.0046 63.5305C62.0052 63.3789 62.0365 63.229 62.0966 63.0899C62.1568 62.9508 62.2446 62.8253 62.3547 62.7212C62.4648 62.617 62.5949 62.5361 62.7371 62.4837C62.8794 62.4313 63.0308 62.4085 63.1822 62.4163C63.4792 62.417 63.7637 62.5355 63.9732 62.7459C64.1827 62.9564 64.3 63.2415 64.2994 63.5385C64.2987 63.8354 64.18 64.1202 63.9695 64.3297C63.759 64.5392 63.4739 64.6565 63.177 64.6558L63.1744 64.6533Z" fill="#015834"/>
<path d="M75.2832 17.8089C74.5062 17.8089 73.761 17.4824 73.2116 16.9012C72.6622 16.32 72.3535 15.5319 72.3535 14.71H54.7754C54.7754 15.5319 54.4667 16.32 53.9173 16.9012C53.3679 17.4824 52.6227 17.8089 51.8457 17.8089V71.5068C52.6227 71.5068 53.3679 71.8332 53.9173 72.4144C54.4667 72.9956 54.7754 73.7837 54.7754 74.6056H72.3535C72.3535 73.7837 72.6622 72.9956 73.2116 72.4144C73.761 71.8332 74.5062 71.5068 75.2832 71.5068V17.8089Z" fill="#8BBE3E"/>
<path d="M63.5648 51.2645C61.193 51.2597 58.9202 50.3134 57.2458 48.6337C55.5713 46.9539 54.6323 44.678 54.6351 42.3062C54.6354 41.1348 54.8669 39.9748 55.3163 38.893C55.7657 37.8112 56.4242 36.8288 57.254 36.0019C58.0838 35.1751 59.0686 34.52 60.1519 34.0744C61.2353 33.6288 62.396 33.4013 63.5674 33.4051C64.7384 33.4023 65.8984 33.6307 66.9811 34.0769C68.0637 34.5232 69.0477 35.1785 69.8767 36.0056C70.7057 36.8326 71.3634 37.815 71.8121 38.8966C72.2609 39.9782 72.4919 41.1377 72.4919 42.3087C72.494 44.6796 71.555 46.9545 69.8812 48.6337C68.2075 50.3128 65.9357 51.259 63.5648 51.2645Z" fill="#CBE2A9"/>
<path d="M69.3045 42.3224C69.3035 42.2385 69.2859 42.1558 69.2527 42.0787C69.2195 42.0017 69.1714 41.9319 69.1111 41.8735C69.0508 41.8152 68.9795 41.7694 68.9015 41.7388C68.8234 41.7081 68.74 41.6932 68.6561 41.6949H68.0988C67.8358 40.4449 66.8228 39.4657 65.5493 39.4657C64.065 39.4657 62.9295 40.7939 62.9295 42.3304C62.9295 43.2626 62.2967 43.9241 61.5832 43.9241C60.8722 43.9241 60.242 43.2626 60.242 42.3329C60.242 41.4006 60.8722 40.7417 61.5832 40.7417C62.4478 40.7417 62.4478 39.4527 61.5832 39.4657C60.328 39.4657 59.4347 40.4631 59.1665 41.6949H58.4712C57.6066 41.6949 57.6066 42.9813 58.4712 42.9709H59.1691C59.4374 44.2001 60.328 45.2001 61.5806 45.2001C62.9269 45.2001 64.2004 44.2443 64.2004 42.4214V42.3304C64.2004 41.4007 64.8332 40.7391 65.5441 40.7391C66.2472 40.7391 66.867 41.385 66.8827 42.2965V42.3693C66.8566 43.2808 66.2499 43.9241 65.5467 43.9241C64.6874 43.9241 64.6874 45.2105 65.5467 45.2001C66.8202 45.2001 67.8332 44.221 68.0962 42.9684H68.6535C69.0129 42.9684 69.3071 42.6818 69.3019 42.3224H69.3045Z" fill="#015834"/>
<path d="M63.565 25.5915C61.716 25.5915 60.216 24.0864 60.216 22.2322C60.216 20.3832 61.716 18.8962 63.565 18.8962C65.4139 18.8962 66.9139 20.3806 66.9139 22.2347C66.9139 24.0863 65.4113 25.5942 63.565 25.5942V25.5915Z" fill="#CBE2A9"/>
<path d="M63.5644 23.358C63.4129 23.3651 63.2616 23.3415 63.1196 23.2884C62.9776 23.2353 62.8479 23.1539 62.7382 23.0492C62.6286 22.9445 62.5414 22.8187 62.4819 22.6793C62.4223 22.5399 62.3917 22.3898 62.3919 22.2382C62.3921 22.0866 62.423 21.9366 62.4829 21.7973C62.5427 21.658 62.6303 21.5324 62.7401 21.4279C62.85 21.3235 62.9799 21.2424 63.1221 21.1897C63.2642 21.1369 63.4155 21.1135 63.567 21.121C63.714 21.1212 63.8596 21.1504 63.9954 21.2068C64.1312 21.2633 64.2545 21.3459 64.3584 21.45C64.4622 21.5541 64.5446 21.6776 64.6007 21.8135C64.6568 21.9494 64.6856 22.0951 64.6854 22.2422C64.6853 22.3892 64.6561 22.5348 64.5997 22.6706C64.5433 22.8063 64.4606 22.9297 64.3565 23.0336C64.2524 23.1374 64.1289 23.2197 63.993 23.2758C63.8571 23.3319 63.7114 23.3609 63.5644 23.3607V23.358Z" fill="#015834"/>
<path d="M63.565 65.7739C61.716 65.7739 60.216 64.2686 60.216 62.4144C60.216 60.5629 61.716 59.0759 63.565 59.0759C65.4139 59.0759 66.9139 60.5629 66.9139 62.4144C66.9139 64.2686 65.4113 65.7739 63.565 65.7739Z" fill="#CBE2A9"/>
<path d="M63.5648 63.5391C63.2678 63.5388 62.9831 63.4207 62.7734 63.2104C62.5636 63.0002 62.446 62.7152 62.4463 62.4182C62.4467 62.1212 62.565 61.8364 62.7752 61.6267C62.9855 61.4169 63.2704 61.2992 63.5674 61.2996C63.8644 61.2999 64.1491 61.4183 64.3588 61.6286C64.5686 61.8388 64.6862 62.1238 64.6859 62.4208C64.6855 62.7178 64.5672 63.0026 64.357 63.2123C64.1467 63.4221 63.8618 63.5395 63.5648 63.5391Z" fill="#015834"/>
<path d="M94.8596 56.9031H31.2633C28.6212 56.9031 26.4794 59.045 26.4794 61.687V99.7625C26.4794 102.405 28.6212 104.546 31.2633 104.546H94.8596C97.5017 104.546 99.6435 102.405 99.6435 99.7625V61.687C99.6435 59.045 97.5017 56.9031 94.8596 56.9031Z" fill="#4B414C"/>
<path fill-rule="evenodd" clip-rule="evenodd" d="M99.6421 78.3784H72.202L68.7723 81.7792V88.5865L72.202 91.9902H99.6421V78.3784Z" fill="#EC4A2C"/>
<path opacity="0.15" d="M26.4813 95.1021V99.6593C26.4916 100.958 27.0151 102.2 27.9376 103.115C28.86 104.03 30.1067 104.543 31.4058 104.542H94.7079C96.0074 104.544 97.2547 104.031 98.1778 103.116C99.1008 102.201 99.6246 100.959 99.635 99.6593V95.1021H31.4006H26.4813Z" fill="#1F2128"/>
<path d="M32.184 59.8088C30.4497 59.8088 29.02 61.2412 29.02 62.973V71.2254C29.0127 71.3765 29.0361 71.5275 29.0889 71.6692C29.1417 71.8109 29.2227 71.9405 29.3271 72.05C29.4314 72.1595 29.5569 72.2467 29.6959 72.3063C29.8349 72.3658 29.9846 72.3965 30.1359 72.3965C30.2871 72.3965 30.4368 72.3658 30.5758 72.3063C30.7148 72.2467 30.8403 72.1595 30.9447 72.05C31.049 71.9405 31.13 71.8109 31.1828 71.6692C31.2356 71.5275 31.259 71.3765 31.2517 71.2254V62.973C31.2517 62.4391 31.6476 62.0431 32.184 62.0431H78.3663C78.6626 62.0431 78.9468 61.9255 79.1563 61.716C79.3658 61.5065 79.4835 61.2224 79.4835 60.9261C79.4835 60.6298 79.3658 60.3455 79.1563 60.1359C78.9468 59.9264 78.6626 59.8088 78.3663 59.8088H32.184Z" fill="#85797D"/>
<path d="M76.5848 89.0962C78.7422 89.0962 80.4911 87.3473 80.4911 85.1899C80.4911 83.0326 78.7422 81.2837 76.5848 81.2837C74.4274 81.2837 72.6786 83.0326 72.6786 85.1899C72.6786 87.3473 74.4274 89.0962 76.5848 89.0962Z" fill="#FFCD00"/>
<path d="M64.8727 56.9031H67.4638M72.7008 56.9031H94.8622C97.5107 56.9031 99.6435 59.036 99.6435 61.6845V99.7599C99.6435 102.411 97.5107 104.544 94.8622 104.544H31.2633C30.6347 104.545 30.012 104.422 29.431 104.182C28.8499 103.943 28.322 103.59 27.8775 103.145C27.433 102.701 27.0807 102.173 26.8408 101.592C26.6009 101.011 26.4781 100.389 26.4794 99.7599V61.687C26.4794 59.036 28.6149 56.9031 31.2633 56.9031H59.6695H72.7008Z" stroke="#12141A" stroke-linecap="round" stroke-linejoin="round"/>
<path fill-rule="evenodd" clip-rule="evenodd" d="M37.548 2.14636C37.4411 2.14737 37.3355 2.16952 37.2372 2.21169C37.139 2.25385 37.0501 2.31513 36.9757 2.39193C36.9014 2.46873 36.843 2.55957 36.804 2.65912C36.765 2.75867 36.7461 2.86488 36.7486 2.97177C36.7486 3.53687 36.5064 3.79208 35.9465 3.79208C34.8449 3.76604 34.8449 5.43531 35.9465 5.41969C36.4855 5.41969 36.7486 5.56813 36.7486 6.20615C36.7225 7.30771 38.3892 7.30771 38.3762 6.20615C38.3762 5.62803 38.6444 5.41969 39.1809 5.41969C40.2798 5.44573 40.2798 3.77906 39.1809 3.79208C38.4517 3.79208 38.3736 3.37541 38.3736 2.97177C38.3736 2.51343 38.009 2.13855 37.548 2.14636ZM15.4335 28.4667C15.2868 28.4683 15.1418 28.499 15.0071 28.5569C14.8723 28.6149 14.7503 28.699 14.6482 28.8043C14.546 28.9096 14.4657 29.034 14.4119 29.1705C14.358 29.3069 14.3317 29.4528 14.3345 29.5995C14.3345 30.3755 14.0038 30.727 13.2355 30.727C11.7251 30.701 11.7251 32.9822 13.2355 32.9613C13.9751 32.9613 14.3345 33.1671 14.3345 34.0395C14.3085 35.5499 16.5897 35.5499 16.5689 34.0395C16.5689 33.2452 16.9387 32.9613 17.673 32.9613C19.1835 32.9874 19.1835 30.7036 17.673 30.727C16.6756 30.727 16.5689 30.1542 16.5689 29.5995C16.5703 29.4501 16.5418 29.3019 16.4852 29.1636C16.4286 29.0254 16.345 28.8999 16.2393 28.7944C16.1335 28.6889 16.0078 28.6054 15.8694 28.5491C15.731 28.4929 15.5828 28.4649 15.4335 28.4667Z" fill="#FFCC00"/>
<path fill-rule="evenodd" clip-rule="evenodd" d="M17.3745 46.6343C17.0359 46.6343 16.7651 46.9209 16.7703 47.2594C16.7703 47.6839 16.588 47.8766 16.1661 47.8766C15.338 47.8506 15.338 49.1135 16.1661 49.103C16.575 49.103 16.7703 49.2152 16.7703 49.6943C16.7443 50.5251 18.0099 50.5251 17.9969 49.6943C17.9969 49.2594 18.2 49.103 18.6036 49.103C19.4344 49.103 19.4344 47.8636 18.6036 47.8766C18.0568 47.8766 17.9969 47.5641 17.9969 47.2594C17.9979 47.1773 17.9825 47.0957 17.9517 47.0196C17.9208 46.9435 17.875 46.8742 17.8171 46.816C17.7591 46.7578 17.6901 46.7117 17.6141 46.6806C17.5381 46.6494 17.4566 46.6336 17.3745 46.6343Z" fill="#12141A"/>
<path fill-rule="evenodd" clip-rule="evenodd" d="M72.2388 1.70479e-05C72.1317 0.00101805 72.0258 0.0233326 71.9274 0.0656617C71.829 0.107991 71.74 0.169464 71.6656 0.246542C71.5912 0.32362 71.5328 0.414676 71.494 0.514524C71.4552 0.614373 71.4366 0.721024 71.4393 0.828125C71.4393 1.39323 71.1972 1.64844 70.6373 1.64844C69.5357 1.6224 69.5357 3.28907 70.6373 3.27605C71.1763 3.27605 71.4393 3.42449 71.4393 4.06251C71.4133 5.16147 73.08 5.16147 73.067 4.06251C73.067 3.48439 73.3378 3.27605 73.8716 3.27605C74.9732 3.30209 74.9732 1.63282 73.8716 1.64844C73.1451 1.64844 73.0644 1.23177 73.0644 0.828125C73.0657 0.719428 73.0454 0.611468 73.0046 0.51071C72.9638 0.409952 72.9034 0.318405 72.8267 0.241297C72.7501 0.164189 72.6589 0.103122 72.5584 0.061688C72.4579 0.020254 72.3501 -0.00068419 72.2414 1.70479e-05H72.2388Z" fill="#FF8E00"/>
<path fill-rule="evenodd" clip-rule="evenodd" d="M105.986 63.1006C105.645 63.1006 105.374 63.387 105.379 63.7256C105.379 64.1501 105.197 64.3429 104.775 64.3429C103.947 64.3169 103.947 65.5824 104.775 65.5694C105.181 65.5694 105.379 65.6815 105.379 66.1606C105.353 66.9914 106.619 66.9914 106.606 66.1606C106.606 65.7257 106.809 65.5694 107.213 65.5694C108.041 65.5954 108.041 64.3298 107.213 64.3455C106.666 64.3455 106.606 64.0303 106.606 63.7256C106.607 63.6434 106.592 63.562 106.561 63.4859C106.53 63.4098 106.484 63.3403 106.426 63.2821C106.368 63.2239 106.299 63.1779 106.223 63.1467C106.147 63.1155 106.066 63.0999 105.983 63.1006H105.986Z" fill="#12141A"/>
<path fill-rule="evenodd" clip-rule="evenodd" d="M116.864 47.0552C116.717 47.0566 116.571 47.0871 116.436 47.145C116.301 47.203 116.178 47.2872 116.076 47.3928C115.973 47.4984 115.893 47.6234 115.839 47.7603C115.785 47.8973 115.759 48.0436 115.762 48.1907C115.762 48.9668 115.432 49.3158 114.663 49.3158C113.153 49.2897 113.153 51.5735 114.663 51.5501C115.403 51.5501 115.762 51.7584 115.762 52.6282C115.736 54.1386 118.017 54.1386 117.997 52.6282C117.997 51.8365 118.369 51.5501 119.101 51.5501C120.611 51.5761 120.611 49.2949 119.101 49.3158C118.106 49.3158 117.997 48.748 117.997 48.1907C117.998 48.0414 117.97 47.8931 117.914 47.7547C117.858 47.6164 117.774 47.4906 117.669 47.3849C117.563 47.2791 117.438 47.1954 117.3 47.1388C117.161 47.0822 117.013 47.0538 116.864 47.0552ZM11.4601 86.1177C11.3132 86.1194 11.1681 86.1502 11.0331 86.2083C10.8982 86.2664 10.7761 86.3507 10.6739 86.4563C10.5717 86.5619 10.4914 86.6867 10.4378 86.8234C10.3841 86.9602 10.3581 87.1063 10.3612 87.2532C10.3612 88.0267 10.0304 88.3782 9.26221 88.3782C7.75179 88.3522 7.75179 90.6358 9.26221 90.6124C10.0018 90.6124 10.3612 90.8209 10.3612 91.6907C10.3351 93.2011 12.6164 93.2011 12.5955 91.6907C12.5955 90.899 12.9653 90.6124 13.6997 90.6124C15.2101 90.6384 15.2101 88.3574 13.6997 88.3782C12.7049 88.3782 12.5955 87.8079 12.5955 87.2532C12.5973 87.1036 12.5691 86.9553 12.5127 86.8168C12.4562 86.6782 12.3727 86.5522 12.2669 86.4464C12.1611 86.3406 12.0352 86.2571 11.8967 86.2007C11.7581 86.1442 11.6097 86.116 11.4601 86.1177Z" fill="#FF8E00"/>
<path fill-rule="evenodd" clip-rule="evenodd" d="M110.424 27.8831C110.317 27.8841 110.211 27.9064 110.113 27.9488C110.014 27.9911 109.925 28.0526 109.851 28.1296C109.776 28.2067 109.718 28.2978 109.679 28.3976C109.64 28.4975 109.622 28.6041 109.625 28.7112C109.625 29.2737 109.382 29.5315 108.823 29.5315C107.721 29.5055 107.721 31.1722 108.823 31.1591C109.362 31.1591 109.625 31.3075 109.625 31.9429C109.599 33.0445 111.265 33.0445 111.252 31.9429C111.252 31.3674 111.523 31.1591 112.057 31.1591C113.156 31.1852 113.156 29.5159 112.057 29.5315C111.33 29.5315 111.25 29.1149 111.25 28.7112C111.25 28.2503 110.885 27.8779 110.424 27.8831ZM115.632 85.1746C115.525 85.1756 115.419 85.1981 115.321 85.2404C115.223 85.2827 115.134 85.3442 115.059 85.4213C114.985 85.4984 114.926 85.5894 114.888 85.6893C114.849 85.7891 114.83 85.8956 114.833 86.0027C114.833 86.5652 114.591 86.8232 114.031 86.8232C112.929 86.7971 112.929 88.4638 114.031 88.4508C114.57 88.4508 114.833 88.5993 114.833 89.2347C114.807 90.3363 116.474 90.3363 116.461 89.2347C116.461 88.6566 116.731 88.4508 117.265 88.4508C118.364 88.4768 118.364 86.8076 117.265 86.8232C116.539 86.8232 116.458 86.4064 116.458 86.0027C116.458 85.5418 116.093 85.1694 115.632 85.1746Z" fill="#FFCC00"/>
</svg>
