<svg width="45" height="45" viewBox="0 0 45 45" fill="none" xmlns="http://www.w3.org/2000/svg">
<path d="M27.3214 25.7143C29.9842 25.7143 32.1429 27.8729 32.1429 30.5357V32.1429C32.1429 38.4796 26.1659 45 16.0714 45C5.977 45 0 38.4796 0 32.1429V30.5357C0 27.8729 2.15863 25.7143 4.82143 25.7143H27.3214ZM27.3214 28.9286H4.82143C3.93383 28.9286 3.21429 29.6481 3.21429 30.5357V32.1429C3.21429 36.7639 7.81765 41.7857 16.0714 41.7857C24.3252 41.7857 28.9286 36.7639 28.9286 32.1429V30.5357C28.9286 29.6481 28.209 28.9286 27.3214 28.9286ZM38.5714 19.2857C39.9028 19.2857 40.9821 20.365 40.9821 21.6964C40.9821 23.0278 39.9028 24.1071 38.5714 24.1071C37.24 24.1071 36.1607 23.0278 36.1607 21.6964C36.1607 20.365 37.24 19.2857 38.5714 19.2857ZM16.0714 4.82143C20.9532 4.82143 24.9107 8.77891 24.9107 13.6607C24.9107 18.5425 20.9532 22.5 16.0714 22.5C11.1896 22.5 7.23214 18.5425 7.23214 13.6607C7.23214 8.77891 11.1896 4.82143 16.0714 4.82143ZM16.0714 8.03571C12.9648 8.03571 10.4464 10.5541 10.4464 13.6607C10.4464 16.7673 12.9648 19.2857 16.0714 19.2857C19.178 19.2857 21.6964 16.7673 21.6964 13.6607C21.6964 10.5541 19.178 8.03571 16.0714 8.03571ZM38.5714 0C42.1218 0 45 2.87817 45 6.42857C45 8.77671 44.3193 10.0919 42.5766 11.9183L41.7277 12.7847C40.5145 14.0497 40.1786 14.7314 40.1786 16.0714C40.1786 16.959 39.459 17.6786 38.5714 17.6786C37.6838 17.6786 36.9643 16.959 36.9643 16.0714C36.9643 13.7233 37.645 12.4081 39.3877 10.5817L40.2366 9.71533C41.4498 8.45029 41.7857 7.76861 41.7857 6.42857C41.7857 4.65337 40.3466 3.21429 38.5714 3.21429C36.7962 3.21429 35.3571 4.65337 35.3571 6.42857C35.3571 7.31617 34.6376 8.03571 33.75 8.03571C32.8624 8.03571 32.1429 7.31617 32.1429 6.42857C32.1429 2.87817 35.021 0 38.5714 0Z" fill="#174293"/>
</svg>
