<svg width="53" height="52" viewBox="0 0 53 52" fill="none" xmlns="http://www.w3.org/2000/svg">
<path fill-rule="evenodd" clip-rule="evenodd" d="M45.4975 0H7.39483C3.78648 0 0.827774 2.95903 0.827774 6.56695V44.6697C0.827774 48.2776 3.78648 51.2367 7.39483 51.2367H45.4974C49.1061 51.2367 52.0645 48.2776 52.0645 44.6698V6.56695C52.0645 2.95903 49.1061 0 45.4975 0ZM18.4404 24.7444V40.5624H11.5021V20.6014H18.4404V24.7444ZM14.9574 17.6263C13.0271 17.6263 11.4609 16.0612 11.4609 14.1298C11.4609 12.1981 13.0271 10.6349 14.9574 10.6349C16.8903 10.6349 18.455 12.1982 18.455 14.1298C18.455 16.0612 16.8904 17.6263 14.9574 17.6263ZM41.3902 29.6746V40.5624H35.4126V30.8666C35.4126 28.545 35.1612 25.5589 31.9793 25.5589C28.749 25.5589 28.2608 28.0865 28.2608 30.6992V40.5624H22.4966V20.6014H28.0473V23.27H28.1064C28.9343 21.7756 30.9626 20.5993 33.9828 20.5993C39.0714 20.5993 40.8007 23.0056 41.2738 26.7703C41.3861 27.6539 41.4295 28.6072 41.4295 29.6746H41.3902Z" fill="#1A1A1A"/>
</svg>
