<svg width="227" height="58" viewBox="0 0 227 58" fill="none" xmlns="http://www.w3.org/2000/svg">
<path d="M175.069 15.0938H162.851C162.132 15.0938 161.414 15.8125 161.054 16.5312L156.023 48.1542C156.023 48.8729 156.383 49.2322 157.102 49.2322H163.57C164.289 49.2322 164.648 48.8729 164.648 48.1542L166.085 39.1704C166.085 38.4517 166.804 37.733 167.882 37.733H171.835C180.1 37.733 184.772 33.7801 185.85 25.8743C186.568 22.6402 185.85 19.7653 184.412 17.9686C182.256 16.1718 179.022 15.0938 175.069 15.0938ZM176.507 26.9524C175.788 31.2646 172.554 31.2646 169.32 31.2646H167.163L168.601 22.9995C168.601 22.6401 168.96 22.2808 169.679 22.2808H170.398C172.554 22.2808 174.71 22.2808 175.788 23.7182C176.507 24.0776 176.507 25.1556 176.507 26.9524Z" fill="#139AD6"/>
<path d="M87.0279 15.0938H74.8099C74.0912 15.0938 73.3725 15.8125 73.0131 16.5312L67.9822 48.1542C67.9822 48.8729 68.3415 49.2322 69.0602 49.2322H74.8099C75.5286 49.2322 76.2473 48.5135 76.6066 47.7948L78.0441 39.1704C78.0441 38.4517 78.7628 37.733 79.8408 37.733H83.7937C92.0588 37.733 96.7304 33.7801 97.8084 25.8743C98.5271 22.6402 97.8084 19.7653 96.371 17.9686C94.2149 16.1718 91.3401 15.0938 87.0279 15.0938ZM88.4653 26.9524C87.7466 31.2646 84.5124 31.2646 81.2782 31.2646H79.4815L80.9189 22.9995C80.9189 22.6401 81.2782 22.2808 81.9969 22.2808H82.7156C84.8717 22.2808 87.0279 22.2808 88.1059 23.7182C88.4653 24.0776 88.8246 25.1556 88.4653 26.9524ZM124.041 26.593H118.292C117.932 26.593 117.213 26.9524 117.213 27.3117L116.854 29.1085L116.495 28.3898C115.057 26.593 112.542 25.8743 109.667 25.8743C103.199 25.8743 97.4491 30.9053 96.371 37.733C95.6523 41.3265 96.7304 44.5607 98.5271 46.7168C100.324 48.8729 102.839 49.5916 106.074 49.5916C111.464 49.5916 114.339 46.3574 114.339 46.3574L113.979 48.1542C113.979 48.8729 114.339 49.2322 115.057 49.2322H120.448C121.166 49.2322 121.885 48.5135 122.244 47.7948L125.479 27.6711C125.119 27.3117 124.401 26.593 124.041 26.593ZM115.776 38.0923C115.057 41.3265 112.542 43.8419 108.948 43.8419C107.152 43.8419 105.714 43.1232 104.995 42.4045C104.277 41.3265 103.917 39.8891 103.917 38.0923C104.277 34.8581 107.152 32.3427 110.386 32.3427C112.183 32.3427 113.261 33.0614 114.339 33.7801C115.417 34.8581 115.776 36.6549 115.776 38.0923Z" fill="#263B80"/>
<path d="M211.723 26.5927H205.973C205.614 26.5927 204.895 26.9521 204.895 27.3114L204.536 29.1082L204.176 28.3895C202.739 26.5927 200.224 25.874 197.349 25.874C190.88 25.874 185.131 30.905 184.053 37.7327C183.334 41.3262 184.412 44.5604 186.209 46.7165C188.006 48.8726 190.521 49.5913 193.755 49.5913C199.146 49.5913 202.02 46.3571 202.02 46.3571L201.661 48.1539C201.661 48.8726 202.02 49.2319 202.739 49.2319H208.129C208.848 49.2319 209.567 48.5132 209.926 47.7945L213.16 27.6708C212.801 27.3114 212.442 26.5927 211.723 26.5927ZM203.458 38.092C202.739 41.3262 200.224 43.8416 196.63 43.8416C194.833 43.8416 193.396 43.1229 192.677 42.4042C191.959 41.3262 191.599 39.8888 191.599 38.092C191.959 34.8578 194.833 32.3424 198.067 32.3424C199.864 32.3424 200.942 33.0611 202.02 33.7798C203.458 34.8578 203.817 36.6546 203.458 38.092Z" fill="#139AD6"/>
<path d="M155.305 26.5913H149.196C148.477 26.5913 148.118 26.9507 147.758 27.31L139.853 39.528L136.259 28.0287C135.9 27.31 135.54 26.9507 134.462 26.9507H128.713C127.994 26.9507 127.635 27.6694 127.635 28.3881L134.103 47.4338L127.994 56.0582C127.635 56.7769 127.994 57.855 128.713 57.855H134.462C135.181 57.855 135.54 57.4956 135.9 57.1363L155.664 28.7474C156.742 27.6694 156.023 26.5913 155.305 26.5913Z" fill="#263B80"/>
<path d="M218.551 16.1712L213.52 48.5129C213.52 49.2316 213.879 49.591 214.598 49.591H219.629C220.348 49.591 221.066 48.8723 221.426 48.1536L226.457 16.5306C226.457 15.8119 226.097 15.4525 225.379 15.4525H219.629C219.27 15.0931 218.91 15.4525 218.551 16.1712Z" fill="#139AD6"/>
<path d="M41.39 4.31223C38.8745 1.43741 34.2029 0 27.7346 0H9.76697C8.68891 0 7.61086 1.07806 7.2515 2.15612L0.0644531 49.2313C0.0644531 50.3093 0.783158 51.0281 1.50186 51.0281H12.6418L15.5166 33.4198V34.1385C15.876 33.0604 16.954 31.9824 18.0321 31.9824H23.4224C33.8436 31.9824 41.7493 27.6701 44.2648 15.8115V14.7335C43.9055 14.7335 43.9055 14.7335 44.2648 14.7335C44.6242 10.0619 43.9055 7.18705 41.39 4.31223Z" fill="#263B80"/>
<path d="M43.9052 14.7339V15.8119C41.3897 28.0299 33.484 31.9828 23.0628 31.9828H17.6725C16.5944 31.9828 15.5164 33.0609 15.157 34.1389L11.5635 56.0594C11.5635 56.7781 11.9228 57.4968 13.0009 57.4968H22.344C23.4221 57.4968 24.5002 56.7781 24.5002 55.7001V55.3407L26.2969 44.2008V43.4821C26.2969 42.404 27.375 41.6853 28.453 41.6853H29.8905C38.8743 41.6853 46.0613 38.0918 47.8581 27.3112C48.5768 22.999 48.2174 19.0461 46.0613 16.5306C45.702 15.8119 44.9833 15.0932 43.9052 14.7339Z" fill="#139AD6"/>
<path d="M41.3902 13.6547C41.0309 13.6547 40.6715 13.2954 40.3122 13.2954C39.9528 13.2954 39.5935 13.2954 39.2341 12.936C37.7967 12.5767 36.3593 12.5767 34.5625 12.5767H20.5478C20.1884 12.5767 19.8291 12.5767 19.4697 12.936C18.751 13.2954 18.3917 14.0141 18.3917 14.7328L15.5168 33.4191V34.1378C15.8762 33.0598 16.9543 31.9817 18.0323 31.9817H23.4226C33.8438 31.9817 41.7496 27.6695 44.265 15.8108C44.265 15.4515 44.265 15.0921 44.6244 14.7328C43.9057 14.3734 43.5463 14.0141 42.8276 14.0141C41.7496 13.6547 41.7496 13.6547 41.3902 13.6547Z" fill="#232C65"/>
</svg>
