<svg width="115" height="115" viewBox="0 0 115 115" fill="none" xmlns="http://www.w3.org/2000/svg">
<rect width="115" height="115" rx="34" fill="white"/>
<path d="M53.0243 25.3696H62.2425C63.2903 25.3696 64.2952 25.7858 65.0361 26.5267C65.7769 27.2676 66.1932 28.2725 66.1932 29.3202V41.1723H49.0736V29.3202C49.0736 28.2725 49.4898 27.2676 50.2307 26.5267C50.9716 25.7858 51.9765 25.3696 53.0243 25.3696Z" fill="#728BA6"/>
<path d="M57.6334 25.3696C59.9971 25.3696 61.9133 23.4534 61.9133 21.0897C61.9133 18.7259 59.9971 16.8098 57.6334 16.8098C55.2697 16.8098 53.3535 18.7259 53.3535 21.0897C53.3535 23.4534 55.2697 25.3696 57.6334 25.3696Z" fill="#E6BC8A"/>
<path d="M22.7357 64.2179V74.753H25.3695V65.5348H29.9787V62.901H24.0526C23.7034 62.901 23.3684 63.0397 23.1215 63.2867C22.8745 63.5337 22.7357 63.8686 22.7357 64.2179ZM58.9503 52.915H62.2425L57.6334 45.2322L53.0243 52.915H56.3165V62.901H43.1476V65.5348H72.1192V62.901H58.9503V52.915Z" fill="#97B4D9"/>
<path d="M79.3621 62.901H78.0452C77.8706 62.901 77.7031 62.8316 77.5796 62.7081C77.4561 62.5847 77.3868 62.4172 77.3868 62.2425C77.3868 62.0679 77.4561 61.9004 77.5796 61.777C77.7031 61.6535 77.8706 61.5841 78.0452 61.5841H79.3621C79.5367 61.5841 79.7042 61.6535 79.8277 61.777C79.9512 61.9004 80.0206 62.0679 80.0206 62.2425H82.6543C82.6542 61.4838 82.392 60.7484 81.9121 60.1608C81.4321 59.5731 80.764 59.1692 80.0206 59.0175V57.6334H77.3868V59.0175C76.5881 59.1813 75.8786 59.6357 75.3957 60.2926C74.9128 60.9495 74.6908 61.7623 74.7728 62.5735C74.8548 63.3847 75.2348 64.1366 75.8393 64.6837C76.4439 65.2307 77.2299 65.534 78.0452 65.5348H79.3621C79.5367 65.5348 79.7042 65.6041 79.8277 65.7276C79.9512 65.8511 80.0206 66.0186 80.0206 66.1932C80.0206 66.3679 79.9512 66.5353 79.8277 66.6588C79.7042 66.7823 79.5367 66.8517 79.3621 66.8517H78.0452C77.8706 66.8517 77.7031 66.7823 77.5796 66.6588C77.4561 66.5353 77.3868 66.3679 77.3868 66.1932H74.753C74.7531 66.952 75.0153 67.6874 75.4953 68.275C75.9752 68.8627 76.6434 69.2666 77.3868 69.4183V70.8023H80.0206V69.4183C80.8192 69.2545 81.5287 68.8001 82.0116 68.1431C82.4945 67.4862 82.7165 66.6735 82.6345 65.8623C82.5526 65.0511 82.1725 64.2992 81.568 63.7521C80.9635 63.2051 80.1774 62.9018 79.3621 62.901ZM37.2216 62.901H35.9047C35.73 62.901 35.5625 62.8316 35.4391 62.7081C35.3156 62.5847 35.2462 62.4172 35.2462 62.2425C35.2462 62.0679 35.3156 61.9004 35.4391 61.777C35.5625 61.6535 35.73 61.5841 35.9047 61.5841H37.2216C37.3962 61.5841 37.5637 61.6535 37.6871 61.777C37.8106 61.9004 37.88 62.0679 37.88 62.2425H40.5138C40.5136 61.4838 40.2514 60.7484 39.7715 60.1608C39.2916 59.5731 38.6234 59.1692 37.88 59.0175V57.6334H35.2462V59.0175C34.4475 59.1813 33.738 59.6357 33.2551 60.2926C32.7723 60.9495 32.5503 61.7623 32.6322 62.5735C32.7142 63.3847 33.0942 64.1366 33.6988 64.6837C34.3033 65.2307 35.0893 65.534 35.9047 65.5348H37.2216C37.3962 65.5348 37.5637 65.6041 37.6871 65.7276C37.8106 65.8511 37.88 66.0186 37.88 66.1932C37.88 66.3679 37.8106 66.5353 37.6871 66.6588C37.5637 66.7823 37.3962 66.8517 37.2216 66.8517H35.9047C35.73 66.8517 35.5625 66.7823 35.4391 66.6588C35.3156 66.5353 35.2462 66.3679 35.2462 66.1932H32.6124C32.6126 66.952 32.8748 67.6874 33.3547 68.275C33.8346 68.8627 34.5028 69.2666 35.2462 69.4183V70.8023H37.88V69.4183C38.6787 69.2545 39.3882 68.8001 39.8711 68.1431C40.354 67.4862 40.5759 66.6735 40.494 65.8623C40.412 65.0511 40.032 64.2992 39.4274 63.7521C38.8229 63.2051 38.0369 62.9018 37.2216 62.901Z" fill="#FFC44D"/>
<path d="M20.7604 85.2881H27.3449C28.3926 85.2881 29.3975 85.7044 30.1384 86.4453C30.8793 87.1862 31.2955 88.191 31.2955 89.2388V98.4571H16.8097V89.2388C16.8097 88.191 17.226 87.1862 17.9668 86.4453C18.7077 85.7044 19.7126 85.2881 20.7604 85.2881Z" fill="#7B96B3"/>
<path d="M24.0526 85.2881C26.0527 85.2881 27.6741 83.6668 27.6741 81.6667C27.6741 79.6666 26.0527 78.0452 24.0526 78.0452C22.0526 78.0452 20.4312 79.6666 20.4312 81.6667C20.4312 83.6668 22.0526 85.2881 24.0526 85.2881Z" fill="#E6BC8A"/>
<path d="M92.5311 64.2179V74.753H89.8973V65.5348H85.2881V62.901H91.2142C91.5634 62.901 91.8984 63.0397 92.1453 63.2867C92.3923 63.5337 92.5311 63.8686 92.5311 64.2179Z" fill="#97B4D9"/>
<path d="M98.4571 98.4571H83.9713V89.2388C83.9713 88.191 84.3875 87.1862 85.1284 86.4453C85.8693 85.7044 86.8741 85.2881 87.9219 85.2881H94.5064C95.5542 85.2881 96.559 85.7044 97.2999 86.4453C98.0408 87.1862 98.4571 88.191 98.4571 89.2388V98.4571Z" fill="#7B96B3"/>
<path d="M91.2141 85.2881C93.2142 85.2881 94.8356 83.6668 94.8356 81.6667C94.8356 79.6666 93.2142 78.0452 91.2141 78.0452C89.2141 78.0452 87.5927 79.6666 87.5927 81.6667C87.5927 83.6668 89.2141 85.2881 91.2141 85.2881Z" fill="#E6BC8A"/>
</svg>
