<svg width="115" height="115" viewBox="0 0 115 115" fill="none" xmlns="http://www.w3.org/2000/svg">
<rect width="115" height="115" rx="34" fill="white"/>
<path d="M27.0022 36.6243H101.991C102.473 36.6243 102.951 36.7197 103.397 36.905C103.843 37.0904 104.248 37.3621 104.589 37.7045C104.93 38.047 105.2 38.4535 105.384 38.9007C105.568 39.348 105.662 39.8273 105.661 40.3111V84.5291C105.662 85.0129 105.567 85.4921 105.383 85.9392C105.198 86.3863 104.927 86.7925 104.586 87.1346C104.245 87.4768 103.84 87.7481 103.394 87.933C102.948 88.118 102.47 88.2129 101.987 88.2125H26.9987C26.5167 88.2125 26.0394 88.1173 25.594 87.9324C25.1487 87.7474 24.744 87.4764 24.4032 87.1346C24.0623 86.7929 23.7919 86.3873 23.6075 85.9408C23.423 85.4943 23.328 85.0158 23.328 84.5325V40.3111C23.3271 39.827 23.4215 39.3474 23.6058 38.8999C23.7901 38.4524 24.0606 38.0458 24.4019 37.7033C24.7433 37.3608 25.1486 37.0892 25.5948 36.9041C26.041 36.7189 26.5193 36.6238 27.0022 36.6243Z" fill="#E9EDED"/>
<path d="M23.328 43.5027V53.8203H105.661V43.5027H23.328Z" fill="#34485C"/>
<path d="M40.4808 77.8948H30.1891V81.3341H40.4808V77.8948Z" fill="#CAD1D8"/>
<path d="M90.5669 67.5772C90.5669 69.4015 89.844 71.151 88.5573 72.441C87.2706 73.731 85.5255 74.4556 83.7058 74.4556C81.8861 74.4556 80.141 73.731 78.8543 72.441C77.5676 71.151 76.8447 69.4015 76.8447 67.5772C76.8447 65.7529 77.5676 64.0034 78.8543 62.7134C80.141 61.4235 81.8861 60.6988 83.7058 60.6988C85.5255 60.6988 87.2706 61.4235 88.5573 62.7134C89.844 64.0034 90.5669 65.7529 90.5669 67.5772Z" fill="#F8B84E"/>
<path d="M54.203 77.8949H43.9114V81.3341H54.203V77.8949ZM67.9252 77.8949H57.6336V81.3341H67.9252V77.8949ZM81.6474 77.8949H71.3558V81.3341H81.6474V77.8949ZM67.9252 64.138H30.1891V71.0164H67.9252V64.138Z" fill="#CAD1D8"/>
<path d="M98.8002 67.5772C98.8002 69.4015 98.0773 71.151 96.7906 72.441C95.5039 73.731 93.7588 74.4556 91.9391 74.4556C90.1194 74.4556 88.3743 73.731 87.0875 72.441C85.8008 71.151 85.078 69.4015 85.078 67.5772C85.078 65.7529 85.8008 64.0034 87.0875 62.7134C88.3743 61.4235 90.1194 60.6988 91.9391 60.6988C93.7588 60.6988 95.5039 61.4235 96.7906 62.7134C98.0773 64.0034 98.8002 65.7529 98.8002 67.5772Z" fill="#F05542"/>
<path d="M9.60573 31.6753V54.0302C9.55427 66.5489 28.4772 71.0197 28.4772 71.0197C28.4772 71.0197 47.3453 66.5489 47.3453 54.0302V31.6753L28.4772 26.3099L9.60573 31.6753Z" fill="#25B39E"/>
<path d="M22.412 46.8387L27.2628 51.7052L34.5425 44.4106" stroke="#2B4255"/>
</svg>
