<svg width="50" height="50" viewBox="0 0 50 50" fill="none" xmlns="http://www.w3.org/2000/svg">
<path d="M25 50C38.8071 50 50 38.8071 50 25C50 11.1929 38.8071 0 25 0C11.1929 0 0 11.1929 0 25C0 38.8071 11.1929 50 25 50Z" fill="#25B7D3"/>
<path d="M37.9484 30.2294C36.5216 28.8026 34.502 28.3367 32.6834 28.8212L22.8039 18.9421C23.5979 16.7017 23.1057 14.1071 21.313 12.3139C19.5189 10.5198 16.9225 10.028 14.6807 10.8244L19.3843 15.528V18.0994L18.0989 19.3848H15.5275L10.8239 14.6812C10.0279 16.923 10.5198 19.5194 12.3134 21.3135C14.1084 23.1085 16.707 23.5998 18.9498 22.8017L28.8261 32.678C28.3416 34.4971 28.8075 36.5167 30.2343 37.9435C32.3643 40.0735 35.818 40.0735 37.9484 37.9435C40.0789 35.8135 40.0789 32.3598 37.9484 30.2294ZM34.9398 37.2526L31.7739 36.4044L30.9257 33.2385L33.2434 30.9208L36.4093 31.7689L37.2575 34.9348L34.9398 37.2526Z" fill="#E2E4E5"/>
<path d="M32.6819 28.8212L22.8024 18.9421C23.5965 16.7017 23.1042 14.1071 21.3115 12.3139C19.5174 10.5198 16.921 10.028 14.6792 10.8244L19.3828 15.528V18.0994L18.7669 18.7153L32.1069 32.0553L33.2419 30.9203L36.4078 31.7685L37.256 34.9344L36.121 36.0694L37.9697 37.918C40.0756 35.7862 40.0692 32.3512 37.9469 30.2289C36.5201 28.8026 34.5006 28.3367 32.6819 28.8212Z" fill="white"/>
<path d="M24.4495 30.9441C24.6188 30.7747 24.7405 30.5638 24.8026 30.3325C24.8647 30.1012 24.8649 29.8577 24.8032 29.6263C24.741 29.395 24.7409 29.1514 24.8029 28.9201C24.8649 28.6887 24.9868 28.4778 25.1564 28.3086L26.4418 27.0231C26.4841 26.981 26.5176 26.9309 26.5405 26.8757C26.5633 26.8206 26.5751 26.7615 26.5751 26.7018C26.5751 26.6421 26.5633 26.583 26.5405 26.5278C26.5176 26.4727 26.4841 26.4226 26.4418 26.3804L23.8705 23.8091C23.8283 23.7668 23.7782 23.7333 23.723 23.7104C23.6679 23.6876 23.6088 23.6758 23.5491 23.6758C23.4894 23.6758 23.4303 23.6876 23.3751 23.7104C23.32 23.7333 23.2699 23.7668 23.2277 23.8091L21.9423 25.0945C21.773 25.2639 21.562 25.3857 21.3307 25.4477C21.0994 25.5097 20.8559 25.5097 20.6245 25.4477C20.3932 25.3859 20.1496 25.386 19.9183 25.4481C19.687 25.5101 19.4761 25.632 19.3068 25.8013L11.0141 34.0941C9.40682 35.7013 14.5495 40.8436 16.1568 39.2368L24.4495 30.9441Z" fill="#DF2C2C"/>
<path d="M37.8116 11.1533L32.3475 14.046L32.0262 16.296L24.1912 24.131L26.1193 26.0597L33.9548 18.2242L36.1725 17.9351L39.1334 12.4751L37.8116 11.1533Z" fill="#E2E4E5"/>
<path d="M37.8116 11.1533L32.3475 14.046L32.0262 16.296L24.1912 24.1311L25.2566 25.1965L38.5557 11.8974L37.8116 11.1533Z" fill="white"/>
<path d="M23.8713 23.8091C23.8292 23.7668 23.7791 23.7333 23.7239 23.7104C23.6688 23.6876 23.6097 23.6758 23.55 23.6758C23.4903 23.6758 23.4312 23.6876 23.376 23.7104C23.3209 23.7333 23.2708 23.7668 23.2286 23.8091L21.9427 25.095C21.7735 25.2644 21.5626 25.3863 21.3312 25.4482C21.0998 25.5101 20.8562 25.51 20.625 25.4477C20.3936 25.386 20.15 25.3862 19.9187 25.4483C19.6874 25.5105 19.4766 25.6324 19.3073 25.8018L11.0145 34.0941C10.19 34.9186 11.1436 36.6731 12.4836 37.97L25.2582 25.1959L23.8713 23.8091Z" fill="#FA5655"/>
</svg>
