<svg width="115" height="115" viewBox="0 0 115 115" fill="none" xmlns="http://www.w3.org/2000/svg">
<rect width="115" height="115" rx="34" fill="white"/>
<path d="M78.9059 67.2104C89.851 67.2104 98.7238 58.317 98.7238 47.3465C98.7238 36.3759 89.851 27.4825 78.9059 27.4825C67.9607 27.4825 59.088 36.3759 59.088 47.3465C59.088 58.317 67.9607 67.2104 78.9059 67.2104Z" fill="#90CFF1"/>
<path d="M64.3727 47.3465C64.3727 37.2821 71.7714 29.0717 81.5483 27.7474C80.7556 27.7474 79.6986 27.4825 78.9059 27.4825C68.0721 27.4825 59.088 36.4875 59.088 47.3465C59.088 58.2054 68.0721 67.2104 78.9059 67.2104C79.6986 67.2104 80.7556 67.2104 81.5483 66.9455C71.7714 65.6212 64.3727 57.4108 64.3727 47.3465Z" fill="#70B7E6"/>
<path d="M78.9059 61.9133C86.9323 61.9133 93.4391 55.3915 93.4391 47.3465C93.4391 39.3014 86.9323 32.7796 78.9059 32.7796C70.8795 32.7796 64.3727 39.3014 64.3727 47.3465C64.3727 55.3915 70.8795 61.9133 78.9059 61.9133Z" fill="#EEF2FA"/>
<path d="M69.6575 47.3465C69.6575 40.1955 74.6781 34.3687 81.5483 33.0445C80.7556 32.7796 79.6986 32.7796 78.9059 32.7796C70.9787 32.7796 64.3727 39.4009 64.3727 47.3465C64.3727 55.292 70.9787 61.9133 78.9059 61.9133C79.6986 61.9133 80.7556 61.9133 81.5483 61.6485C74.6781 60.3242 69.6575 54.4975 69.6575 47.3465Z" fill="#D5E5F2"/>
<path d="M78.9059 27.4825H77.5847V32.7796C77.5847 33.5741 78.1132 34.1038 78.9059 34.1038C79.6986 34.1038 80.2271 33.5741 80.2271 32.7796V27.4825H78.9059ZM78.9059 60.5891C78.1132 60.5891 77.5847 61.1188 77.5847 61.9133V67.2104H80.2271V61.9133C80.2271 61.1188 79.6986 60.5891 78.9059 60.5891ZM87.0973 29.3365L86.0404 31.4553C85.7761 31.985 86.0404 32.7796 86.5688 33.3093C86.8331 33.3093 87.0973 33.5741 87.0973 33.5741C87.6258 33.5741 87.89 33.3093 88.1543 32.7796L89.4755 30.6608C88.6828 30.1311 88.1543 29.6014 87.0973 29.3365ZM94.496 39.9306L96.6099 38.6063C96.3457 37.8118 95.8172 37.0172 95.2887 36.2227L93.1748 37.5469C92.6464 37.8118 92.3821 38.6063 92.6464 39.4009C92.9106 39.9306 93.4391 40.1954 93.7033 40.1954C93.9675 40.1954 94.2318 39.9306 94.496 39.9306ZM98.7239 46.0222H93.4391C92.6464 45.7573 92.1179 46.5519 92.1179 47.3465C92.1179 48.141 92.6464 48.6707 93.4391 48.6707H98.7239V46.0222ZM89.4755 52.6435H81.5483C81.2841 52.6435 80.7556 52.3786 80.4913 52.1138C80.2271 51.8489 80.2271 51.3192 80.2271 51.0544L82.341 40.4603C82.341 39.6657 83.1337 39.4009 83.6622 39.4009C84.4549 39.6657 84.9834 40.1954 84.7192 40.99L83.1337 49.995H89.4755C90.2682 49.995 90.7967 50.5247 90.7967 51.3192C90.7967 52.1138 90.2682 52.6435 89.4755 52.6435Z" fill="#004463"/>
<path d="M86.8331 55.292C86.0403 55.292 85.5119 54.7623 85.5119 53.9678V46.0222C85.5119 45.2277 86.0403 44.698 86.8331 44.698C87.6258 44.698 88.1543 45.2277 88.1543 46.0222V53.9678C88.1543 54.7623 87.6258 55.292 86.8331 55.292ZM76.2635 55.292H68.3363C67.8078 55.292 67.2794 55.0272 67.0151 54.4975C66.7509 53.9678 67.0151 53.4381 67.2794 53.1732L74.1496 46.5519C74.6781 46.0222 74.9423 45.4925 74.9423 44.698C74.9423 43.1088 73.8853 42.0494 72.2999 42.0494C70.7145 42.0494 69.6575 43.1088 69.6575 44.698C69.6575 45.4925 69.129 46.0222 68.3363 46.0222C67.5436 46.0222 67.0151 45.2277 67.0151 44.698C67.0151 41.7846 69.3933 39.4009 72.2999 39.4009C75.2065 39.4009 77.5847 41.7846 77.5847 44.698C77.5847 46.0222 77.0562 47.3465 75.9993 48.4059L71.5072 52.6435H76.2635C77.0562 52.6435 77.5847 53.1732 77.5847 53.9678C77.5847 54.7623 77.0562 55.292 76.2635 55.292ZM94.496 54.4975C93.9675 54.2326 93.1748 54.4975 92.6463 55.0272C92.3821 55.5569 92.6463 56.3514 93.1748 56.8812L95.553 58.2054C96.0814 57.4109 96.3457 56.6163 96.8741 55.8217L94.496 54.4975ZM88.6827 61.6485C88.4185 61.1188 87.6258 60.8539 86.8331 61.1188C86.3046 61.3836 86.0403 62.1782 86.3046 62.9727L87.6258 65.3564C88.4185 65.0916 89.2112 64.5619 90.0039 64.0322L88.6827 61.6485ZM71.243 61.3836C70.7145 61.1188 69.9218 61.3836 69.3933 61.9133L68.3363 64.0322C69.129 64.5619 69.9218 64.8267 70.7145 65.3564L72.0357 62.9727C72.0357 62.443 72.0357 61.6485 71.243 61.3836ZM69.129 33.0445C69.3933 33.5742 69.9218 33.839 70.186 33.839C70.4502 33.839 70.7145 33.839 70.7145 33.5742C71.2429 33.3093 71.5072 32.5148 71.243 31.7202L69.9218 29.6014C69.129 29.8662 68.3363 30.3959 67.5436 30.9256L69.129 33.0445ZM55.3886 64.8267H48.7826C47.9899 64.8267 47.4614 64.297 47.4614 63.5025C47.4614 62.7079 47.9899 62.1782 48.7826 62.1782H55.3886C58.2952 62.1782 60.6734 59.7945 60.6734 56.8812V53.7029C60.6734 52.9084 61.2019 52.3787 61.9946 52.3787C62.7873 52.3787 63.3158 52.9084 63.3158 53.7029V56.8812C63.3158 61.1188 59.8807 64.8267 55.3886 64.8267Z" fill="#004463"/>
<path d="M32.3998 56.8812H28.4362C26.8508 56.8812 25.7938 55.8218 25.7938 54.2327V52.9084C25.7938 51.3193 26.8508 50.2599 28.4362 50.2599H32.3998V56.8812Z" fill="#607D95"/>
<path d="M26.058 55.5569H27.6435C28.4362 55.5569 28.9647 55.0272 28.9647 54.2327V50.2599H30.2859V56.8812H28.4362C27.3792 56.8812 26.5865 56.3515 26.058 55.5569Z" fill="#4B6C85"/>
<path d="M56.7098 56.8812H60.6734C62.2588 56.8812 63.3158 55.8218 63.3158 54.2327V52.9084C63.3158 51.3193 62.2588 50.2599 60.6734 50.2599H56.7098V56.8812Z" fill="#607D95"/>
<path d="M63.0516 55.5569H61.4661C60.6734 55.5569 60.1449 55.0272 60.1449 54.2327V50.2599H58.8237V56.8812H60.9376C61.7304 56.8812 62.5231 56.3515 63.0516 55.5569Z" fill="#4B6C85"/>
<path d="M36.8919 74.6262L24.4726 78.8639C19.9806 80.453 16.8097 84.6906 16.8097 89.4579V99.2575H72.2999V89.4579C72.2999 84.6906 69.1291 80.453 64.637 78.8639L52.2177 74.6262H36.8919Z" fill="#D5E5F2"/>
<path d="M43.2336 74.3613H36.8919L24.4726 78.599C20.509 79.9232 16.8097 84.4257 16.8097 89.193V99.2574H21.3018V89.4579C21.3018 86.2797 23.6799 83.3663 26.5865 82.5717L31.6071 80.9826C33.721 80.1881 35.8349 80.7178 37.4204 81.7772C37.9488 81.7772 39.27 82.3069 39.5343 82.5717C40.8555 83.3663 42.7051 83.3663 44.0263 82.5717C46.4045 81.2475 49.5754 78.8638 49.5754 75.9504L48.7826 74.3613H43.2336ZM72.2999 98.9926V89.193C72.2999 87.0742 71.7715 85.2203 70.7145 83.6312C64.1085 84.4257 59.088 89.9876 59.088 96.8738V98.9926H72.2999Z" fill="#B0C4DA"/>
<path d="M16.8097 98.9926V89.1931C16.8097 87.0742 17.3382 85.2203 18.3951 83.6312C25.0011 84.4257 30.0217 89.9876 30.0217 96.8738V98.9926H16.8097Z" fill="#B0C4DA"/>
<path d="M21.3017 89.1931C21.3017 87.6039 21.8302 86.0148 22.8872 84.9554C21.566 84.1609 19.9805 83.896 18.6593 83.6312C17.6024 85.2203 17.0739 87.3391 17.0739 89.1931V98.9926H21.566L21.3017 89.1931Z" fill="#99B5CE"/>
<path d="M36.8918 65.6212V74.3613C36.8918 78.599 44.5548 82.042 44.5548 82.042C44.5548 82.042 52.2177 78.599 52.2177 74.3613V65.6212H36.8918Z" fill="#F0C9AE"/>
<path d="M36.8918 70.1237C39.0058 71.448 41.9124 72.5074 44.5548 72.5074C47.4614 72.5074 50.1038 71.7129 52.2177 70.1237V65.8861H36.8918V70.1237Z" fill="#E2B698"/>
<path d="M41.1197 74.6262V69.0643H36.8918V74.6262C36.8918 78.8639 44.5548 82.3069 44.5548 82.3069L46.6687 81.2475C44.5548 79.6584 41.1197 77.2747 41.1197 74.6262Z" fill="#E2B698"/>
<path d="M58.8238 41.2548V55.5568C58.8238 63.5024 52.482 70.1237 44.2906 70.1237C36.3634 70.1237 29.7574 63.7673 29.7574 55.5568V41.2548" fill="#F0C9AE"/>
<path d="M34.5137 56.3514V53.7029C34.5137 51.849 36.0992 50.2598 37.9488 50.5247C43.4978 51.5841 49.3111 50.2598 53.8032 46.8168C54.5959 46.2871 55.6529 46.8168 55.6529 47.6113V43.3737C55.6529 42.5791 54.5959 42.0494 53.8032 42.5791C49.3111 46.0222 43.4978 47.3465 37.9488 46.2871L35.8349 45.7574C35.3064 45.7574 35.0422 46.0222 34.778 46.0222L33.721 46.5519V47.0816C33.4568 47.3465 33.4568 47.8762 33.4568 48.141C33.4568 49.4653 32.3998 50.2598 31.3428 50.2598H30.2859V55.8217C30.2859 60.8539 32.9283 65.3564 36.8919 68.0049C35.3064 64.297 34.5137 60.3242 34.5137 56.3514Z" fill="#E2B698"/>
<path d="M30.2859 50.2598H31.3429C32.6641 50.2598 33.4568 49.2004 33.4568 48.141C33.4568 46.8167 34.5137 46.0222 35.5707 46.0222L37.9488 46.5519C43.4979 47.6113 49.3111 46.287 53.8032 42.8439C54.5959 42.3142 55.6529 42.8439 55.6529 43.6385V48.141C55.6529 49.4652 56.7098 50.2598 57.7668 50.2598H58.8237L60.9376 43.1088C61.7304 39.6657 59.3522 36.7523 55.9171 36.7523V36.4875C55.9171 32.5147 52.482 29.6013 48.5184 30.131L33.1925 32.7796C29.7574 33.3093 27.3793 36.7523 27.9077 40.4603L30.2859 50.2598Z" fill="#8A6845"/>
<path d="M32.3998 40.4602C31.8713 36.7523 34.2495 33.3092 37.6846 32.7795L51.425 30.3959C50.3681 30.131 49.5754 29.8662 48.5184 30.131L33.1925 32.7795C29.7574 33.3092 27.3793 36.7523 27.9077 40.4602L30.0217 50.2598H31.3429C32.6641 50.2598 33.4568 49.2004 33.4568 48.141C33.4568 47.6112 33.721 47.3464 33.721 47.0815L32.3998 40.4602ZM60.1449 43.3736C60.1449 42.5791 59.088 42.0494 58.2953 42.5791C57.5025 43.1088 56.4456 43.6385 55.6529 44.1682V47.8761C55.6529 49.2004 56.7098 49.9949 57.7668 49.9949H58.8237L59.8807 46.287V43.3736H60.1449Z" fill="#745539"/>
<path d="M60.1449 59.2648C59.3522 60.8539 57.5025 62.1781 55.3886 62.1781H48.7826C47.9899 62.1781 47.4614 62.7079 47.4614 63.5024C47.4614 64.297 47.9899 64.8267 48.7826 64.8267H55.3886C58.8237 64.8267 61.9946 62.443 63.0515 59.2648H60.1449Z" fill="#004463"/>
</svg>
