<svg width="326" height="388" viewBox="0 0 326 388" fill="none" xmlns="http://www.w3.org/2000/svg">
<path d="M16.7349 71.3218C11.7281 72.5735 6.72134 77.5803 6.72134 83.8387V186.477C6.72134 280.354 71.8092 361.714 163.182 381.741C254.556 361.714 319.644 280.354 319.644 186.477V83.8387C319.644 77.5803 315.888 72.5735 309.63 71.3218C280.841 66.3151 253.304 56.3015 227.019 42.533C209.495 33.7711 193.223 22.5059 178.203 9.98905C169.441 2.47891 156.924 2.47891 148.162 9.98905C133.142 21.2542 116.87 31.2678 99.3463 40.0296C73.0609 55.0498 45.5237 65.0634 16.7349 71.3218Z" fill="#F59831"/>
<path d="M54.2855 100.111C49.2788 101.363 44.272 106.37 44.272 112.628V187.729C44.272 259.076 93.0879 320.408 163.182 336.68C233.277 321.66 282.093 259.076 282.093 187.729V101.363C257.059 97.6078 233.277 90.0977 211.998 78.8325C194.475 70.0706 178.203 57.5538 163.182 45.0369C148.162 57.5538 131.89 68.819 114.367 77.5808C95.5913 87.5943 74.3125 95.1044 54.2855 100.111Z" fill="#FDD331"/>
<path d="M119.373 161.445H206.992C214.502 161.445 219.508 166.451 219.508 173.961V236.546C219.508 244.056 214.502 249.063 206.992 249.063H119.373C111.863 249.063 106.856 244.056 106.856 236.546V173.961C106.856 166.451 111.863 161.445 119.373 161.445Z" fill="#3EB57B"/>
<path d="M163.182 224.028C173.552 224.028 181.958 215.622 181.958 205.252C181.958 194.883 173.552 186.477 163.182 186.477C152.813 186.477 144.407 194.883 144.407 205.252C144.407 215.622 152.813 224.028 163.182 224.028Z" fill="#DAD9DB"/>
<path d="M310.882 66.3158C282.093 61.309 255.807 51.2955 229.522 38.7786C211.998 30.0168 196.978 18.7516 181.958 7.48641C170.693 -1.27542 155.672 -1.27542 144.407 7.48641C128.135 17.4999 113.115 27.5134 95.5913 36.2752C70.5575 48.7921 43.0203 58.8056 14.2315 66.3158C6.72133 67.5675 0.462891 75.0776 0.462891 83.8394V186.478C0.462891 282.858 66.8024 366.721 161.931 388H163.182H164.434C258.311 366.721 325.902 282.858 325.902 186.478V83.8394C325.902 75.0776 319.644 67.5675 310.882 66.3158ZM313.385 186.478C313.385 276.6 250.801 354.204 163.182 375.483C75.5642 354.204 12.9798 276.6 12.9798 186.478V83.8394C12.9798 81.3361 15.4832 78.8327 17.9865 77.581C46.7754 71.3225 75.5642 61.309 101.85 47.5405C119.373 38.7786 135.645 28.7651 150.666 16.2482C156.924 11.2415 166.938 11.2415 173.196 16.2482C188.216 28.7651 205.74 40.0303 223.264 48.7921C249.549 62.5607 278.338 72.5742 307.127 77.581C309.63 77.581 312.133 80.0844 312.133 83.8394V186.478H313.385ZM273.331 93.8529C253.304 90.0979 233.277 82.5877 214.502 72.5742C200.733 65.0641 186.965 56.3023 174.448 46.2888C168.189 40.0303 158.176 40.0303 150.666 46.2888C138.149 56.3023 124.38 65.0641 110.612 71.3225C91.8362 81.3361 71.8092 88.8462 51.7821 93.8529C44.272 95.1046 38.0136 102.615 38.0136 111.377V186.478C38.0136 260.328 89.3328 324.164 161.931 341.687H163.182H164.434C237.032 325.415 288.351 261.579 288.351 186.478V111.377C288.351 103.866 282.093 95.1046 273.331 93.8529ZM275.834 187.73C275.834 255.321 229.522 314.15 163.182 330.422C96.8429 314.15 50.5304 255.321 50.5304 187.73V112.628C50.5304 110.125 53.0338 107.622 55.5372 106.37C76.8159 101.363 98.0946 93.8529 118.122 83.8394C133.142 76.3293 146.91 67.5675 159.427 57.554C160.679 55.0506 161.931 55.0506 163.182 55.0506C164.434 55.0506 165.686 55.0506 166.938 56.3023C179.454 67.5675 194.475 76.3293 209.495 85.0911C229.522 95.1046 249.549 102.615 272.079 106.37C274.583 106.37 277.086 110.125 277.086 112.628V187.73H275.834ZM163.182 180.219C149.414 180.219 138.149 191.485 138.149 205.253C138.149 219.022 149.414 230.287 163.182 230.287C176.951 230.287 188.216 219.022 188.216 205.253C188.216 191.485 176.951 180.219 163.182 180.219ZM163.182 217.77C155.672 217.77 150.666 212.763 150.666 205.253C150.666 197.743 155.672 192.736 163.182 192.736C170.693 192.736 175.699 197.743 175.699 205.253C175.699 212.763 170.693 217.77 163.182 217.77ZM206.992 155.186H200.733V142.669C200.733 121.39 184.461 105.118 163.182 105.118C141.904 105.118 125.632 121.39 125.632 142.669V155.186H119.373C109.36 155.186 100.598 163.948 100.598 173.961V236.545C100.598 246.559 109.36 255.321 119.373 255.321H206.992C217.005 255.321 225.767 246.559 225.767 236.545V173.961C225.767 163.948 217.005 155.186 206.992 155.186ZM138.149 142.669C138.149 128.9 149.414 117.635 163.182 117.635C176.951 117.635 188.216 128.9 188.216 142.669V155.186H138.149V142.669ZM213.25 236.545C213.25 240.301 210.747 242.804 206.992 242.804H119.373C115.618 242.804 113.115 240.301 113.115 236.545V173.961C113.115 170.206 115.618 167.703 119.373 167.703H206.992C210.747 167.703 213.25 170.206 213.25 173.961V236.545Z" fill="black"/>
</svg>
