<svg width="38" height="44" viewBox="0 0 38 44" fill="none" xmlns="http://www.w3.org/2000/svg">
<path d="M35.1852 4.22266H2.81481C1.26024 4.22266 0 5.48289 0 7.03747V40.8152C0 42.3698 1.26024 43.6301 2.81481 43.6301H35.1852C36.7398 43.6301 38 42.3698 38 40.8152V7.03747C38 5.48289 36.7398 4.22266 35.1852 4.22266Z" fill="#D9D8DA"/>
<path d="M8.44366 18.2974H4.22144V22.5196H8.44366V18.2974Z" fill="#57565D"/>
<path d="M8.44366 26.7422H4.22144V30.9644H8.44366V26.7422Z" fill="#57565D"/>
<path d="M8.44366 35.186H4.22144V39.4083H8.44366V35.186Z" fill="#57565D"/>
<path d="M25.3309 18.2974H21.1086V22.5196H25.3309V18.2974Z" fill="#57565D"/>
<path d="M25.3309 26.7422H21.1086V30.9644H25.3309V26.7422Z" fill="#57565D"/>
<path d="M16.886 26.7422H12.6638V30.9644H16.886V26.7422Z" fill="#57565D"/>
<path d="M16.886 35.186H12.6638V39.4083H16.886V35.186Z" fill="#57565D"/>
<path d="M25.3309 35.186H21.1086V39.4083H25.3309V35.186Z" fill="#57565D"/>
<path d="M33.7759 18.2974H29.5537V22.5196H33.7759V18.2974Z" fill="#57565D"/>
<path d="M33.7759 26.7422H29.5537V30.9644H33.7759V26.7422Z" fill="#57565D"/>
<path d="M14.0019 23.1212H13.9583C13.8345 23.1142 13.7147 23.0745 13.6112 23.0063C13.5076 22.9381 13.4239 22.8437 13.3686 22.7328L11.9611 19.9179C11.9198 19.8352 11.8952 19.7452 11.8887 19.653C11.8822 19.5608 11.8939 19.4682 11.9232 19.3805C11.9525 19.2928 11.9987 19.2117 12.0593 19.1419C12.1199 19.0721 12.1937 19.0149 12.2764 18.9736C12.3591 18.9323 12.4491 18.9077 12.5414 18.9011C12.6336 18.8946 12.7262 18.9063 12.8139 18.9356C12.9016 18.9649 12.9826 19.0112 13.0525 19.0718C13.1223 19.1324 13.1795 19.2061 13.2208 19.2888L14.0863 21.0185L16.2284 17.8054C16.332 17.6501 16.493 17.5424 16.6761 17.5058C16.8591 17.4693 17.0492 17.5069 17.2044 17.6105C17.3597 17.7141 17.4675 17.8751 17.504 18.0581C17.5406 18.2412 17.503 18.4313 17.3994 18.5865L14.5846 22.8088C14.5205 22.9046 14.4338 22.9832 14.3322 23.0377C14.2306 23.0922 14.1172 23.1208 14.0019 23.1212ZM30.8908 40.0101H30.8472C30.7233 40.0031 30.6036 39.9634 30.5 39.8952C30.3965 39.827 30.3128 39.7326 30.2574 39.6217L28.85 36.8068C28.7666 36.6398 28.753 36.4465 28.8121 36.2694C28.8712 36.0923 28.9983 35.9459 29.1653 35.8625C29.3323 35.779 29.5257 35.7654 29.7028 35.8245C29.8799 35.8836 30.0262 36.0107 30.1097 36.1777L30.9752 37.9074L33.1173 34.6943C33.2209 34.539 33.3819 34.4313 33.5649 34.3947C33.748 34.3582 33.9381 34.3958 34.0933 34.4994C34.2486 34.603 34.3564 34.764 34.3929 34.947C34.4295 35.1301 34.3918 35.3202 34.2883 35.4754L31.4734 39.6977C31.4093 39.7935 31.3227 39.8721 31.2211 39.9266C31.1195 39.981 31.0061 40.0097 30.8908 40.0101Z" fill="#55BB8C"/>
<path d="M38 7.03747V14.0745H0V7.03747C0.00222754 6.29162 0.299503 5.57696 0.826901 5.04956C1.3543 4.52216 2.06896 4.22488 2.81481 4.22266H35.1852C35.931 4.22488 36.6457 4.52216 37.1731 5.04956C37.7005 5.57696 37.9978 6.29162 38 7.03747Z" fill="#ED456A"/>
<path d="M8.44366 2.11111C8.44366 0.945176 7.49848 0 6.33255 0C5.16661 0 4.22144 0.945176 4.22144 2.11111V6.33333C4.22144 7.49926 5.16661 8.44444 6.33255 8.44444C7.49848 8.44444 8.44366 7.49926 8.44366 6.33333V2.11111Z" fill="#57565D"/>
<path d="M33.7759 2.11111C33.7759 0.945176 32.8308 0 31.6648 0C30.4989 0 29.5537 0.945176 29.5537 2.11111V6.33333C29.5537 7.49926 30.4989 8.44444 31.6648 8.44444C32.8308 8.44444 33.7759 7.49926 33.7759 6.33333V2.11111Z" fill="#57565D"/>
</svg>
