<svg width="46" height="47" viewBox="0 0 46 47" fill="none" xmlns="http://www.w3.org/2000/svg">
<path d="M39.5821 8.08461V44.4559C39.5793 44.8807 39.4094 45.2872 39.109 45.5875C38.8087 45.8878 38.4022 46.0578 37.9775 46.0606H17.6523C16.962 46.0636 16.2757 45.9552 15.6198 45.7396C14.1967 45.3082 12.95 44.4305 12.0639 43.2362C11.1778 42.0419 10.6993 40.5943 10.699 39.1072V5.94512C10.699 4.46887 7.36138 3.27076 5.88514 3.27076C5.45956 3.27076 5.05142 3.1017 4.7505 2.80078C4.44957 2.49985 4.28052 2.09171 4.28052 1.66614C4.28052 1.24057 4.44957 0.832429 4.7505 0.531505C5.05142 0.230581 5.45956 0.0615234 5.88514 0.0615234H31.559C33.6867 0.0620906 35.7271 0.90756 37.2316 2.41206C38.7361 3.91656 39.5815 5.95693 39.5821 8.08461Z" fill="#00AA5B"/>
<path d="M1.48792 1.45353C1.01219 1.83289 0.630498 2.31698 0.37258 2.86807C0.114662 3.41916 -0.012512 4.02237 0.000970335 4.63067V20.388C0.000970335 21.5229 0.45179 22.6112 1.25425 23.4137C2.05672 24.2162 3.14509 24.667 4.27995 24.667H10.6984V5.41159C10.6833 4.35154 10.3616 3.31855 9.77208 2.43739C9.18261 1.55622 8.35061 0.864585 7.37659 0.446014C6.40256 0.0274435 5.32817 -0.100154 4.2832 0.078635C3.23823 0.257424 2.26738 0.73495 1.48792 1.45353ZM46 33.7598V40.1783C46.0006 40.9511 45.8488 41.7164 45.5533 42.4305C45.2578 43.1446 44.8244 43.7934 44.278 44.3399C43.7315 44.8863 43.0827 45.3197 42.3686 45.6152C41.6545 45.9106 40.8892 46.0624 40.1164 46.0619H17.6518C16.9614 46.0649 16.2751 45.9565 15.6192 45.741C17.5765 45.2542 19.3144 44.1258 20.5553 42.5358C21.7963 40.9458 22.4688 38.986 22.4656 36.969V32.1552H44.3954C44.8201 32.158 45.2266 32.328 45.5269 32.6283C45.8272 32.9286 45.9972 33.3351 46 33.7598Z" fill="#145638"/>
<path d="M27.2786 11.8284H16.5812C16.1556 11.8284 15.7475 11.6593 15.4465 11.3584C15.1456 11.0575 14.9766 10.6493 14.9766 10.2238C14.9766 9.79819 15.1456 9.39005 15.4465 9.08912C15.7475 8.7882 16.1556 8.61914 16.5812 8.61914H27.2786C27.7042 8.61914 28.1123 8.7882 28.4133 9.08912C28.7142 9.39005 28.8832 9.79819 28.8832 10.2238C28.8832 10.6493 28.7142 11.0575 28.4133 11.3584C28.1123 11.6593 27.7042 11.8284 27.2786 11.8284ZM33.6971 18.2468H16.5812C16.1556 18.2468 15.7475 18.0778 15.4465 17.7769C15.1456 17.4759 14.9766 17.0678 14.9766 16.6422C14.9766 16.2167 15.1456 15.8085 15.4465 15.5076C15.7475 15.2067 16.1556 15.0376 16.5812 15.0376H33.6971C34.1227 15.0376 34.5308 15.2067 34.8317 15.5076C35.1327 15.8085 35.3017 16.2167 35.3017 16.6422C35.3017 17.0678 35.1327 17.4759 34.8317 17.7769C34.5308 18.0778 34.1227 18.2468 33.6971 18.2468ZM33.6971 24.6653H16.5812C16.1556 24.6653 15.7475 24.4963 15.4465 24.1953C15.1456 23.8944 14.9766 23.4863 14.9766 23.0607C14.9766 22.6351 15.1456 22.227 15.4465 21.9261C15.7475 21.6251 16.1556 21.4561 16.5812 21.4561H33.6971C34.1227 21.4561 34.5308 21.6251 34.8317 21.9261C35.1327 22.227 35.3017 22.6351 35.3017 23.0607C35.3017 23.4863 35.1327 23.8944 34.8317 24.1953C34.5308 24.4963 34.1227 24.6653 33.6971 24.6653Z" fill="white"/>
</svg>
