<svg width="115" height="115" viewBox="0 0 115 115" fill="none" xmlns="http://www.w3.org/2000/svg">
<rect width="115" height="115" rx="34" fill="white"/>
<path d="M91.6599 86.6156L92.7189 88.5553L92.8724 88.8362L93.1531 88.9898L95.0913 90.0496L93.1531 91.1094L92.8724 91.263L92.7189 91.5439L91.6599 93.4836L90.6009 91.5439L90.4474 91.263L90.1668 91.1094L88.2285 90.0496L90.1668 88.9898L90.4474 88.8362L90.6009 88.5553L91.6599 86.6156ZM91.6599 84.3292L89.6384 88.0287L85.9417 90.0518L89.6384 92.0749L91.6599 95.7744L93.6815 92.0749L97.3782 90.0518L93.6815 88.0287L91.6599 84.3292ZM98.4087 79.673L98.8713 80.5199L99.0248 80.8008L99.3054 80.9544L100.152 81.4174L99.3054 81.8804L99.0248 82.034L98.8713 82.3148L98.4087 83.1618L97.946 82.3148L97.7926 82.034L97.5119 81.8804L96.6656 81.4174L97.5119 80.9544L97.7926 80.8008L97.946 80.5199L98.4087 79.673ZM98.4087 77.3865L96.9835 79.9933L94.3787 81.4196L96.9835 82.8458L98.4087 85.4526L99.8338 82.8458L102.439 81.4196L99.8338 79.9933L98.4087 77.3865ZM12.9223 32.209L13.9814 34.1488L14.1348 34.4296L14.4155 34.5832L16.3537 35.643L14.4155 36.7029L14.1348 36.8565L13.9814 37.1373L12.9223 39.077L11.8633 37.1373L11.7099 36.8565L11.4292 36.7029L9.49097 35.643L11.4292 34.5832L11.7099 34.4296L11.8633 34.1488L12.9223 32.209ZM12.9223 29.9204L10.9008 33.6199L7.20411 35.643L10.9008 37.6661L12.9223 41.3657L14.9439 37.6661L18.6406 35.643L14.9439 33.6199L12.9223 29.9204ZM19.6711 22.4512L20.1337 23.2982L20.2872 23.579L20.5679 23.7326L21.4142 24.1956L20.5679 24.6586L20.2872 24.8122L20.1337 25.0931L19.6711 25.94L19.2085 25.0931L19.055 24.8122L18.7743 24.6586L17.928 24.1956L18.7743 23.7326L19.055 23.579L19.2085 23.2982L19.6711 22.4512ZM19.6711 20.1648L18.2459 22.7715L15.6411 24.1978L18.2459 25.6241L19.6711 28.2308L21.0963 25.6241L23.7011 24.1978L21.0963 22.7715L19.6711 20.1648ZM100.095 20.0134L101.154 21.9531L101.307 22.234L101.588 22.3875L103.526 23.4474L101.588 24.5072L101.307 24.6608L101.154 24.9417L100.095 26.8814L99.0357 24.9417L98.8823 24.6608L98.6016 24.5072L96.6634 23.4474L98.6016 22.3875L98.8823 22.234L99.0357 21.9531L100.095 20.0134ZM100.095 17.727L98.0732 21.4265L94.3765 23.4496L98.0732 25.4727L100.095 29.1722L102.116 25.4727L105.813 23.4496L102.116 21.4265L100.095 17.727ZM104.033 31.8316L104.495 32.6786L104.649 32.9595L104.929 33.1131L105.776 33.5761L104.929 34.039L104.649 34.1926L104.495 34.4735L104.033 35.3205L103.57 34.4735L103.417 34.1926L103.136 34.039L102.29 33.5761L103.136 33.1131L103.417 32.9595L103.57 32.6786L104.033 31.8316ZM104.033 29.5452L102.607 32.152L100.003 33.5782L102.607 35.0045L104.033 37.6113L105.458 35.0045L108.063 33.5782L105.458 32.152L104.033 29.5452ZM89.9716 17.7621L90.4343 18.609L90.5877 18.8899L90.8684 19.0435L91.7147 19.5065L90.8684 19.9695L90.5877 20.1231L90.4343 20.4039L89.9716 21.2509L89.509 20.4039L89.3555 20.1231L89.0749 19.9695L88.2285 19.5065L89.0749 19.0435L89.3555 18.8899L89.509 18.609L89.9716 17.7621ZM89.9716 15.4756L88.5465 18.0824L85.9417 19.5087L88.5465 20.935L89.9716 23.5417L91.3968 20.935L94.0016 19.5087L91.3968 18.0824L89.9716 15.4756ZM19.4825 87.5547L20.5415 89.4944L20.695 89.7753L20.9757 89.9289L22.9139 90.9887L20.9757 92.0485L20.695 92.2021L20.5415 92.483L19.4825 94.4227L18.4235 92.483L18.27 92.2021L17.9894 92.0485L16.0512 90.9887L17.9894 89.9289L18.27 89.7753L18.4235 89.4944L19.4825 87.5547ZM19.4825 85.2683L17.461 88.9678L13.7643 90.9909L17.461 93.014L19.4825 96.7135L21.5041 93.014L25.2008 90.9909L21.5041 88.9678L19.4825 85.2683ZM29.9806 93.7447L30.4432 94.5917L30.5967 94.8726L30.8773 95.0261L31.7237 95.4891L30.8773 95.9521L30.5967 96.1057L30.4432 96.3866L29.9806 97.2336L29.518 96.3866L29.3645 96.1057L29.0838 95.9521L28.2375 95.4891L29.0838 95.0261L29.3645 94.8726L29.518 94.5917L29.9806 93.7447ZM29.9806 91.4583L28.5554 94.0651L25.9506 95.4913L28.5554 96.9176L29.9806 99.5244L31.4058 96.9176L34.0105 95.4913L31.4058 94.0651L29.9806 91.4583ZM15.9218 79.673L16.3844 80.5199L16.5379 80.8008L16.8186 80.9544L17.6649 81.4174L16.8186 81.8804L16.5379 82.034L16.3844 82.3148L15.9218 83.1618L15.4592 82.3148L15.3057 82.034L15.025 81.8804L14.1765 81.4218L15.0228 80.9588L15.3035 80.8052L15.457 80.5243L15.9218 79.673ZM15.9218 77.3865L14.4966 79.9933L11.8918 81.4196L14.4966 82.8458L15.9218 85.4526L17.347 82.8458L19.9517 81.4196L17.347 79.9933L15.9218 77.3865Z" fill="#82EA4B"/>
<path d="M57.9995 96.5753C80.1473 96.5753 98.1017 78.6072 98.1017 56.4424C98.1017 34.2776 80.1473 16.3094 57.9995 16.3094C35.8517 16.3094 17.8973 34.2776 17.8973 56.4424C17.8973 78.6072 35.8517 96.5753 57.9995 96.5753Z" fill="#A1F27C"/>
<path d="M57.9995 16.858C63.3406 16.858 68.5195 17.9047 73.3958 19.9694C78.1054 21.964 82.3371 24.8166 85.9702 28.4524C89.6033 32.0883 92.4558 36.321 94.4467 41.0365C96.5099 45.9165 97.5536 51.0993 97.5536 56.4445C97.5536 61.7897 96.5077 66.9726 94.4467 71.8526C92.4536 76.5658 89.6033 80.8008 85.9702 84.4366C82.3371 88.0725 78.1076 90.9273 73.3958 92.9196C68.5195 94.9844 63.3406 96.0289 57.9995 96.0289C52.6584 96.0289 47.4795 94.9822 42.6032 92.9196C37.8936 90.9251 33.6619 88.0725 30.0288 84.4366C26.3957 80.8008 23.5432 76.568 21.5523 71.8526C19.4891 66.9726 18.4433 61.7897 18.4433 56.4445C18.4433 51.0993 19.4891 45.9165 21.5523 41.0365C23.5454 36.3232 26.3957 32.0883 30.0288 28.4524C33.6619 24.8166 37.8914 21.9618 42.6032 19.9694C47.4795 17.9047 52.6606 16.858 57.9995 16.858ZM57.9995 15.7609C35.5475 15.7609 17.3492 33.9754 17.3492 56.4423C17.3492 78.9093 35.5497 97.1238 57.9995 97.1238C80.4493 97.1238 98.6499 78.9093 98.6499 56.4423C98.6499 33.9754 80.4515 15.7609 57.9995 15.7609Z" fill="#82EA4B"/>
<path d="M57.9995 16.858C63.3406 16.858 68.5195 17.9047 73.3958 19.9694C78.1054 21.964 82.3371 24.8166 85.9702 28.4524C89.6033 32.0883 92.4558 36.321 94.4467 41.0365C96.5099 45.9165 97.5536 51.0993 97.5536 56.4445C97.5536 61.7897 96.5077 66.9726 94.4467 71.8526C92.4536 76.5658 89.6033 80.8008 85.9702 84.4366C82.3371 88.0725 78.1076 90.9273 73.3958 92.9196C68.5195 94.9844 63.3406 96.0289 57.9995 96.0289C52.6584 96.0289 47.4795 94.9822 42.6032 92.9196C37.8936 90.9251 33.6619 88.0725 30.0288 84.4366C26.3957 80.8008 23.5432 76.568 21.5523 71.8526C19.4891 66.9726 18.4433 61.7897 18.4433 56.4445C18.4433 51.0993 19.4891 45.9165 21.5523 41.0365C23.5454 36.3232 26.3957 32.0883 30.0288 28.4524C33.6619 24.8166 37.8914 21.9618 42.6032 19.9694C47.4795 17.9047 52.6606 16.858 57.9995 16.858ZM57.9995 15.7609C35.5475 15.7609 17.3492 33.9754 17.3492 56.4423C17.3492 78.9093 35.5497 97.1238 57.9995 97.1238C80.4493 97.1238 98.6499 78.9093 98.6499 56.4423C98.6499 33.9754 80.4515 15.7609 57.9995 15.7609Z" fill="#82EA4B"/>
<path opacity="0.4" d="M57.9995 97.1238C80.4501 97.1238 98.6499 78.9101 98.6499 56.4423C98.6499 33.9746 80.4501 15.7609 57.9995 15.7609C35.5489 15.7609 17.3492 33.9746 17.3492 56.4423C17.3492 78.9101 35.5489 97.1238 57.9995 97.1238Z" fill="#B8EFAC"/>
<path d="M58.3569 84.1448H58.4468C75.5511 84.1448 80.8198 69.2919 80.8198 69.2919V37.179C62.8407 37.247 58.4051 30.5963 58.4051 30.5963C58.4051 30.5963 53.9696 37.247 35.9904 37.179V69.2941C35.9904 69.2941 41.2592 84.147 58.3635 84.147H58.4534H58.3569V84.1448Z" fill="#39B54A" stroke="#1B5629" stroke-width="5" stroke-miterlimit="10" stroke-linecap="round" stroke-linejoin="round"/>
<path d="M58.4074 33.6265C58.4074 33.6265 54.4739 39.5247 38.5295 39.4632V56.6267H58.3723L58.4074 33.6265ZM58.8086 81.5534H58.8897H58.802H58.8831C74.0514 81.5534 78.7259 68.3813 78.7259 68.3813V56.8812H58.8042V81.5534" fill="#33A03D"/>
<path d="M65.8643 71.1482H50.7596C48.8762 71.1482 47.3502 69.621 47.3502 67.7362V55.4725C47.3502 53.5876 48.8762 52.0604 50.7596 52.0604H65.8643C67.7477 52.0604 69.2737 53.5876 69.2737 55.4725V67.7362C69.2759 69.621 67.7477 71.1482 65.8643 71.1482Z" fill="#1B5629"/>
<path d="M59.6988 63.2599L58.9292 61.928C60.043 61.6515 60.8696 60.6466 60.8696 59.4463C60.8696 58.0332 59.7251 56.8856 58.3109 56.8856C56.8989 56.8856 55.7521 58.031 55.7521 59.4463C55.7521 60.6466 56.5787 61.6515 57.6926 61.928L56.923 63.2599L55.5395 65.6626H58.3109H61.0823L59.6988 63.2599Z" fill="#39B54A"/>
<path d="M58.3131 45.6949C62.3627 45.6949 65.6582 48.9929 65.6582 53.0457H67.8508C67.8508 47.7751 63.5796 43.5007 58.3131 43.5007C53.0465 43.5007 48.7754 47.7751 48.7754 53.0457H50.9679C50.9679 48.9929 54.2612 45.6949 58.3131 45.6949Z" fill="#1B5629"/>
<path d="M62.0426 82.2797C61.5559 82.2797 61.0581 82.1546 60.5977 81.8957C60.1592 81.6499 59.815 81.266 59.5606 80.8315L54.123 71.5783C53.428 70.3956 53.5793 68.8421 54.601 67.9271C55.9955 66.6785 58.0894 67.0625 58.9884 68.5897L62.7771 75.0343L83.2755 57.4495C84.317 56.5565 85.8715 56.4336 86.9525 57.2806C88.4259 58.4347 88.4149 60.5654 87.0709 61.7173L63.8997 81.5929C63.3801 82.0383 62.7201 82.2797 62.0426 82.2797Z" fill="#73FF99" stroke="#1B5629" stroke-width="3.045" stroke-miterlimit="10"/>
</svg>
