<svg width="53" height="52" viewBox="0 0 53 52" fill="none" xmlns="http://www.w3.org/2000/svg">
<path fill-rule="evenodd" clip-rule="evenodd" d="M45.616 0H7.51302C3.905 0 0.946289 2.95882 0.946289 6.56695V44.6697C0.946289 48.278 3.905 51.2367 7.51302 51.2367H45.616C49.2242 51.2367 52.183 48.278 52.183 44.6698V6.56695C52.183 2.95882 49.2242 0 45.616 0ZM40.1648 18.7519C40.1768 19.0501 40.1827 19.3485 40.1826 19.6469C40.1826 21.0187 40.0207 22.4211 39.7064 23.8137C37.9283 31.6975 31.1882 39.2945 20.221 39.2945C16.2615 39.2945 12.573 38.1523 9.46482 36.1915C10.0213 36.2569 10.5811 36.2895 11.1414 36.2891C14.428 36.2891 17.4521 35.1867 19.8539 33.3312C16.7838 33.2773 14.1948 31.2801 13.3009 28.5368C13.7302 28.6173 14.1689 28.6631 14.6196 28.6631C15.2634 28.6631 15.88 28.5767 16.4712 28.4195C14.1077 27.9484 12.1942 26.3136 11.3382 24.1471C11.0303 23.372 10.8733 22.5294 10.8733 21.6446V21.5576C11.834 22.0759 12.8874 22.3866 14.0356 22.423C12.1549 21.1839 10.907 19.0691 10.907 16.6751C10.907 15.4098 11.2507 14.2231 11.8525 13.2022C15.3118 17.3805 20.4789 20.131 26.3094 20.42C26.1901 19.9038 26.1296 19.3757 26.1293 18.8459C26.1293 15.0321 29.269 11.9398 33.1441 11.9398C35.1629 11.9398 36.9853 12.7767 38.2618 14.1196C39.832 13.8169 41.3393 13.2494 42.7193 12.4413C42.193 14.0564 41.0838 15.4098 39.634 16.2639C41.0543 16.0971 42.4047 15.7269 43.6624 15.1788C42.7247 16.5626 41.5332 17.7792 40.1648 18.7519Z" fill="#1A1A1A"/>
</svg>
