<svg width="200" height="65" viewBox="0 0 200 65" fill="none" xmlns="http://www.w3.org/2000/svg">
<path d="M86.7137 63.7641H70.404L80.5974 1.11937H96.9087L86.7137 63.7641ZM56.6834 1.11937L41.1345 44.2069L39.2945 34.9285L39.2962 34.9318L33.8083 6.75981C33.8083 6.75981 33.1447 1.11937 26.0715 1.11937H0.366142L0.0645142 2.18009C0.0645142 2.18009 7.92526 3.81558 17.1249 9.34039L31.2947 63.7657H48.2881L74.2364 1.11937H56.6834ZM184.967 63.7641H199.943L186.886 1.1177H173.775C167.721 1.1177 166.246 5.78622 166.246 5.78622L141.922 63.7641H158.923L162.323 54.4588H183.057L184.967 63.7641ZM167.02 41.6045L175.59 18.1613L180.411 41.6045H167.02ZM143.197 16.184L145.524 2.7314C145.524 2.7314 138.342 0 130.855 0C122.762 0 103.541 3.53742 103.541 20.7386C103.541 36.9226 126.1 37.1236 126.1 45.6245C126.1 54.1254 105.865 52.6022 99.1877 47.2416L96.7629 61.3075C96.7629 61.3075 104.046 64.8449 115.172 64.8449C126.302 64.8449 143.093 59.0821 143.093 43.3975C143.093 27.1096 120.332 25.5931 120.332 18.5116C120.333 11.4283 136.217 12.3382 143.197 16.184Z" fill="#2566AF"/>
<path d="M39.2961 34.9301L33.8082 6.75811C33.8082 6.75811 33.1446 1.11768 26.0714 1.11768H0.366081L0.0644531 2.1784C0.0644531 2.1784 12.4195 4.73888 24.2701 14.3323C35.6012 23.5018 39.2961 34.9301 39.2961 34.9301Z" fill="#E6A540"/>
</svg>
