<svg width="421" height="155" viewBox="0 0 421 155" fill="none" xmlns="http://www.w3.org/2000/svg">
<path d="M150.398 122.9C150.398 140.453 136.22 154.8 118.498 154.8C100.944 154.8 86.5977 140.453 86.5977 122.9C86.5977 105.347 100.775 91 118.329 91C136.22 91 150.398 105.347 150.398 122.9Z" fill="#FFB600"/>
<path d="M118.498 91C136.051 91 150.398 105.347 150.398 122.9C150.398 140.453 136.22 154.8 118.498 154.8C100.944 154.8 86.5977 140.453 86.5977 122.9" fill="#F7981D"/>
<path d="M118.498 91C136.051 91 150.398 105.347 150.398 122.9C150.398 140.453 136.22 154.8 118.498 154.8" fill="#FF8500"/>
<path d="M75.6269 91C58.2422 91.1688 44.0645 105.347 44.0645 122.9C44.0645 140.453 58.2422 154.8 75.9644 154.8C84.2348 154.8 91.6612 151.593 97.3999 146.53C98.5813 145.517 99.594 144.335 100.607 143.154H94.0242C93.1803 142.141 92.3364 140.96 91.6612 139.947H102.97C103.645 138.934 104.32 137.753 104.826 136.571H89.8046C89.2983 135.559 88.7919 134.377 88.4544 133.196H106.008C107.02 129.989 107.696 126.613 107.696 123.069C107.696 120.706 107.358 118.512 107.02 116.317H87.4417C87.6105 115.136 87.948 114.123 88.2856 112.942H105.839C105.501 111.76 104.995 110.579 104.489 109.566H89.6358C90.1422 108.385 90.8173 107.372 91.4925 106.19H102.801C102.126 105.009 101.282 103.828 100.269 102.815H94.0242C95.0369 101.633 96.0496 100.621 97.2311 99.6079C91.6612 94.3757 84.066 91.3376 75.7956 91.3376C75.7956 91 75.7956 91 75.6269 91Z" fill="#FF5050"/>
<path d="M44.0645 122.9C44.0645 140.453 58.2422 154.8 75.9644 154.8C84.2348 154.8 91.6612 151.593 97.3999 146.529C98.5813 145.517 99.594 144.335 100.607 143.154H94.0242C93.1803 142.141 92.3364 140.96 91.6612 139.947H102.97C103.645 138.934 104.32 137.753 104.826 136.571H89.8046C89.2983 135.559 88.7919 134.377 88.4544 133.196H106.008C107.02 129.989 107.696 126.613 107.696 123.069C107.696 120.706 107.358 118.511 107.02 116.317H87.4417C87.6105 115.136 87.948 114.123 88.2856 112.942H105.839C105.501 111.76 104.995 110.579 104.489 109.566H89.6358C90.1422 108.384 90.8173 107.372 91.4925 106.19H102.801C102.126 105.009 101.282 103.827 100.269 102.815H94.0242C95.0369 101.633 96.0496 100.62 97.2311 99.6078C91.6612 94.3755 84.066 91.3374 75.7956 91.3374H75.6269" fill="#E52836"/>
<path d="M75.9644 154.8C84.2347 154.8 91.6612 151.593 97.3998 146.529C98.5813 145.517 99.594 144.335 100.607 143.154H94.0241C93.1802 142.141 92.3363 140.96 91.6612 139.947H102.97C103.645 138.934 104.32 137.753 104.826 136.571H89.8046C89.2982 135.559 88.7919 134.377 88.4543 133.196H106.008C107.02 129.989 107.696 126.613 107.696 123.069C107.696 120.706 107.358 118.511 107.02 116.317H87.4416C87.6104 115.136 87.948 114.123 88.2855 112.942H105.839C105.501 111.76 104.995 110.579 104.489 109.566H89.6358C90.1421 108.384 90.8173 107.372 91.4924 106.19H102.801C102.126 105.009 101.282 103.827 100.269 102.815H94.0241C95.0368 101.633 96.0495 100.62 97.231 99.6078C91.6612 94.3755 84.0659 91.3374 75.7956 91.3374H75.6268" fill="#CB2026"/>
<path d="M87.273 131.001L87.7794 128.132C87.6106 128.132 87.273 128.301 86.9355 128.301C85.754 128.301 85.5852 127.626 85.754 127.288L86.7667 121.381H88.6233L89.1296 118.174H87.4418L87.7794 116.148H84.4037C84.4037 116.148 82.3783 127.288 82.3783 128.638C82.3783 130.664 83.5598 131.508 85.0789 131.508C86.0915 131.508 86.9355 131.17 87.273 131.001ZM88.4545 125.6C88.4545 130.326 91.6614 131.508 94.3619 131.508C96.8937 131.508 97.9064 131.001 97.9064 131.001L98.5815 127.794C98.5815 127.794 96.7249 128.638 95.037 128.638C91.3238 128.638 91.999 125.938 91.999 125.938H98.9191C98.9191 125.938 99.4254 123.744 99.4254 122.9C99.4254 120.706 98.2439 118.005 94.5307 118.005C90.9863 117.667 88.4545 121.381 88.4545 125.6ZM94.3619 120.706C96.2185 120.706 95.881 122.9 95.881 123.069H92.1677C92.1677 122.9 92.5053 120.706 94.3619 120.706ZM115.797 131.001L116.472 127.288C116.472 127.288 114.785 128.132 113.603 128.132C111.24 128.132 110.228 126.275 110.228 124.25C110.228 120.199 112.253 118.005 114.616 118.005C116.304 118.005 117.654 119.018 117.654 119.018L118.16 115.473C118.16 115.473 116.135 114.629 114.278 114.629C110.396 114.629 106.514 118.005 106.514 124.419C106.514 128.638 108.54 131.508 112.59 131.508C113.941 131.508 115.797 131.001 115.797 131.001ZM68.7069 117.667C66.3439 117.667 64.6561 118.343 64.6561 118.343L64.1498 121.212C64.1498 121.212 65.6688 120.537 67.863 120.537C69.0445 120.537 70.0572 120.706 70.0572 121.718C70.0572 122.393 69.8884 122.562 69.8884 122.562H68.3693C65.5 122.562 62.2932 123.744 62.2932 127.626C62.2932 130.664 64.3186 131.339 65.5 131.339C67.863 131.339 68.8757 129.82 69.0445 129.82L68.8757 131.17H71.9138L73.264 121.887C73.264 117.836 69.8884 117.667 68.7069 117.667ZM69.382 125.263C69.382 125.769 69.0445 128.47 67.0191 128.47C66.0064 128.47 65.6688 127.626 65.6688 127.119C65.6688 126.275 66.1752 125.094 68.7069 125.094C69.2133 125.263 69.382 125.263 69.382 125.263ZM76.4709 131.339C77.3148 131.339 81.5344 131.508 81.5344 126.951C81.5344 122.731 77.4836 123.575 77.4836 121.887C77.4836 121.043 78.1588 120.706 79.3402 120.706C79.8466 120.706 81.7032 120.874 81.7032 120.874L82.2095 117.836C82.2095 117.836 81.0281 117.499 79.0027 117.499C76.4709 117.499 73.9392 118.511 73.9392 121.887C73.9392 125.769 78.1588 125.432 78.1588 126.951C78.1588 127.963 76.9773 128.132 76.1334 128.132C74.6143 128.132 73.0953 127.626 73.0953 127.626L72.5889 130.664C72.7577 131.001 73.6016 131.339 76.4709 131.339ZM143.815 114.967L143.14 119.524C143.14 119.524 141.79 117.836 139.933 117.836C136.895 117.836 134.195 121.549 134.195 125.938C134.195 128.638 135.545 131.508 138.414 131.508C140.44 131.508 141.621 130.157 141.621 130.157L141.452 131.339H144.828L147.36 115.136L143.815 114.967ZM142.296 123.912C142.296 125.769 141.452 128.132 139.596 128.132C138.414 128.132 137.739 127.119 137.739 125.432C137.739 122.731 138.921 121.043 140.44 121.043C141.621 121.043 142.296 121.887 142.296 123.912ZM50.3096 131.17L52.335 119.018L52.6725 131.17H55.0355L59.4238 119.018L57.5672 131.17H61.1117L63.8122 114.967H58.2424L54.8667 124.925L54.6979 114.967H49.8032L47.1027 131.17H50.3096ZM102.632 131.17C103.645 125.6 103.814 121.043 106.177 121.887C106.514 119.693 107.021 118.849 107.358 118.005H106.683C105.164 118.005 103.983 120.03 103.983 120.03L104.32 118.174H101.113L98.9191 131.339H102.632V131.17ZM123.561 117.667C121.198 117.667 119.511 118.343 119.511 118.343L119.004 121.212C119.004 121.212 120.523 120.537 122.717 120.537C123.899 120.537 124.912 120.706 124.912 121.718C124.912 122.393 124.743 122.562 124.743 122.562H123.224C120.354 122.562 117.148 123.744 117.148 127.626C117.148 130.664 119.173 131.339 120.354 131.339C122.717 131.339 123.73 129.82 123.899 129.82L123.73 131.17H126.768L128.118 121.887C128.287 117.836 124.743 117.667 123.561 117.667ZM124.405 125.263C124.405 125.769 124.068 128.47 122.042 128.47C121.03 128.47 120.692 127.626 120.692 127.119C120.692 126.275 121.198 125.094 123.73 125.094C124.236 125.263 124.236 125.263 124.405 125.263ZM130.988 131.17C132.001 125.6 132.169 121.043 134.532 121.887C134.87 119.693 135.376 118.849 135.714 118.005H135.039C133.52 118.005 132.338 120.03 132.338 120.03L132.676 118.174H129.469L127.275 131.339H130.988V131.17Z" fill="white"/>
<path d="M82.0408 128.638C82.0408 130.664 83.2222 131.508 84.7413 131.508C85.9228 131.508 86.9355 131.17 87.273 131.001L87.7794 128.132C87.6106 128.132 87.273 128.301 86.9355 128.301C85.754 128.301 85.5852 127.626 85.754 127.288L86.7667 121.381H88.6233L89.1296 118.174H87.4418L87.7794 116.148L82.0408 128.638ZM90.1423 125.6C90.1423 130.326 91.6614 131.508 94.3619 131.508C96.8937 131.508 97.9064 131.001 97.9064 131.001L98.5815 127.794C98.5815 127.794 96.7249 128.638 95.037 128.638C91.3238 128.638 91.999 125.938 91.999 125.938H98.9191C98.9191 125.938 99.4254 123.744 99.4254 122.9C99.4254 120.706 98.2439 118.005 94.5307 118.005C90.9863 117.667 90.1423 121.381 90.1423 125.6ZM94.3619 120.706C96.2185 120.706 96.5561 122.9 96.5561 123.069H92.1677C92.1677 122.9 92.5053 120.706 94.3619 120.706ZM115.797 131.001L116.472 127.288C116.472 127.288 114.785 128.132 113.603 128.132C111.24 128.132 110.228 126.275 110.228 124.25C110.228 120.199 112.253 118.005 114.616 118.005C116.304 118.005 117.654 119.018 117.654 119.018L118.16 115.473C118.16 115.473 116.135 114.629 114.278 114.629C110.396 114.629 108.202 118.005 108.202 124.419C108.202 128.638 108.54 131.508 112.59 131.508C113.941 131.508 115.797 131.001 115.797 131.001ZM64.1498 121.381C64.1498 121.381 65.6688 120.706 67.863 120.706C69.0445 120.706 70.0572 120.874 70.0572 121.887C70.0572 122.562 69.8884 122.731 69.8884 122.731H68.3693C65.5 122.731 62.2932 123.912 62.2932 127.794C62.2932 130.833 64.3186 131.508 65.5 131.508C67.863 131.508 68.8757 129.989 69.0445 129.989L68.8757 131.339H71.9138L73.264 122.056C73.264 118.174 69.8884 118.005 68.5381 118.005L64.1498 121.381ZM71.0699 125.263C71.0699 125.769 69.0445 128.47 67.0191 128.47C66.0064 128.47 65.6688 127.626 65.6688 127.119C65.6688 126.275 66.1752 125.094 68.7069 125.094C69.2133 125.263 71.0699 125.263 71.0699 125.263ZM72.7577 131.001C72.7577 131.001 73.7704 131.339 76.6397 131.339C77.4836 131.339 81.7032 131.508 81.7032 126.951C81.7032 122.731 77.6524 123.575 77.6524 121.887C77.6524 121.043 78.3275 120.706 79.509 120.706C80.0154 120.706 81.872 120.874 81.872 120.874L82.3783 117.836C82.3783 117.836 81.1968 117.499 79.1715 117.499C76.6397 117.499 75.7958 118.511 75.7958 121.887C75.7958 125.769 78.3275 125.432 78.3275 126.951C78.3275 127.963 77.1461 128.132 76.3021 128.132L72.7577 131.001ZM143.14 119.524C143.14 119.524 141.79 117.836 139.933 117.836C136.895 117.836 135.883 121.549 135.883 125.938C135.883 128.638 135.545 131.508 138.414 131.508C140.44 131.508 141.621 130.157 141.621 130.157L141.452 131.339H144.828L147.36 115.136L143.14 119.524ZM142.971 123.912C142.971 125.769 141.452 128.132 139.596 128.132C138.414 128.132 137.739 127.119 137.739 125.432C137.739 122.731 138.921 121.043 140.44 121.043C141.621 121.043 142.971 121.887 142.971 123.912ZM50.3096 131.17L52.335 119.018L52.6725 131.17H55.0355L59.4238 119.018L57.5672 131.17H61.1117L63.8122 114.967H59.5926L54.8667 124.925L54.6979 114.967H52.8413L47.1027 131.17H50.3096ZM99.0878 131.17H102.632C103.645 125.6 103.814 121.043 106.177 121.887C106.514 119.693 107.021 118.849 107.358 118.005H106.683C105.164 118.005 103.983 120.03 103.983 120.03L104.32 118.174L99.0878 131.17ZM119.004 121.381C119.004 121.381 120.523 120.706 122.717 120.706C123.899 120.706 124.912 120.874 124.912 121.887C124.912 122.562 124.743 122.731 124.743 122.731H123.224C120.354 122.731 117.148 123.912 117.148 127.794C117.148 130.833 119.173 131.508 120.354 131.508C122.717 131.508 123.73 129.989 123.899 129.989L123.73 131.339H126.768L128.118 122.056C128.118 118.174 124.743 118.005 123.393 118.005L119.004 121.381ZM125.924 125.263C125.924 125.769 123.899 128.47 121.874 128.47C120.861 128.47 120.523 127.626 120.523 127.119C120.523 126.275 121.03 125.094 123.561 125.094C124.236 125.263 125.924 125.263 125.924 125.263ZM127.443 131.17H130.988C132.001 125.6 132.169 121.043 134.532 121.887C134.87 119.693 135.376 118.849 135.714 118.005H135.039C133.52 118.005 132.338 120.03 132.338 120.03L132.676 118.174" fill="#DCE5E5"/>
<path d="M252.798 18.734H259.208L256.003 10.5757L252.798 18.734Z" fill="#2FABF7"/>
<path d="M332.342 11.7411C331.759 11.4497 330.885 11.4497 330.011 11.4497H324.183V16.1116H330.011C330.885 16.1116 331.759 16.1116 332.342 15.8202C332.924 15.5288 333.216 14.6547 333.216 13.7806C333.507 12.6152 332.924 12.0324 332.342 11.7411Z" fill="#228FE0"/>
<path d="M394.694 3V6.4964L392.946 3H379.252V6.4964L377.503 3H358.856C355.651 3 353.029 3.58274 350.698 4.7482V3H337.586V4.7482C336.129 3.58274 334.381 3 332.05 3H285.14L281.935 10.2842L278.73 3H263.87V6.4964L262.122 3H249.593L243.766 16.6943L237.064 31.8454H251.924L253.672 27.1835H257.752L259.5 31.8454H276.399V28.3489L277.856 31.8454H286.306L287.762 28.3489V31.8454H328.262V24.2698H328.845C329.428 24.2698 329.428 24.2698 329.428 25.1439V31.554H350.406V29.8058C352.155 30.6799 354.777 31.554 358.273 31.554H367.014L368.762 26.8921H372.842L374.59 31.554H391.489V27.1835L394.111 31.554H407.806V3H394.694ZM296.212 27.4748H291.259V11.4496L284.266 27.4748H279.895L272.903 11.4496V27.4748H262.996L260.957 23.1043H251.05L249.302 27.7662H243.766L252.507 7.07914H259.791L267.949 26.6007V7.07914H275.816L282.226 21.0648L288.054 7.07914H296.212V27.4748ZM316.025 11.4496H304.662V15.2374H315.734V19.3166H304.662V23.3957H316.025V27.7662H299.708V7.07914H316.025V11.4496ZM337.878 19.8993C338.46 21.0648 338.752 21.9389 338.752 23.6871V27.7662H333.798V25.1439C333.798 23.9784 333.798 22.2302 332.924 21.0648C332.05 20.1907 331.176 20.1907 329.428 20.1907H324.183V27.7662H319.23V7.07914H330.302C332.924 7.07914 334.672 7.07914 336.129 7.95324C337.586 8.82734 338.46 10.2842 338.46 12.6151C338.46 15.8202 336.421 17.5684 334.964 18.1511C336.421 18.4425 337.295 19.3166 337.878 19.8993ZM346.619 27.4748H341.665V6.78777H346.619V27.4748ZM404.018 27.4748H397.025L387.701 12.0324V27.4748H377.795L376.047 23.1043H365.849L364.101 27.7662H358.565C356.234 27.7662 353.32 27.1835 351.572 25.4353C349.824 23.6871 348.949 21.3561 348.949 17.5684C348.949 14.6547 349.532 11.741 351.572 9.41008C353.029 7.66187 355.651 7.07914 358.856 7.07914H363.518V11.4496H358.856C357.108 11.4496 356.234 11.741 355.068 12.6151C354.194 13.4892 353.611 15.2374 353.611 17.277C353.611 19.6079 353.903 21.0648 355.068 22.2302C355.942 23.1043 357.108 23.3957 358.565 23.3957H360.604L367.306 7.37051H374.59L382.748 26.8921V7.37051H390.032L398.482 21.6475V7.37051H403.435V27.4748H404.018Z" fill="#0571C1"/>
<path d="M367.597 18.734H374.298L371.093 10.5757L367.597 18.734ZM318.064 60.6908V44.0829L310.489 52.2412L318.064 60.6908Z" fill="#228FE0"/>
<path d="M286.888 46.1221V49.9098H297.669V53.989H286.888V58.3595H298.834L304.37 52.2408L299.126 46.1221H286.888Z" fill="#2FABF7"/>
<path d="M329.137 46.1221H323.018V51.3667H329.428C331.176 51.3667 332.342 50.4926 332.342 48.7444C332.05 46.9962 330.885 46.1221 329.137 46.1221Z" fill="#228FE0"/>
<path d="M419.169 51.0759V37.9644H406.932C404.309 37.9644 402.27 38.5471 400.813 39.7126V37.9644H387.41C385.37 37.9644 382.748 38.5471 381.583 39.7126V37.9644H357.982V39.7126C356.234 38.2557 353.029 37.9644 351.572 37.9644H335.838V39.7126C334.381 38.2557 330.885 37.9644 329.137 37.9644H311.655L307.575 42.3349L303.788 37.9644H277.565V66.5184H303.205L307.284 62.1478L311.072 66.5184H326.806V59.8169H328.845C330.885 59.8169 333.507 59.8169 335.547 58.9428V66.8097H348.658V59.2342H349.241C350.115 59.2342 350.115 59.2342 350.115 60.1083V66.8097H389.741C392.363 66.8097 394.986 66.227 396.442 65.0615V66.8097H408.971C411.593 66.8097 414.216 66.5183 415.964 65.3529C418.878 63.6047 420.626 60.3996 420.626 56.6119C420.626 54.5723 420.043 52.5327 419.169 51.0759ZM328.845 55.7378H323.018V62.7306H313.694L307.867 56.0291L301.748 62.7306H282.518V42.0435H302.039L307.867 48.7449L313.985 42.0435H329.428C333.216 42.0435 337.586 43.209 337.586 48.7449C337.295 54.5723 333.216 55.7378 328.845 55.7378ZM357.982 54.5723C358.565 55.4464 358.856 56.6119 358.856 58.3601V62.4392H353.903V59.8169C353.903 58.6514 353.903 56.6119 353.029 55.7378C352.446 54.8637 351.28 54.8637 349.532 54.8637H344.288V62.4392H339.334V41.7521H350.406C352.737 41.7521 354.777 41.7521 356.234 42.6262C357.691 43.5003 358.856 44.9572 358.856 47.2881C358.856 50.4931 356.816 52.2414 355.36 52.8241C356.816 53.4068 357.691 53.9896 357.982 54.5723ZM378.086 46.1226H366.723V49.9104H377.795V53.9896H366.723V58.0687H378.086V62.4392H361.77V41.7521H378.086V46.1226ZM390.324 62.4392H381V58.0687H390.324C391.198 58.0687 391.781 58.0687 392.363 57.486C392.655 57.1946 392.946 56.6119 392.946 56.0291C392.946 55.4464 392.655 54.8637 392.363 54.5723C392.072 54.2809 391.489 53.9896 390.615 53.9896C385.953 53.6982 380.417 53.9896 380.417 47.5795C380.417 44.6658 382.165 41.4608 387.41 41.4608H397.025V46.414H387.993C387.119 46.414 386.536 46.414 385.953 46.7054C385.37 46.9967 385.37 47.5795 385.37 48.1622C385.37 49.0363 385.953 49.3277 386.536 49.619C387.119 49.9104 387.701 49.9104 388.284 49.9104H390.906C393.529 49.9104 395.277 50.4931 396.442 51.6586C397.317 52.5327 397.899 53.9896 397.899 56.0291C397.899 60.3996 395.277 62.4392 390.324 62.4392ZM415.381 60.3996C414.216 61.5651 412.176 62.4392 409.263 62.4392H399.939V58.0687H409.263C410.137 58.0687 410.719 58.0687 411.302 57.486C411.593 57.1946 411.885 56.6119 411.885 56.0291C411.885 55.4464 411.593 54.8637 411.302 54.5723C411.011 54.2809 410.428 53.9896 409.554 53.9896C404.892 53.6982 399.356 53.9896 399.356 47.5795C399.356 44.6658 401.104 41.4608 406.349 41.4608H415.964V46.414H407.223C406.349 46.414 405.766 46.414 405.183 46.7054C404.601 46.9967 404.601 47.5795 404.601 48.1622C404.601 49.0363 404.892 49.3277 405.766 49.619C406.349 49.9104 406.932 49.9104 407.514 49.9104H410.137C412.759 49.9104 414.507 50.4931 415.673 51.6586C415.964 51.6586 415.964 51.95 415.964 51.95C416.838 53.1155 417.129 54.5723 417.129 56.0291C417.129 57.7773 416.547 59.2342 415.381 60.3996Z" fill="#0571C1"/>
<path d="M352.737 46.7044C352.155 46.4131 351.28 46.4131 350.406 46.4131H344.579V51.075H350.406C351.28 51.075 352.155 51.075 352.737 50.7836C353.32 50.4922 353.611 49.6181 353.611 48.744C353.903 47.5786 353.32 46.9958 352.737 46.7044Z" fill="#228FE0"/>
<path d="M332.341 11.7412C331.759 11.4498 330.885 11.4498 330.01 11.4498H324.183V16.1117H330.01C330.885 16.1117 331.759 16.1117 332.341 15.8203C332.924 15.5289 333.215 14.6548 333.215 13.7807C333.507 12.6152 332.924 12.0325 332.341 11.7412ZM367.597 18.734H374.298L371.093 10.5757L367.597 18.734ZM318.064 60.6908V44.0829L310.489 52.2412L318.064 60.6908ZM329.136 46.1225H323.018V51.3671H329.428C331.176 51.3671 332.341 50.493 332.341 48.7448C332.05 46.9966 330.885 46.1225 329.136 46.1225ZM352.737 46.7052C352.154 46.4138 351.28 46.4138 350.406 46.4138H344.579V51.0757H350.406C351.28 51.0757 352.154 51.0757 352.737 50.7844C353.32 50.493 353.611 49.6189 353.611 48.7448C353.903 47.5793 353.32 46.9966 352.737 46.7052Z" fill="#228FE0"/>
<path d="M327.097 61.8565L323.018 57.486V62.4392H313.403L307.575 55.7378L301.165 62.4392H281.935V42.0435H301.457L307.575 48.7449L310.489 45.2485L303.205 37.9644H277.565V66.5184H303.205L307.575 62.1478L311.363 66.5184H327.097V61.8565Z" fill="#2FABF7"/>
<path d="M296.795 31.554L293.007 27.4748H291.259V25.7266L286.888 21.3561L283.975 27.4748H279.895L272.903 11.4496V27.4748H262.996L260.957 23.1043H251.05L249.011 27.4748H243.766L252.507 7.07914H259.791L267.949 26.6007V7.07914H272.32L268.241 3H263.87V6.4964L262.413 3H249.593L243.766 16.6943L237.064 31.554H252.216L253.964 27.1835H258.043L260.082 31.554H276.399V28.0576L277.856 31.554H286.306L287.762 28.0576V31.554H296.795Z" fill="#2FABF7"/>
<path d="M283.392 18.1516L278.73 13.4897L282.227 21.0653L283.392 18.1516Z" fill="#2FABF7"/>
<path d="M415.964 65.0601C418.586 63.3119 420.335 60.3982 420.626 57.1932L416.547 53.1141C416.838 53.9882 417.13 54.8623 417.13 56.0277C417.13 57.7759 416.547 59.2328 415.381 60.3982C414.216 61.5637 412.176 62.4378 409.263 62.4378H399.939V58.0673H409.263C410.137 58.0673 410.719 58.0673 411.302 57.4846C411.594 57.1932 411.885 56.6105 411.885 56.0277C411.885 55.445 411.594 54.8623 411.302 54.5709C411.011 54.2795 410.428 53.9882 409.554 53.9882C404.892 53.6968 399.356 53.9882 399.356 47.5781C399.356 44.6644 401.104 42.0421 405.475 41.4594L402.27 38.2543C401.687 38.5457 401.396 38.8371 401.104 38.8371V37.0889H387.701C385.662 37.0889 383.04 37.6716 381.874 38.8371V37.0889H357.982V38.8371C356.234 37.3802 353.029 37.0889 351.572 37.0889H335.838V38.8371C334.381 37.3802 330.885 37.0889 329.137 37.0889H311.655L307.575 41.4594L303.788 37.0889H300.583L309.324 45.8299L313.694 41.168H329.137C332.924 41.168 337.295 42.3335 337.295 47.8695C337.295 53.6968 333.216 54.8623 328.845 54.8623H323.018V59.2328L327.388 63.6033V59.2328H328.845C330.885 59.2328 333.507 59.2328 335.547 58.3587V66.2256H348.658V58.65H349.241C350.115 58.65 350.115 58.65 350.115 59.5241V66.2256H389.741C392.363 66.2256 394.986 65.6429 396.442 64.4774V66.2256H408.971C411.302 66.517 413.924 66.2256 415.964 65.0601ZM357.982 54.5709C358.565 55.445 358.856 56.6105 358.856 58.3587V62.4378H353.903V59.8155C353.903 58.65 353.903 56.6105 353.029 55.7364C352.446 54.8623 351.281 54.8623 349.532 54.8623H344.288V62.4378H339.334V41.7507H350.406C352.737 41.7507 354.777 41.7507 356.234 42.6248C357.691 43.499 358.856 44.9558 358.856 47.2867C358.856 50.4918 356.817 52.24 355.36 52.8227C356.817 53.4054 357.691 53.9882 357.982 54.5709ZM378.086 46.1213H366.723V49.909H377.795V53.9882H366.723V58.0673H378.086V62.4378H361.77V41.7507H378.086V46.1213ZM390.324 62.4378H381V58.0673H390.324C391.198 58.0673 391.781 58.0673 392.363 57.4846C392.655 57.1932 392.946 56.6105 392.946 56.0277C392.946 55.445 392.655 54.8623 392.363 54.5709C392.072 54.2795 391.489 53.9882 390.615 53.9882C385.953 53.6968 380.417 53.9882 380.417 47.5781C380.417 44.6644 382.165 41.4594 387.41 41.4594H397.025V46.4126H387.993C387.119 46.4126 386.536 46.4126 385.953 46.704C385.37 46.9953 385.371 47.5781 385.371 48.1608C385.371 49.0349 385.953 49.3263 386.536 49.6177C387.119 49.909 387.701 49.909 388.284 49.909H390.906C393.529 49.909 395.277 50.4918 396.442 51.6572C397.317 52.5313 397.899 53.9882 397.899 56.0277C397.899 60.3982 395.277 62.4378 390.324 62.4378Z" fill="#228FE0"/>
<path d="M404.309 48.1613C404.309 49.0354 404.601 49.3268 405.475 49.6181C406.058 49.9095 406.64 49.9095 407.223 49.9095H409.845C411.594 49.9095 412.759 50.2009 413.925 50.7836L409.554 46.4131H406.932C406.058 46.4131 405.475 46.4131 404.892 46.7044C404.601 46.9958 404.309 47.5786 404.309 48.1613Z" fill="#228FE0"/>
<path d="M394.111 30.68L394.694 31.5541H394.985L394.111 30.68ZM378.086 14.6548L383.039 26.6008V19.608L378.086 14.6548Z" fill="#228FE0"/>
<path d="M328.262 24.2704H328.845C329.428 24.2704 329.428 24.2704 329.428 25.1445V31.5546H350.406V29.8064C352.154 30.6805 354.777 31.5546 358.273 31.5546H367.014L368.762 26.8927H372.842L374.59 31.5546H391.489V28.6409L387.41 24.5618V27.7668H377.503L376.047 23.105H365.849L364.101 27.7668H358.565C356.234 27.7668 353.32 27.1841 351.572 25.4359C349.824 23.6877 348.949 21.3568 348.949 17.569C348.949 14.6553 349.532 11.7416 351.572 9.4107C353.029 7.6625 355.651 7.07976 358.856 7.07976H363.518V11.4503H358.856C357.108 11.4503 356.234 11.7416 355.068 12.6157C354.194 13.4898 353.611 15.238 353.611 17.2776C353.611 19.6086 353.903 21.0654 355.068 22.2309C355.942 23.105 357.108 23.3963 358.565 23.3963H360.604L367.306 7.37113H370.219L366.14 3.29199H358.565C355.36 3.29199 352.737 3.87472 350.406 5.04019V3.29199H337.586V5.04019C336.129 3.87472 334.381 3.29199 332.05 3.29199H285.14L281.935 10.5762L278.73 3.29199H265.91L269.989 7.37113H275.816L280.77 18.1517L282.518 19.8999L287.762 7.07976H295.921V27.7668H290.967V11.7416L286.014 23.3963L294.464 31.846H327.971L328.262 24.2704ZM341.665 7.07976H346.618V27.7668H341.665V7.07976ZM316.025 11.4503H304.662V15.238H315.734V19.3172H304.662V23.3963H316.025V27.7668H299.708V7.07976H316.025V11.4503ZM324.183 27.4755H319.23V6.7884H330.302C332.924 6.7884 334.672 6.7884 336.129 7.6625C337.586 8.5366 338.46 9.99343 338.46 12.3244C338.46 15.5294 336.421 17.2776 334.964 17.8604C336.129 18.1517 337.003 19.0258 337.295 19.6086C337.877 20.774 338.169 21.6481 338.169 23.3963V27.4755H333.216V24.8532C333.216 23.6877 333.216 21.9395 332.342 20.774C332.05 20.1913 331.176 20.1913 329.428 20.1913H324.183V27.4755Z" fill="#228FE0"/>
<path d="M363.069 106.094H350.851C350.132 106.094 349.414 106.812 349.054 107.531L344.023 139.154C344.023 139.873 344.383 140.232 345.102 140.232H351.57C352.289 140.232 352.648 139.873 352.648 139.154L354.085 130.17C354.085 129.452 354.804 128.733 355.882 128.733H359.835C368.1 128.733 372.772 124.78 373.85 116.874C374.568 113.64 373.85 110.765 372.412 108.969C370.256 107.172 367.022 106.094 363.069 106.094ZM364.507 117.952C363.788 122.265 360.554 122.265 357.32 122.265H355.163L356.601 114C356.601 113.64 356.96 113.281 357.679 113.281H358.398C360.554 113.281 362.71 113.281 363.788 114.718C364.507 115.078 364.507 116.156 364.507 117.952Z" fill="#139AD6"/>
<path d="M275.028 106.094H262.81C262.091 106.094 261.372 106.812 261.013 107.531L255.982 139.154C255.982 139.873 256.342 140.232 257.06 140.232H262.81C263.529 140.232 264.247 139.514 264.607 138.795L266.044 130.17C266.044 129.452 266.763 128.733 267.841 128.733H271.794C280.059 128.733 284.73 124.78 285.808 116.874C286.527 113.64 285.808 110.765 284.371 108.969C282.215 107.172 279.34 106.094 275.028 106.094ZM276.465 117.952C275.747 122.265 272.512 122.265 269.278 122.265H267.481L268.919 114C268.919 113.64 269.278 113.281 269.997 113.281H270.716C272.872 113.281 275.028 113.281 276.106 114.718C276.465 115.078 276.825 116.156 276.465 117.952ZM312.041 117.593H306.292C305.932 117.593 305.213 117.952 305.213 118.312L304.854 120.108L304.495 119.39C303.057 117.593 300.542 116.874 297.667 116.874C291.199 116.874 285.449 121.905 284.371 128.733C283.652 132.326 284.73 135.561 286.527 137.717C288.324 139.873 290.839 140.592 294.074 140.592C299.464 140.592 302.339 137.357 302.339 137.357L301.979 139.154C301.979 139.873 302.339 140.232 303.057 140.232H308.448C309.166 140.232 309.885 139.514 310.244 138.795L313.479 118.671C313.119 118.312 312.401 117.593 312.041 117.593ZM303.776 129.092C303.057 132.326 300.542 134.842 296.948 134.842C295.152 134.842 293.714 134.123 292.995 133.405C292.277 132.326 291.917 130.889 291.917 129.092C292.277 125.858 295.152 123.343 298.386 123.343C300.183 123.343 301.261 124.061 302.339 124.78C303.417 125.858 303.776 127.655 303.776 129.092Z" fill="#263B80"/>
<path d="M399.723 117.593H393.973C393.614 117.593 392.895 117.952 392.895 118.311L392.536 120.108L392.176 119.389C390.739 117.593 388.224 116.874 385.349 116.874C378.88 116.874 373.131 121.905 372.053 128.733C371.334 132.326 372.412 135.56 374.209 137.716C376.006 139.873 378.521 140.591 381.755 140.591C387.146 140.591 390.02 137.357 390.02 137.357L389.661 139.154C389.661 139.873 390.02 140.232 390.739 140.232H396.129C396.848 140.232 397.567 139.513 397.926 138.795L401.16 118.671C400.801 118.311 400.442 117.593 399.723 117.593ZM391.458 129.092C390.739 132.326 388.224 134.842 384.63 134.842C382.833 134.842 381.396 134.123 380.677 133.404C379.959 132.326 379.599 130.889 379.599 129.092C379.959 125.858 382.833 123.342 386.067 123.342C387.864 123.342 388.942 124.061 390.02 124.78C391.458 125.858 391.817 127.655 391.458 129.092Z" fill="#139AD6"/>
<path d="M343.305 117.591H337.196C336.477 117.591 336.118 117.951 335.758 118.31L327.853 130.528L324.259 119.029C323.9 118.31 323.54 117.951 322.462 117.951H316.713C315.994 117.951 315.635 118.669 315.635 119.388L322.103 138.434L315.994 147.058C315.635 147.777 315.994 148.855 316.713 148.855H322.462C323.181 148.855 323.54 148.496 323.9 148.136L343.664 119.747C344.742 118.669 344.023 117.591 343.305 117.591Z" fill="#263B80"/>
<path d="M406.551 107.171L401.52 139.513C401.52 140.232 401.879 140.591 402.598 140.591H407.629C408.348 140.591 409.066 139.872 409.426 139.154L414.457 107.531C414.457 106.812 414.097 106.452 413.379 106.452H407.629C407.27 106.093 406.91 106.453 406.551 107.171Z" fill="#139AD6"/>
<path d="M229.39 95.3122C226.875 92.4374 222.203 91 215.735 91H197.767C196.689 91 195.611 92.0781 195.252 93.1561L188.064 140.231C188.064 141.309 188.783 142.028 189.502 142.028H200.642L203.517 124.42V125.138C203.876 124.06 204.954 122.982 206.032 122.982H211.422C221.844 122.982 229.749 118.67 232.265 106.812V105.733C231.905 105.733 231.905 105.733 232.265 105.733C232.624 101.062 231.905 98.1871 229.39 95.3122Z" fill="#263B80"/>
<path d="M231.905 105.734V106.812C229.39 119.03 221.484 122.983 211.063 122.983H205.672C204.594 122.983 203.516 124.061 203.157 125.139L199.563 147.059C199.563 147.778 199.923 148.497 201.001 148.497H210.344C211.422 148.497 212.5 147.778 212.5 146.7V146.341L214.297 135.201V134.482C214.297 133.404 215.375 132.685 216.453 132.685H217.89C226.874 132.685 234.061 129.092 235.858 118.311C236.577 113.999 236.217 110.046 234.061 107.531C233.702 106.812 232.983 106.093 231.905 105.734Z" fill="#139AD6"/>
<path d="M229.39 104.655C229.031 104.655 228.672 104.295 228.312 104.295C227.953 104.295 227.593 104.295 227.234 103.936C225.797 103.577 224.359 103.577 222.563 103.577H208.548C208.188 103.577 207.829 103.577 207.47 103.936C206.751 104.295 206.392 105.014 206.392 105.733L203.517 124.419V125.138C203.876 124.06 204.954 122.982 206.032 122.982H211.423C221.844 122.982 229.75 118.669 232.265 106.811C232.265 106.451 232.265 106.092 232.624 105.733C231.906 105.373 231.546 105.014 230.828 105.014C229.75 104.655 229.75 104.655 229.39 104.655Z" fill="#232C65"/>
<path d="M86.7137 63.7641H70.404L80.5974 1.11937H96.9087L86.7137 63.7641ZM56.6834 1.11937L41.1345 44.2069L39.2945 34.9285L39.2962 34.9318L33.8083 6.75981C33.8083 6.75981 33.1447 1.11937 26.0715 1.11937H0.366142L0.0645142 2.18009C0.0645142 2.18009 7.92526 3.81558 17.1249 9.34039L31.2947 63.7657H48.2881L74.2364 1.11937H56.6834ZM184.967 63.7641H199.943L186.886 1.1177H173.775C167.721 1.1177 166.246 5.78622 166.246 5.78622L141.922 63.7641H158.923L162.323 54.4588H183.057L184.967 63.7641ZM167.02 41.6045L175.59 18.1613L180.411 41.6045H167.02ZM143.197 16.184L145.524 2.7314C145.524 2.7314 138.342 0 130.855 0C122.762 0 103.541 3.53742 103.541 20.7386C103.541 36.9226 126.1 37.1236 126.1 45.6245C126.1 54.1254 105.865 52.6022 99.1877 47.2416L96.7629 61.3075C96.7629 61.3075 104.046 64.8449 115.172 64.8449C126.302 64.8449 143.093 59.0821 143.093 43.3975C143.093 27.1096 120.332 25.5931 120.332 18.5116C120.333 11.4283 136.217 12.3382 143.197 16.184Z" fill="#2566AF"/>
<path d="M39.2961 34.9301L33.8082 6.75811C33.8082 6.75811 33.1446 1.11768 26.0714 1.11768H0.366081L0.0644531 2.1784C0.0644531 2.1784 12.4195 4.73888 24.2701 14.3323C35.6012 23.5018 39.2961 34.9301 39.2961 34.9301Z" fill="#E6A540"/>
</svg>
